<svg xmlns="http://www.w3.org/2000/svg" width="85.001" height="85" viewBox="0 0 85.001 85">
  <g id="Grupo_1212614" data-name="Grupo 1212614" transform="translate(-180.126 -2050.112)">
    <g id="Grupo_1212240" data-name="Grupo 1212240" transform="translate(180.178 2050.117)">
      <g id="Grupo_1112424" data-name="Grupo 1112424" transform="translate(-0.051 0.045)">
        <g id="Grupo_1112415" data-name="Grupo 1112415">
          <g id="Grupo_1098742" data-name="Grupo 1098742" transform="translate(0 0)">
            <g id="Rectángulo_400898" data-name="Rectángulo 400898" transform="translate(0.001 -0.051)" fill="#f5f2ce" stroke="#908619" stroke-width="3">
              <rect width="85" height="85" rx="42.5" stroke="none"/>
              <rect x="1.5" y="1.5" width="82" height="82" rx="41" fill="none"/>
            </g>
            <g id="Rectángulo_400907" data-name="Rectángulo 400907" transform="translate(0 -0.051)" fill="none" stroke="#908619" stroke-width="3">
              <rect width="85" height="85" rx="42.5" stroke="none"/>
              <rect x="1.5" y="1.5" width="82" height="82" rx="41" fill="none"/>
            </g>
          </g>
        </g>
      </g>
    </g>
    <g id="_33_download_button_cloud_downloading_file_web" data-name="33 download, button, cloud, downloading, file, web" transform="translate(191.126 2059)">
      <path id="Trazado_901455" data-name="Trazado 901455" d="M43.89,23.53A1,1,0,0,0,43,23H38V4a1,1,0,0,0-1-1H27a1,1,0,0,0-1,1V23H21a1,1,0,0,0-.82,1.57l11,16a.99.99,0,0,0,1.64-.01l11-16A1,1,0,0,0,43.89,23.53Z" fill="#f6921e"/>
      <g id="Grupo_1212613" data-name="Grupo 1212613">
        <path id="Trazado_901456" data-name="Trazado 901456" d="M34,21H30a1,1,0,0,1,0-2h4a1,1,0,0,1,0,2Z" fill="#ec1c24"/>
        <circle id="Elipse_11687" data-name="Elipse 11687" cx="3" cy="3" r="3" transform="translate(29.02 26.02)" fill="#ec1c24"/>
        <rect id="Rectángulo_408956" data-name="Rectángulo 408956" width="8" height="6" rx="1" transform="translate(38 39)" fill="#ec1c24"/>
        <rect id="Rectángulo_408957" data-name="Rectángulo 408957" width="8" height="6" rx="1" transform="translate(18 39)" fill="#ec1c24"/>
      </g>
      <rect id="Rectángulo_408958" data-name="Rectángulo 408958" width="12" height="12" rx="1" transform="translate(26 49)" fill="#3b2314"/>
      <rect id="Rectángulo_408959" data-name="Rectángulo 408959" width="12" height="12" rx="1" transform="translate(50 39)" fill="#3b2314"/>
      <rect id="Rectángulo_408960" data-name="Rectángulo 408960" width="12" height="12" rx="1" transform="translate(3 39)" fill="#3b2314"/>
      <path id="Trazado_901457" data-name="Trazado 901457" d="M31.18,40.58a1,1,0,0,0,1.64-.02l11-16A1,1,0,0,0,43,23H38V4a1,1,0,0,0-1-1H27a1,1,0,0,0-1,1V23H21a1,1,0,0,0-.82,1.57ZM27,25a1,1,0,0,0,1-1V5h8V24a1,1,0,0,0,1,1h4.11L32,38.25,22.91,25Zm2-5a1,1,0,0,1,1-1h4a1,1,0,0,1,0,2H30A1,1,0,0,1,29,20Zm6,9a3,3,0,1,0-3,3,3,3,0,0,0,3-3Zm-4,0a1,1,0,1,1,1,1A1,1,0,0,1,31,29ZM45,39H39a1,1,0,0,0-1,1v4a1,1,0,0,0,1,1h6a1,1,0,0,0,1-1V40A1,1,0,0,0,45,39Zm-1,4H40V41h4ZM26,40a1,1,0,0,0-1-1H19a1,1,0,0,0-1,1v4a1,1,0,0,0,1,1h6a1,1,0,0,0,1-1Zm-2,3H20V41h4Zm13,6H27a1,1,0,0,0-1,1V60a1,1,0,0,0,1,1H37a1,1,0,0,0,1-1V50A1,1,0,0,0,37,49ZM36,59H28V51h8ZM61,39H51a1,1,0,0,0-1,1V50a1,1,0,0,0,1,1H61a1,1,0,0,0,1-1V40A1,1,0,0,0,61,39ZM60,49H52V41h8ZM14,39H4a1,1,0,0,0-1,1V50a1,1,0,0,0,1,1H14a1,1,0,0,0,1-1V40A1,1,0,0,0,14,39ZM13,49H5V41h8Z"/>
    </g>
  </g>
</svg>
