<svg xmlns="http://www.w3.org/2000/svg" xmlns:xlink="http://www.w3.org/1999/xlink" width="190" height="154" viewBox="0 0 190 154">
  <defs>
    <clipPath id="clip-path">
      <rect id="Rectángulo_408993" data-name="Rectángulo 408993" width="190" height="154" transform="translate(1230.126 30462)" fill="#fff" stroke="#707070" stroke-width="1" opacity="0.47"/>
    </clipPath>
  </defs>
  <g id="Enmascarar_grupo_1098793" data-name="Enmascarar grupo 1098793" transform="translate(-1230.126 -30462)" clip-path="url(#clip-path)">
    <g id="Grupo_1212313" data-name="Grupo 1212313" transform="translate(18 25498)">
      <rect id="Rectángulo_408806" data-name="Rectángulo 408806" width="99" height="57" rx="12" transform="translate(1241.126 5029)" fill="#497d74"/>
      <rect id="Rectángulo_408807" data-name="Rectángulo 408807" width="78" height="154" rx="12" transform="translate(1286.126 4964)" fill="#345953"/>
    </g>
    <g id="blueprint_11010410" transform="translate(1251.52 30462.469)">
      <path id="Trazado_902138" data-name="Trazado 902138" d="M24,127.375a7.138,7.138,0,0,0,7.138,7.137h96.356V56H24Z" transform="translate(-6.216 -31.078)" fill="#fbe9d8"/>
      <path id="Trazado_902139" data-name="Trazado 902139" d="M41.844,24V95.375H31.138A7.138,7.138,0,0,0,24,102.512V31.138A7.138,7.138,0,0,1,31.138,24Z" transform="translate(-6.216 -6.216)" fill="#e3d3c2"/>
      <g id="Grupo_1212899" data-name="Grupo 1212899" transform="translate(42.766 39.197)">
        <path id="Trazado_902140" data-name="Trazado 902140" d="M136,120h7.137v7.137H136Z" transform="translate(-136 -120)" fill="#75452e"/>
        <path id="Trazado_902141" data-name="Trazado 902141" d="M248,312h7.137v7.138H248Z" transform="translate(-223.019 -269.175)" fill="#75452e"/>
        <path id="Trazado_902142" data-name="Trazado 902142" d="M136,312h7.137v7.138H136Z" transform="translate(-136 -269.175)" fill="#75452e"/>
      </g>
      <path id="Trazado_902143" data-name="Trazado 902143" d="M351.138,152l-5.606,14.015A21.412,21.412,0,0,0,344,173.967V209.1h14.275V173.967a21.413,21.413,0,0,0-1.531-7.953Z" transform="translate(-254.841 -105.666)" fill="#2978b8"/>
      <path id="Trazado_902144" data-name="Trazado 902144" d="M358.3,173.413H344.04a21.378,21.378,0,0,1,1.523-7.4L351.169,152l5.605,14.014A21.378,21.378,0,0,1,358.3,173.413Z" transform="translate(-254.872 -105.666)" fill="#e3d3c2"/>
      <path id="Trazado_902145" data-name="Trazado 902145" d="M365.365,162.706H356.8L361.083,152Z" transform="translate(-264.786 -105.666)" fill="#3397e8"/>
      <path id="Trazado_902146" data-name="Trazado 902146" d="M0,0H7.137V14.275H0Z" transform="translate(103.434 103.434) rotate(90)" fill="#7e8589"/>
      <path id="Trazado_902147" data-name="Trazado 902147" d="M344,443.569V440h14.275v3.569a7.137,7.137,0,0,1-14.275,0Z" transform="translate(-254.841 -329.428)" fill="#e3d3c2"/>
      <path id="Trazado_902148" data-name="Trazado 902148" d="M408,152h17.844v74.944H408Z" transform="translate(-304.566 -105.666)" fill="#3397e8"/>
      <path id="Trazado_902149" data-name="Trazado 902149" d="M121.278,23.137H37.412V17.784A1.784,1.784,0,0,0,35.628,16H24.922A8.932,8.932,0,0,0,16,24.922V96.3a8.932,8.932,0,0,0,8.922,8.922H87.375v8.922a8.917,8.917,0,0,0,14.275,7.133v0a1.784,1.784,0,0,0,1.784,1.784h17.844a1.784,1.784,0,0,0,1.784-1.784V24.922A1.784,1.784,0,0,0,121.278,23.137Zm-1.784,3.569V44.55h-3.569V32.059a1.784,1.784,0,0,0-1.784-1.784H37.412V26.706ZM37.412,89.159V33.844h74.944V44.55h-3.569V39.2A1.784,1.784,0,0,0,107,37.412H42.766A1.784,1.784,0,0,0,40.981,39.2V89.159a1.784,1.784,0,0,0,1.784,1.784H49.9a1.784,1.784,0,0,0,1.784-1.784V80.417a8.938,8.938,0,0,1,7.137,8.743,1.784,1.784,0,0,0,1.784,1.784H74.884a1.784,1.784,0,0,0,1.784-1.784V73.1H87.375V94.512H26.706V90.944h8.922A1.784,1.784,0,0,0,37.412,89.159Zm53.531,16.059H101.65v3.569H90.944Zm2.279-46.394h6.149l.875,2.187a19.529,19.529,0,0,1,1.26,4.95H91.088a19.546,19.546,0,0,1,1.26-4.95Zm1.427-3.569L96.3,51.139l1.647,4.117Zm7,46.394H98.081V69.531h3.569ZM90.944,69.531h3.569V101.65H90.944ZM103.434,44.55a1.784,1.784,0,0,0-1.784,1.784v8.578l-3.7-9.241a1.784,1.784,0,0,0-3.314,0L89.034,59.687A23.092,23.092,0,0,0,87.375,68.3v1.229H76.669V64.178a1.784,1.784,0,0,0-1.784-1.784H66.14a8.931,8.931,0,0,1,8.745-7.137,1.784,1.784,0,0,0,1.784-1.784V40.981h28.55V44.55ZM44.55,83.806h3.569v3.569H44.55Zm3.569-5.353v1.784H44.55V48.119H49.9a1.784,1.784,0,0,0,1.784-1.784V40.981H73.1V51.813A12.5,12.5,0,0,0,62.394,64.178a1.784,1.784,0,0,0,1.784,1.784H73.1V80.238H67.747a1.784,1.784,0,0,0-1.784,1.784v5.353h-3.7A12.511,12.511,0,0,0,49.9,76.669,1.784,1.784,0,0,0,48.119,78.453ZM44.55,44.55V40.981h3.569V44.55ZM69.531,83.806H73.1v3.569H69.531ZM19.569,24.922a5.359,5.359,0,0,1,5.353-5.353h8.922V87.375H24.922a8.875,8.875,0,0,0-5.353,1.789Zm0,71.375a5.362,5.362,0,0,1,3.569-5.046V96.3a1.784,1.784,0,0,0,1.784,1.784H87.375v3.569H24.922A5.359,5.359,0,0,1,19.569,96.3Zm76.728,23.2a5.359,5.359,0,0,1-5.353-5.353v-1.784H101.65v1.784A5.359,5.359,0,0,1,96.3,119.494Zm8.922,0V48.119h14.275v7.137h-5.353a1.784,1.784,0,1,0,0,3.569h5.353v3.569h-8.922a1.784,1.784,0,0,0,0,3.569h8.922v3.569h-5.353a1.784,1.784,0,1,0,0,3.569h5.353v3.569h-8.922a1.784,1.784,0,0,0,0,3.569h8.922v3.569h-5.353a1.784,1.784,0,1,0,0,3.569h5.353v3.569h-8.922a1.784,1.784,0,1,0,0,3.569h8.922v3.569h-5.353a1.784,1.784,0,1,0,0,3.569h5.353v3.569h-8.922a1.784,1.784,0,1,0,0,3.569h8.922v3.569h-5.353a1.784,1.784,0,1,0,0,3.569h5.353v3.569Z"/>
    </g>
  </g>
</svg>
