<svg xmlns="http://www.w3.org/2000/svg" width="105" height="104.999" viewBox="0 0 105 104.999">
  <g id="Grupo_1212408" data-name="Grupo 1212408" transform="translate(-1220 -10752.208)">
    <g id="Grupo_1198250" data-name="Grupo 1198250" transform="translate(1220 10752.208)">
      <g id="Grupo_1098742" data-name="Grupo 1098742" transform="translate(0)">
        <g id="Rect치ngulo_400898" data-name="Rect치ngulo 400898" transform="translate(0.001 0)" fill="#eabe94" stroke="#ae967f" stroke-width="1">
          <rect width="104.999" height="104.999" rx="52.5" stroke="none"/>
          <rect x="0.5" y="0.5" width="103.999" height="103.999" rx="52" fill="none"/>
        </g>
        <g id="Rect치ngulo_400907" data-name="Rect치ngulo 400907" transform="translate(0 0)" fill="none" stroke="#ae967f" stroke-width="1">
          <rect width="104.999" height="104.999" rx="52.5" stroke="none"/>
          <rect x="0.5" y="0.5" width="103.999" height="103.999" rx="52" fill="none"/>
        </g>
      </g>
    </g>
    <g id="editing_11413218" transform="translate(1239.383 10750.076)">
      <g id="Grupo_1212407" data-name="Grupo 1212407" transform="translate(1.052 25.764)">
        <path id="Trazado_900525" data-name="Trazado 900525" d="M206.363,376.17l-5.478-15.31h-6.359l-5.476,15.31h17.313Z" transform="translate(-165.641 -318.434)" fill="#2f5274" fill-rule="evenodd"/>
        <path id="Trazado_900526" data-name="Trazado 900526" d="M12.2,32.73h55.73a4.214,4.214,0,0,1,4.2,4.2V77.258a4.214,4.214,0,0,1-4.2,4.2H12.2a4.213,4.213,0,0,1-4.2-4.2V36.93A4.211,4.211,0,0,1,12.2,32.73Z" transform="translate(-8 -32.73)" fill="#3a658f" fill-rule="evenodd"/>
        <path id="Trazado_900527" data-name="Trazado 900527" d="M51.5,73.37h52.879v38.215H51.5Z" transform="translate(-45.876 -68.115)" fill="#b3dafe" fill-rule="evenodd"/>
        <path id="Trazado_900528" data-name="Trazado 900528" d="M51.5,73.37h2.816v38.215H51.5Z" transform="translate(-45.876 -68.115)" fill="#a1c4e5" fill-rule="evenodd"/>
        <path id="Trazado_900529" data-name="Trazado 900529" d="M231.332,117.249l1.559,1.555a1.426,1.426,0,0,1,.209,1.97l-14.242,14.242a.213.213,0,0,1-.124.061l-3.817.511a.3.3,0,0,1-.266-.1.328.328,0,0,1-.1-.266l.515-3.821a.181.181,0,0,1,.061-.12l14.242-14.242a1.418,1.418,0,0,1,1.967.209Z" transform="translate(-187.841 -105.87)" fill="#ffd400" fill-rule="evenodd"/>
        <path id="Trazado_900530" data-name="Trazado 900530" d="M218.8,233.431a.462.462,0,0,1-.067.018l-3.817.511a.3.3,0,0,1-.266-.1.328.328,0,0,1-.1-.266l.515-3.821a.2.2,0,0,1,.018-.063Z" transform="translate(-187.841 -204.241)" fill="#fbbd80" fill-rule="evenodd"/>
        <path id="Trazado_900531" data-name="Trazado 900531" d="M320.965,117.249l1.559,1.555a1.426,1.426,0,0,1,.209,1.97l-1.509,1.505-3.735-3.735L319,117.04A1.418,1.418,0,0,1,320.965,117.249Z" transform="translate(-277.474 -105.87)" fill="#ff4646" fill-rule="evenodd"/>
      </g>
      <path id="Trazado_900532" data-name="Trazado 900532" d="M60.98,24.73H5.254A5.24,5.24,0,0,0,.02,29.964V70.291a5.24,5.24,0,0,0,5.234,5.234H26.217l-2.482,6.942h-4.66a1.033,1.033,0,1,0,0,2.066H47.161a1.033,1.033,0,1,0,0-2.066H42.5l-2.482-6.942H60.98a5.24,5.24,0,0,0,5.234-5.234V29.964A5.24,5.24,0,0,0,60.98,24.73ZM40.3,82.467H25.93l2.482-6.942h9.411ZM64.147,70.291a3.171,3.171,0,0,1-3.166,3.166H5.254a3.171,3.171,0,0,1-3.166-3.166V29.964A3.171,3.171,0,0,1,5.254,26.8H60.98a3.171,3.171,0,0,1,3.166,3.166ZM59.559,29.986H6.675a1.033,1.033,0,0,0-1.033,1.033V69.231a1.033,1.033,0,0,0,1.033,1.033H59.558a1.033,1.033,0,0,0,1.033-1.033V31.02A1.032,1.032,0,0,0,59.559,29.986ZM58.525,68.2H7.709V32.053H58.525ZM27.252,51.137a.1.1,0,0,0,0,.019l-.513,3.819c0,.006,0,.013,0,.019a1.385,1.385,0,0,0,1.354,1.522,1.319,1.319,0,0,0,.187-.013l3.818-.513a1.242,1.242,0,0,0,.71-.352L47.045,41.4a2.168,2.168,0,0,0,.6-1.782,2.78,2.78,0,0,0-.809-1.649l-1.558-1.558a2.765,2.765,0,0,0-1.649-.807,2.172,2.172,0,0,0-1.782.6L27.617,50.433a1.222,1.222,0,0,0-.365.7ZM29.03,53.43l.781.782-.9.122Zm2.989.069-2.272-2.274L41.069,39.9l2.276,2.276ZM43.813,37.872l1.558,1.558a.593.593,0,0,1,.212.507l-.777.777L42.53,38.438l.771-.772a.574.574,0,0,1,.512.206ZM18.579,63.629V39.581a1.033,1.033,0,0,1,1.033-1.033h14a1.033,1.033,0,0,1,0,2.066H20.647V62.593H42.629V49.631a1.033,1.033,0,1,1,2.066,0v14a1.033,1.033,0,0,1-1.033,1.033H19.613a1.032,1.032,0,0,1-1.034-1.032Z"/>
    </g>
  </g>
</svg>
