<svg xmlns="http://www.w3.org/2000/svg" width="100" height="99.999" viewBox="0 0 100 99.999">
  <g id="Grupo_1212410" data-name="Grupo 1212410" transform="translate(-802.051 -13075.148)">
    <g id="Rectángulo_408685" data-name="Rectángulo 408685" transform="translate(802.051 13075.148)" fill="#6ab4a8" stroke="#497d74" stroke-width="2">
      <rect width="100" height="99.999" rx="50" stroke="none"/>
      <rect x="1" y="1" width="98" height="97.999" rx="49" fill="none"/>
    </g>
    <g id="css_2145130" transform="translate(805.549 13063.638)">
      <rect id="Rectángulo_408895" data-name="Rectángulo 408895" width="30.564" height="4.216" rx="2.108" transform="translate(17.054 85.75)" fill="#e6e6e6"/>
      <rect id="Rectángulo_408896" data-name="Rectángulo 408896" width="30.564" height="4.216" rx="2.108" transform="translate(43.402 85.75)" fill="#ccc"/>
      <path id="Trazado_900533" data-name="Trazado 900533" d="M162.568,250.039l3.591-24.241a2.108,2.108,0,0,1,2.085-1.8h34.734a2.108,2.108,0,0,1,2.085,2.417l-3.591,24.241a2.108,2.108,0,0,1-2.085,1.8H164.653a2.108,2.108,0,0,1-2.085-2.417Z" transform="translate(-127.239 -166.706)" fill="#e6e6e6"/>
      <path id="Trazado_900534" data-name="Trazado 900534" d="M162.568,250.039l3.591-24.241a2.108,2.108,0,0,1,2.085-1.8H199.1a2.108,2.108,0,0,1,2.085,2.417l-3.591,24.241a2.108,2.108,0,0,1-2.085,1.8H164.653a2.108,2.108,0,0,1-2.085-2.417Z" transform="translate(-127.239 -166.706)" fill="#3ea7ff"/>
      <path id="Trazado_900535" data-name="Trazado 900535" d="M68.265,81.1H60.888v4.216H24V40H60.888V73.726Z" transform="translate(-6.946 -6.946)" fill="#a0cc00"/>
      <path id="Trazado_900536" data-name="Trazado 900536" d="M16,78.373a1.054,1.054,0,0,0,1.054,1.054H53.942A1.054,1.054,0,0,0,55,78.373V75.211h6.324a1.054,1.054,0,0,0,.745-1.8L55,66.343V33.053A1.054,1.054,0,0,0,53.942,32H17.054A1.054,1.054,0,0,0,16,33.053Zm2.108-44.265h34.78V66.78a1.054,1.054,0,0,0,.309.745L58.775,73.1H53.942a1.054,1.054,0,0,0-1.054,1.054v3.162H18.108Z"/>
      <path id="Trazado_900537" data-name="Trazado 900537" d="M48,88h2.108v2.108H48Z" transform="translate(-27.784 -48.623)"/>
      <path id="Trazado_900538" data-name="Trazado 900538" d="M80,88h4.216v2.108H80Z" transform="translate(-55.568 -48.623)"/>
      <path id="Trazado_900539" data-name="Trazado 900539" d="M129.581,69.27a.526.526,0,0,1,.527.525,2.638,2.638,0,0,0,2.635,2.637h1.581V70.324h-1.581a.53.53,0,0,1-.527-.531,2.618,2.618,0,0,0-.532-1.577,2.618,2.618,0,0,0,.532-1.577.53.53,0,0,1,.527-.531h1.581V64h-1.581a2.638,2.638,0,0,0-2.635,2.637.526.526,0,0,1-.527.525h-.527a1.054,1.054,0,1,0,0,2.108Z" transform="translate(-97.245 -27.785)"/>
      <path id="Trazado_900540" data-name="Trazado 900540" d="M129.581,149.27a.526.526,0,0,1,.527.525,2.638,2.638,0,0,0,2.635,2.637h1.581v-2.108h-1.581a.53.53,0,0,1-.527-.531,2.618,2.618,0,0,0-.532-1.577,2.618,2.618,0,0,0,.532-1.577.53.53,0,0,1,.527-.531h1.581V144h-1.581a2.638,2.638,0,0,0-2.635,2.637.526.526,0,0,1-.527.525h-.527a1.054,1.054,0,0,0,0,2.108Z" transform="translate(-97.245 -97.245)"/>
      <path id="Trazado_900541" data-name="Trazado 900541" d="M52.743,299.162a.526.526,0,0,1-.527-.525A2.638,2.638,0,0,0,49.581,296H48v2.108h1.581a.53.53,0,0,1,.527.531,2.618,2.618,0,0,0,.532,1.577,2.618,2.618,0,0,0-.532,1.577.53.53,0,0,1-.527.531H48v2.108h1.581a2.638,2.638,0,0,0,2.635-2.637.526.526,0,0,1,.527-.525h.527a1.054,1.054,0,0,0,0-2.108Z" transform="translate(-27.784 -229.22)"/>
      <path id="Trazado_900542" data-name="Trazado 900542" d="M80,168h4.216v2.108H80Z" transform="translate(-55.568 -118.083)"/>
      <path id="Trazado_900543" data-name="Trazado 900543" d="M112,232h9.485v2.108H112Z" transform="translate(-83.353 -173.652)"/>
      <path id="Trazado_900544" data-name="Trazado 900544" d="M200,232h2.108v2.108H200Z" transform="translate(-159.759 -173.652)"/>
      <path id="Trazado_900545" data-name="Trazado 900545" d="M232,232h2.108v2.108H232Z" transform="translate(-187.544 -173.652)"/>
      <path id="Trazado_900546" data-name="Trazado 900546" d="M112,272h9.485v2.108H112Z" transform="translate(-83.353 -208.382)"/>
      <path id="Trazado_900547" data-name="Trazado 900547" d="M200,272h4.216v2.108H200Z" transform="translate(-159.759 -208.382)"/>
      <path id="Trazado_900548" data-name="Trazado 900548" d="M248,272h4.216v2.108H248Z" transform="translate(-201.436 -208.382)"/>
      <path id="Trazado_900549" data-name="Trazado 900549" d="M78.134,217.1A3.159,3.159,0,0,0,75.74,216H57.1v2.108H71.859a1.054,1.054,0,0,1,1.043,1.208L69.31,243.557a1.06,1.06,0,0,1-1.043.9H37.415a1.054,1.054,0,0,1-1.043-1.208l.267-1.8-2.085-.309-.267,1.8a3.16,3.16,0,0,0,.147,1.517H19.162a3.162,3.162,0,0,0,0,6.324h52.7a3.159,3.159,0,0,0,2.485-5.114,3.147,3.147,0,0,0,.932-1.8l3.591-24.241a3.159,3.159,0,0,0-.734-2.529ZM18.108,247.618a1.055,1.055,0,0,1,1.054-1.054H42.53a3.154,3.154,0,0,0,0,2.108H19.162a1.055,1.055,0,0,1-1.054-1.054Zm53.751,1.054H45.511a1.054,1.054,0,1,1,0-2.108H71.859a1.054,1.054,0,1,1,0,2.108Zm4.923-29.356-3.591,24.241a1.06,1.06,0,0,1-1.043.9h-.9a3.108,3.108,0,0,0,.149-.591l3.591-24.241a3.16,3.16,0,0,0-.147-1.517h.9a1.054,1.054,0,0,1,1.043,1.208Z" transform="translate(-0.001 -159.76)"/>
    </g>
  </g>
</svg>
