<svg xmlns="http://www.w3.org/2000/svg" width="105" height="104.999" viewBox="0 0 105 104.999">
  <g id="Grupo_1213046" data-name="Grupo 1213046" transform="translate(-275.051 -10752.208)">
    <g id="Grupo_1212362" data-name="Grupo 1212362">
      <g id="Grupo_1198247" data-name="Grupo 1198247" transform="translate(275.052 10752.208)">
        <g id="Grupo_1098742" data-name="Grupo 1098742" transform="translate(0)">
          <g id="Rect치ngulo_400898" data-name="Rect치ngulo 400898" transform="translate(0.001 0)" fill="#eabe94" stroke="#ae967f" stroke-width="1">
            <rect width="104.999" height="104.999" rx="52.5" stroke="none"/>
            <rect x="0.5" y="0.5" width="103.999" height="103.999" rx="52" fill="none"/>
          </g>
          <g id="Rect치ngulo_400907" data-name="Rect치ngulo 400907" transform="translate(0 0)" fill="none" stroke="#ae967f" stroke-width="1">
            <rect width="104.999" height="104.999" rx="52.5" stroke="none"/>
            <rect x="0.5" y="0.5" width="103.999" height="103.999" rx="52" fill="none"/>
          </g>
        </g>
      </g>
    </g>
    <g id="design_1081853" transform="translate(296.57 10776.899)">
      <path id="Trazado_900451" data-name="Trazado 900451" d="M215.914,326.7h9.546v15.89h-9.546Zm0,0" transform="translate(-190.206 -287.36)" fill="#464646"/>
      <path id="Trazado_900452" data-name="Trazado 900452" d="M260.773,326.7v12.017h-2.285A2.489,2.489,0,0,1,256,336.227V326.7Zm0,0" transform="translate(-225.519 -287.36)" fill="#5a5a5a"/>
      <path id="Trazado_900453" data-name="Trazado 900453" d="M65.653,48.137H8.55A1.035,1.035,0,0,1,7.516,47.1V9.609A1.035,1.035,0,0,1,8.55,8.574h57.1a1.035,1.035,0,0,1,1.035,1.035V47.1A1.035,1.035,0,0,1,65.653,48.137Zm0,0" transform="translate(-6.621 -7.113)" fill="#5a5a5a"/>
      <path id="Trazado_900454" data-name="Trazado 900454" d="M87.3,38.8V69.977a.6.6,0,0,1-.6.6H35.171a.6.6,0,0,1-.6-.6V38.8a.6.6,0,0,1,.6-.6H86.707A.6.6,0,0,1,87.3,38.8Zm0,0" transform="translate(-30.458 -33.21)" fill="#d2d2d7"/>
      <path id="Trazado_900455" data-name="Trazado 900455" d="M114.919,38.8V67.41h-48.4a.6.6,0,0,1-.6-.6V38.2h48.4A.6.6,0,0,1,114.919,38.8Zm0,0" transform="translate(-58.073 -33.21)" fill="#ebebf0"/>
      <path id="Trazado_900456" data-name="Trazado 900456" d="M134.22,455.006a1.165,1.165,0,0,1-1.165,1.165H97.319a1.164,1.164,0,0,1-1.163-1.165,5.043,5.043,0,0,1,5.041-5.041h27.982a5.04,5.04,0,0,1,5.041,5.041Zm0,0" transform="translate(-84.707 -395.949)" fill="#5a5a5a"/>
      <path id="Trazado_900457" data-name="Trazado 900457" d="M171.688,476.194a1.165,1.165,0,0,1-1.165,1.165H138.688a5.052,5.052,0,0,1,4.748-3.342h27.758a5.007,5.007,0,0,1,.494,2.178Zm0,0" transform="translate(-122.175 -417.136)" fill="#828282"/>
      <path id="Trazado_900458" data-name="Trazado 900458" d="M161.847,66.487v24.72a.6.6,0,0,1-.6.6H124.022a.6.6,0,0,1-.6-.6V66.487a.6.6,0,0,1,.6-.6h37.229a.6.6,0,0,1,.6.6Zm0,0" transform="translate(-108.73 -57.605)" fill="#6990d7"/>
      <path id="Trazado_900459" data-name="Trazado 900459" d="M200.079,140.481H182.436a.6.6,0,0,1-.6-.6V127.952a.6.6,0,0,1,.6-.6h17.643a.6.6,0,0,1,.6.6v11.932A.6.6,0,0,1,200.079,140.481Zm0,0" transform="translate(-160.188 -111.751)" fill="#caed73"/>
      <path id="Trazado_900460" data-name="Trazado 900460" d="M69.356,91.8H66.194a.268.268,0,0,1-.268-.268V66.159a.268.268,0,0,1,.268-.268h3.162a.268.268,0,0,1,.268.268V91.535A.268.268,0,0,1,69.356,91.8Zm0,0" transform="translate(-58.076 -57.604)" fill="#828282"/>
      <g id="Grupo_1212361" data-name="Grupo 1212361" transform="translate(7.849 11.846)">
        <path id="Trazado_900461" data-name="Trazado 900461" d="M65.926,95.789h3.7v3.759h-3.7Zm0,0" transform="translate(-65.926 -95.789)" fill="#5a5a5a"/>
        <path id="Trazado_900462" data-name="Trazado 900462" d="M65.926,158.926h3.7v3.758h-3.7Zm0,0" transform="translate(-65.926 -151.409)" fill="#5a5a5a"/>
        <path id="Trazado_900463" data-name="Trazado 900463" d="M65.926,222.059h3.7v3.759h-3.7Zm0,0" transform="translate(-65.926 -207.024)" fill="#5a5a5a"/>
      </g>
      <path id="Trazado_900464" data-name="Trazado 900464" d="M368.359,136.094l-6.466-1.733a.7.7,0,0,0-.855.855l1.733,6.466a.7.7,0,0,0,1.168.313l1.419-1.419,1.116,1.116a1.34,1.34,0,0,0,1.9-1.9l-1.116-1.116,1.419-1.419a.7.7,0,0,0-.313-1.168Zm0,0" transform="translate(-318.028 -117.902)" fill="#464646"/>
      <path id="Trazado_900465" data-name="Trazado 900465" d="M59.033.5H9.683a.895.895,0,1,0,0,1.79h49.35a.141.141,0,0,1,.14.14V39.922a.139.139,0,0,1-.14.14H1.929a.139.139,0,0,1-.14-.14V2.429a.141.141,0,0,1,.14-.14H6.1A.895.895,0,0,0,6.1.5H1.929A1.932,1.932,0,0,0,0,2.429V39.922a1.931,1.931,0,0,0,1.929,1.93H24.813v11.27H16.49a5.943,5.943,0,0,0-5.936,5.936,2.061,2.061,0,0,0,2.058,2.06h36.9a.9.9,0,0,0,.895-.9V59.058a5.943,5.943,0,0,0-5.936-5.936H36.149V41.852H59.033a1.931,1.931,0,0,0,1.929-1.93V2.429A1.932,1.932,0,0,0,59.033.5ZM26.6,41.852h7.756v11.27H26.6Zm17.869,13.06a4.147,4.147,0,0,1,4.146,4.146.27.27,0,0,1-.27.27H12.612a.269.269,0,0,1-.268-.267,4.152,4.152,0,0,1,4.146-4.149Zm0,0" transform="translate(0)"/>
      <path id="Trazado_900466" data-name="Trazado 900466" d="M50.723,64.851H80.086a1.493,1.493,0,0,0,1.492-1.492V32.179a1.493,1.493,0,0,0-1.492-1.492H28.55a1.493,1.493,0,0,0-1.492,1.492V63.36a1.493,1.493,0,0,0,1.492,1.492H47.143a.9.9,0,0,0,0-1.79H28.849V32.477H79.787V63.061H50.723a.9.9,0,0,0,0,1.79Zm0,0" transform="translate(-23.837 -26.593)"/>
      <path id="Trazado_900467" data-name="Trazado 900467" d="M361.963,128.607c-6.879-1.824-6.508-1.787-6.881-1.787a1.593,1.593,0,0,0-1.536,2.006l1.733,6.466a1.6,1.6,0,0,0,1.542,1.181c.964,0,1.311-.748,1.91-1.253l.482.484a2.236,2.236,0,0,0,3.162-3.161l-.483-.483.786-.786a1.6,1.6,0,0,0-.715-2.666Zm-1.169,5.959a.444.444,0,0,1-.315-.129c-.973-.887-1.15-1.379-1.748-1.379s-.752.471-1.811,1.44l-1.556-5.807,5.807,1.556-1.178,1.178a.9.9,0,0,0,0,1.266l1.116,1.116a.445.445,0,0,1-.315.759Zm0,0" transform="translate(-311.401 -111.279)"/>
      <path id="Trazado_900468" data-name="Trazado 900468" d="M59.569,58.375a1.165,1.165,0,0,0-1.163,1.163V84.915a1.165,1.165,0,0,0,1.163,1.163h3.162a1.164,1.164,0,0,0,1.163-1.163V59.538a1.164,1.164,0,0,0-1.163-1.163Zm2.536,25.913H60.2v-1.77h1.909Zm0-3.56H60.2V78.759h1.909Zm0-3.759H60.2V75h1.909Zm0-3.759H60.2V71.242h1.909Zm0-3.759H60.2V67.483h1.909Zm0-3.759H60.2V63.725h1.909Zm0-3.759H60.2v-1.77h1.909Zm0,0" transform="translate(-51.452 -50.984)"/>
      <path id="Trazado_900469" data-name="Trazado 900469" d="M155.228,71.361a.9.9,0,0,0,.895-.895V59.27a.9.9,0,0,0-.895-.895H116.806a.9.9,0,0,0-.9.895V85.184a.9.9,0,0,0,.9.895h38.422a.9.9,0,0,0,.895-.895V74.046a.895.895,0,1,0-1.79,0V84.289H117.7V80.609h3.112a.895.895,0,0,0,0-1.79H117.7V74.047h3.112a.9.9,0,0,0,0-1.79H117.7V67.484h3.112a.895.895,0,1,0,0-1.79H117.7V60.165h4.313v3.112a.895.895,0,0,0,1.79,0V60.165h4.773v3.112a.9.9,0,0,0,1.79,0V60.165h4.773v3.112a.895.895,0,0,0,1.79,0V60.165H141.7v3.112a.895.895,0,1,0,1.79,0V60.165h4.773v3.112a.9.9,0,0,0,1.79,0V60.165h4.278v10.3a.9.9,0,0,0,.895.895Zm0,0" transform="translate(-102.109 -50.984)"/>
      <path id="Trazado_900470" data-name="Trazado 900470" d="M194.055,119.836H175.219a.9.9,0,0,0-.895.895v13.126a.894.894,0,0,0,.895.895h18.836a.894.894,0,0,0,.9-.895V120.731A.9.9,0,0,0,194.055,119.836Zm-.895,13.126H176.114V121.626h17.047Zm0,0" transform="translate(-153.568 -105.127)"/>
    </g>
  </g>
</svg>
