<svg xmlns="http://www.w3.org/2000/svg" width="85.001" height="85" viewBox="0 0 85.001 85">
  <g id="Grupo_1212472" data-name="Grupo 1212472" transform="translate(-180.05 -19975.998)">
    <g id="Grupo_1198274" data-name="Grupo 1198274" transform="translate(180.102 19976.004)">
      <g id="Grupo_1112424" data-name="Grupo 1112424" transform="translate(-0.051 0.045)">
        <g id="Grupo_1112415" data-name="Grupo 1112415">
          <g id="Grupo_1098742" data-name="Grupo 1098742" transform="translate(0 0)">
            <g id="Rect치ngulo_400898" data-name="Rect치ngulo 400898" transform="translate(0.001 -0.051)" fill="#f5f2ce" stroke="#908619" stroke-width="3">
              <rect width="85" height="85" rx="42.5" stroke="none"/>
              <rect x="1.5" y="1.5" width="82" height="82" rx="41" fill="none"/>
            </g>
            <g id="Rect치ngulo_400907" data-name="Rect치ngulo 400907" transform="translate(0 -0.051)" fill="none" stroke="#908619" stroke-width="3">
              <rect width="85" height="85" rx="42.5" stroke="none"/>
              <rect x="1.5" y="1.5" width="82" height="82" rx="41" fill="none"/>
            </g>
          </g>
        </g>
      </g>
    </g>
    <g id="plan_997711" transform="translate(193.673 19939.988)">
      <g id="Grupo_1212470" data-name="Grupo 1212470" transform="translate(0.846 52.959)">
        <g id="XMLID_45_" transform="translate(0 0)">
          <g id="Grupo_1212469" data-name="Grupo 1212469">
            <g id="Grupo_1212464" data-name="Grupo 1212464" transform="translate(18.838)">
              <path id="Trazado_900748" data-name="Trazado 900748" d="M192.887,75.551,174.5,75.6V61.443a.943.943,0,0,1,.943-.943h2.328a15.117,15.117,0,0,1,15.116,15.051Zm-14.439-3.884h9.77a11.19,11.19,0,0,0-9.77-7.2Z" transform="translate(-174.5 -60.5)" fill="#4fccd6"/>
            </g>
            <path id="Trazado_900749" data-name="Trazado 900749" d="M62.933,193.51l-18.209.047v.064H26.338V193.6l-6.639.017-.016-.017H7.5v23.029a6.091,6.091,0,0,0,6.091,6.091H62.935a.628.628,0,0,0,.628-.628V194.138A.629.629,0,0,0,62.933,193.51Z" transform="translate(-7.5 -178.506)" fill="#f7f3e2"/>
            <path id="Trazado_900750" data-name="Trazado 900750" d="M16.094,220.593A6.091,6.091,0,0,1,10,214.5V194.35H7.5v23.029a6.091,6.091,0,0,0,6.091,6.091H62.935a.628.628,0,0,0,.628-.628v-2.249Z" transform="translate(-7.5 -179.251)" fill="#ede8d6"/>
            <path id="Trazado_900751" data-name="Trazado 900751" d="M308.117,224.5H289.858a1.358,1.358,0,0,0-1.358,1.358v13.753a1.358,1.358,0,0,0,1.358,1.358H307.9a1.358,1.358,0,0,0,1.358-1.358V225.638A1.139,1.139,0,0,0,308.117,224.5Z" transform="translate(-256.802 -206)" fill="#97e1be"/>
            <g id="Grupo_1212466" data-name="Grupo 1212466" transform="translate(40.835 18.5)">
              <g id="Grupo_1212465" data-name="Grupo 1212465">
                <path id="Trazado_900752" data-name="Trazado 900752" d="M381.119,225.638v9.578H370.131a.631.631,0,0,1-.631-.631V224.5h10.48A1.138,1.138,0,0,1,381.119,225.638Z" transform="translate(-369.5 -224.5)" fill="#fee24c"/>
              </g>
              <path id="Trazado_900753" data-name="Trazado 900753" d="M371.8,230.432V224.5h-2.3v10.086a.631.631,0,0,0,.631.631h10.988v-1.982H374.6A2.8,2.8,0,0,1,371.8,230.432Z" transform="translate(-369.5 -224.5)" fill="#f9cc4e"/>
            </g>
            <path id="Trazado_900754" data-name="Trazado 900754" d="M166.834,238.991l-1.444-1.925a.248.248,0,0,0-.4,0l-1.444,1.925a.249.249,0,0,0-.05.149v17.233a1.184,1.184,0,0,0,1.184,1.184H165.7a1.184,1.184,0,0,0,1.184-1.184V239.14A.247.247,0,0,0,166.834,238.991Z" transform="translate(-145.903 -217.061)" fill="#fe715a"/>
            <path id="Trazado_900755" data-name="Trazado 900755" d="M165.192,256.372V239.139a.247.247,0,0,1,.05-.149l.8-1.062-.648-.863a.248.248,0,0,0-.4,0l-1.444,1.925a.248.248,0,0,0-.05.149v17.233a1.184,1.184,0,0,0,1.184,1.184H165.7a1.186,1.186,0,0,0,.338-.05A1.184,1.184,0,0,1,165.192,256.372Z" transform="translate(-145.903 -217.06)" fill="#f45a4a"/>
            <g id="Grupo_1212467" data-name="Grupo 1212467" transform="translate(17.597 36.238)">
              <path id="Trazado_900756" data-name="Trazado 900756" d="M166.884,381.75v3.074a1.184,1.184,0,0,1-1.184,1.184h-1.015a1.184,1.184,0,0,1-1.184-1.184V381.75Z" transform="translate(-163.5 -381.75)" fill="#fee24c"/>
            </g>
            <path id="Trazado_900757" data-name="Trazado 900757" d="M165.843,386l.064-.01.045-.008c.029-.006.057-.014.085-.022h0a1.184,1.184,0,0,1-.846-1.135V381.75H163.5v3.074a1.185,1.185,0,0,0,.723,1.091,1.157,1.157,0,0,0,.109.04,1.178,1.178,0,0,0,.231.047,1.194,1.194,0,0,0,.121.006H165.7c.036,0,.071,0,.106-.005Z" transform="translate(-145.902 -345.512)" fill="#f9cc4e"/>
            <g id="Grupo_1212468" data-name="Grupo 1212468" transform="translate(0 8.234)">
              <path id="Trazado_900758" data-name="Trazado 900758" d="M19.683,140.377v23.012A6.091,6.091,0,0,0,7.5,163.152c0,.079,0,.158,0,.237V139.677a6.092,6.092,0,1,1,12.183-.09Z" transform="translate(-7.5 -133.495)" fill="#e8e4d6"/>
            </g>
          </g>
        </g>
      </g>
      <g id="Grupo_1212471" data-name="Grupo 1212471" transform="translate(0 52)">
        <path id="Trazado_900759" data-name="Trazado 900759" d="M57.322,67.547a1.464,1.464,0,0,0-1.041-.43h0L38.9,67.162A15.981,15.981,0,0,0,22.955,52H20.627a1.791,1.791,0,0,0-1.789,1.789V67.213l-4.965.013a6.935,6.935,0,0,0-7.028-6.878A7.01,7.01,0,0,0,0,67.376V91.086c0,.01,0,.019,0,.028a6.935,6.935,0,0,0,6.935,6.909H56.281a1.475,1.475,0,0,0,1.474-1.474V68.591A1.464,1.464,0,0,0,57.322,67.547ZM20.53,53.789a.1.1,0,0,1,.1-.1h2.329A14.287,14.287,0,0,1,37.2,67.116H20.53ZM56.063,96.331H6.937a5.244,5.244,0,0,1-5.244-5.248s0-.14,0-.2A5.276,5.276,0,0,1,3.985,86.76h0a5.239,5.239,0,0,1,8.2,4.327.846.846,0,1,0,1.692,0v-9.2a.846.846,0,1,0-1.692,0v4.66q-.206-.236-.434-.457a6.918,6.918,0,0,0-8.722-.723,6.988,6.988,0,0,0-1.334,1.2V67.376A5.311,5.311,0,0,1,6.867,62.04h.07a5.245,5.245,0,0,1,5.245,5.245V78.5a.846.846,0,0,0,1.692,0V68.918l42.188-.109Z" transform="translate(0 -52)"/>
        <path id="Trazado_900760" data-name="Trazado 900760" d="M283.2,235.161h18.04a2.206,2.206,0,0,0,2.2-2.2V218.985A1.987,1.987,0,0,0,301.463,217H283.2a2.206,2.206,0,0,0-2.2,2.2v13.754A2.206,2.206,0,0,0,283.2,235.161Zm18.259-16.469a.293.293,0,0,1,.293.293v8.731h-9.927v-9.024Zm-18.771.512a.512.512,0,0,1,.512-.512h6.933v9.87a.846.846,0,0,0,.846.846h10.773v3.549a.512.512,0,0,1-.512.512H283.2a.512.512,0,0,1-.512-.512Z" transform="translate(-249.302 -198.388)"/>
        <path id="Trazado_900761" data-name="Trazado 900761" d="M231.444,241.552a.846.846,0,0,0-1.2,1.2l1.523,1.523a.846.846,0,0,0,1.2,0l1.466-1.466a.846.846,0,0,0-1.2-1.2l-.079.079V231.333l.079.079a.846.846,0,0,0,1.2-1.2l-1.466-1.466a.846.846,0,0,0-1.2,0l-1.523,1.523a.846.846,0,0,0,1.2,1.2l.022-.022v10.128Z" transform="translate(-204.056 -208.591)"/>
        <path id="Trazado_900762" data-name="Trazado 900762" d="M327.748,389.248a.846.846,0,1,0-1.2,1.2l.022.022H316.445l.022-.022a.846.846,0,1,0-1.2-1.2l-1.523,1.523a.846.846,0,0,0,0,1.2l1.466,1.466a.846.846,0,0,0,1.2-1.2l-.079-.079h10.354l-.079.079a.846.846,0,0,0,1.2,1.2l1.466-1.466a.846.846,0,0,0,0-1.2Z" transform="translate(-278.137 -350.986)"/>
        <path id="Trazado_900763" data-name="Trazado 900763" d="M213.408,95.926a12.036,12.036,0,0,0-10.51-7.744.846.846,0,0,0-.9.844v7.2a.846.846,0,0,0,.846.846h2.961a.846.846,0,1,0,0-1.692h-2.115V89.965a10.348,10.348,0,0,1,7.617,5.415h-2.118a.846.846,0,1,0,0,1.692h3.425a.846.846,0,0,0,.791-1.146Z" transform="translate(-179.215 -84.1)"/>
        <path id="Trazado_900764" data-name="Trazado 900764" d="M158.03,250.448h1.016a2.033,2.033,0,0,0,2.03-2.03V231.1a.846.846,0,0,0-.169-.508l-1.692-2.256a.846.846,0,0,0-1.354,0l-1.692,2.256a.846.846,0,0,0-.169.508v17.315A2.033,2.033,0,0,0,158.03,250.448Zm1.016-1.692H158.03a.339.339,0,0,1-.338-.338v-2.228h1.692v2.228A.339.339,0,0,1,159.046,248.756Zm-.508-18.5.846,1.128V244.5h-1.692V231.384Z" transform="translate(-138.403 -208.147)"/>
      </g>
    </g>
  </g>
</svg>
