<svg xmlns="http://www.w3.org/2000/svg" width="100" height="99.999" viewBox="0 0 100 99.999">
  <g id="Grupo_1212489" data-name="Grupo 1212489" transform="translate(6465.25 -10384.148)">
    <g id="Rectángulo_408730" data-name="Rectángulo 408730" transform="translate(-6465.25 10384.148)" fill="#6ab4a8" stroke="#497d74" stroke-width="2">
      <rect width="100" height="99.999" rx="50" stroke="none"/>
      <rect x="1" y="1" width="98" height="97.999" rx="49" fill="none"/>
    </g>
    <g id="Blueprint" transform="translate(-6448.821 10402.43)">
      <path id="Trazado_900836" data-name="Trazado 900836" d="M6.47,4.01v46.5H5.1A4.1,4.1,0,0,0,1,54.61V8.113A4.1,4.1,0,0,1,3.735,4.257,7.1,7.1,0,0,1,6.47,4.01Z" transform="translate(0.368 0.357)" fill="#6fabe6"/>
      <path id="Trazado_900837" data-name="Trazado 900837" d="M5.748,4.01v46.5A2.735,2.735,0,0,1,3.82,49.7c-1.149-1.121-.807,1.75-.807-45.444A7.1,7.1,0,0,1,5.748,4.01Z" transform="translate(1.09 0.357)" fill="#82bcf4"/>
      <path id="Trazado_900838" data-name="Trazado 900838" d="M59.8,56.5H5.1a4.1,4.1,0,0,1,0-8.205H6.47V10H58.437V48.292c1.627,0,2.927-.137,4.267,1.2a4.1,4.1,0,0,1-2.9,7Z" transform="translate(0.368 2.573)" fill="#9fdbf3"/>
      <path id="Trazado_900839" data-name="Trazado 900839" d="M61.526,53.6a4.239,4.239,0,0,1-1.19.178H50.763A43.762,43.762,0,0,1,7,10.016c0-.137-1.7,0,49.232,0V48.308H57.6A4.1,4.1,0,0,1,61.526,53.6Z" transform="translate(2.571 2.557)" fill="#b2e5fb"/>
      <path id="Trazado_900840" data-name="Trazado 900840" d="M48.47,8.1V54.6a4.1,4.1,0,0,0-1.2-2.9A5.142,5.142,0,0,0,43,50.5V4h1.368a4.1,4.1,0,0,1,4.1,4.1Z" transform="translate(15.805 0.368)" fill="#6fabe6"/>
      <path id="Trazado_900841" data-name="Trazado 900841" d="M34.573,18.735H26.368a1.368,1.368,0,0,1,0-2.735h8.205a1.368,1.368,0,0,1,0,2.735Z" transform="translate(9.189 4.778)" fill="#edebf2"/>
      <path id="Trazado_900842" data-name="Trazado 900842" d="M24.573,18.735H16.368a1.368,1.368,0,0,1,0-2.735h8.205a1.368,1.368,0,0,1,0,2.735Z" transform="translate(5.513 4.778)" fill="#edebf2"/>
      <path id="Trazado_900843" data-name="Trazado 900843" d="M31.838,28.2V26.834a8.205,8.205,0,0,0-5.853-7.863,1.368,1.368,0,1,1,.766-2.626,10.94,10.94,0,0,1,7.822,10.489V28.2a1.368,1.368,0,1,1-2.735,0Z" transform="translate(9.189 4.885)" fill="#edebf2"/>
      <path id="Trazado_900844" data-name="Trazado 900844" d="M16,28.2V26.835a10.94,10.94,0,0,1,7.809-10.489,1.371,1.371,0,0,1,.793,2.626,8.205,8.205,0,0,0-5.867,7.863V28.2A1.368,1.368,0,0,1,16,28.2Z" transform="translate(5.881 4.884)" fill="#edebf2"/>
      <path id="Trazado_900845" data-name="Trazado 900845" d="M9,33H50.027v8.205H9Z" transform="translate(3.308 11.027)" fill="#df8761"/>
      <path id="Trazado_900846" data-name="Trazado 900846" d="M48.924,33v5.47H17.47A5.47,5.47,0,0,1,12,33Z" transform="translate(4.411 11.027)" fill="#f29b75"/>
      <g id="Grupo_1212488" data-name="Grupo 1212488" transform="translate(17.778 46.762)">
        <path id="Trazado_900847" data-name="Trazado 900847" d="M15.735,36.368v4.1H13v-4.1a1.368,1.368,0,0,1,2.735,0Z" transform="translate(-13 -35)" fill="#cc734c"/>
        <path id="Trazado_900848" data-name="Trazado 900848" d="M20.735,37.368V40.1H18V37.368a1.368,1.368,0,0,1,2.735,0Z" transform="translate(-11.162 -34.632)" fill="#cc734c"/>
        <path id="Trazado_900849" data-name="Trazado 900849" d="M25.735,36.368v4.1H23v-4.1a1.368,1.368,0,0,1,2.735,0Z" transform="translate(-9.324 -35)" fill="#cc734c"/>
        <path id="Trazado_900850" data-name="Trazado 900850" d="M35.735,36.368v4.1H33v-4.1a1.368,1.368,0,0,1,2.735,0Z" transform="translate(-5.649 -35)" fill="#cc734c"/>
        <path id="Trazado_900851" data-name="Trazado 900851" d="M30.735,37.368V40.1H28V37.368a1.368,1.368,0,0,1,2.735,0Z" transform="translate(-7.487 -34.632)" fill="#cc734c"/>
      </g>
      <path id="Trazado_900852" data-name="Trazado 900852" d="M43,4.01v46.5a2.735,2.735,0,0,0,1.928-.807c1.149-1.121.807,1.75.807-45.444A7.1,7.1,0,0,0,43,4.01Z" transform="translate(15.805 0.357)" fill="#82bcf4"/>
      <circle id="Elipse_11678" data-name="Elipse 11678" cx="2.5" cy="2.5" r="2.5" transform="translate(16.821 19.719)" fill="#374f68"/>
      <circle id="Elipse_11679" data-name="Elipse 11679" cx="2.5" cy="2.5" r="2.5" transform="translate(43.821 19.719)" fill="#374f68"/>
      <path id="Trazado_900853" data-name="Trazado 900853" d="M22,15h5.47v5.47H22Z" transform="translate(8.086 4.411)" fill="#db5669"/>
      <path id="Trazado_900854" data-name="Trazado 900854" d="M15,25h5.47v5.47H15Z" transform="translate(5.513 8.086)" fill="#db5669"/>
      <path id="Trazado_900855" data-name="Trazado 900855" d="M0,0H5.47V5.47H0Z" transform="translate(45.129 38.556) rotate(180)" fill="#db5669"/>
      <path id="Trazado_900856" data-name="Trazado 900856" d="M16.854,18.854a2.735,2.735,0,0,1-3.61-3.61,2.735,2.735,0,0,1,3.61,3.61Z" transform="translate(4.781 4.413)" fill="#425b72"/>
      <path id="Trazado_900857" data-name="Trazado 900857" d="M20.1,25v4.1A4.1,4.1,0,0,1,16,25Z" transform="translate(5.881 8.086)" fill="#f26674"/>
      <path id="Trazado_900858" data-name="Trazado 900858" d="M36.854,18.854a2.735,2.735,0,0,1-3.61-3.61,2.735,2.735,0,0,1,3.61,3.61Z" transform="translate(12.132 4.413)" fill="#425b72"/>
      <path id="Trazado_900859" data-name="Trazado 900859" d="M34.1,25v4.1A4.1,4.1,0,0,1,30,25Z" transform="translate(11.027 8.086)" fill="#f26674"/>
      <path id="Trazado_900860" data-name="Trazado 900860" d="M27.1,15v4.1A4.1,4.1,0,0,1,23,15Z" transform="translate(8.454 4.411)" fill="#f26674"/>
      <path id="Trazado_900861" data-name="Trazado 900861" d="M60.172,3H58.8a1.368,1.368,0,0,0-1.368,1.368v6.838H8.205V4.368A1.368,1.368,0,0,0,6.838,3H5.47A5.47,5.47,0,0,0,0,8.47v46.5a5.47,5.47,0,0,0,5.47,5.47h54.7a5.47,5.47,0,0,0,5.47-5.47V8.47A5.47,5.47,0,0,0,60.172,3Zm0,2.735A2.735,2.735,0,0,1,62.907,8.47V50.235a5.675,5.675,0,0,0-2.735-.738ZM2.735,8.47A2.735,2.735,0,0,1,5.47,5.735V49.5a5.716,5.716,0,0,0-2.735.738ZM60.172,57.7H5.47a2.735,2.735,0,0,1,0-5.47H6.838a1.368,1.368,0,0,0,1.368-1.368V13.94H57.437V50.864A1.368,1.368,0,0,0,58.8,52.232h1.368a2.735,2.735,0,0,1,0,5.47Z"/>
      <path id="Trazado_900862" data-name="Trazado 900862" d="M18.962,19.47h2.6a10.845,10.845,0,0,0-3.72,8.205H16.473a1.368,1.368,0,0,0-1.368,1.368v5.47a1.368,1.368,0,0,0,1.368,1.368h5.47a1.368,1.368,0,0,0,1.368-1.368v-5.47a1.368,1.368,0,0,0-1.368-1.368H20.576a8.11,8.11,0,0,1,4.1-7.084c0,1.614,1.231,1.614,1.368,1.614h5.47c.191,0,1.368,0,1.368-1.627a8.205,8.205,0,0,1,4.1,7.1H35.619a1.368,1.368,0,0,0-1.368,1.368v5.47a1.368,1.368,0,0,0,1.368,1.368h5.47a1.368,1.368,0,0,0,1.368-1.368v-5.47a1.368,1.368,0,0,0-1.368-1.368H39.722a10.94,10.94,0,0,0-3.2-7.74c-.629-.615-1.3-.465,2.079-.465a4.1,4.1,0,1,0,0-2.735H32.884V15.368A1.368,1.368,0,0,0,31.516,14h-5.47a1.368,1.368,0,0,0-1.368,1.368v1.368H18.962a4.1,4.1,0,1,0,0,2.735Zm1.614,13.676H17.841V30.411h2.735Zm19.146,0H36.987V30.411h2.735Zm2.735-16.411A1.368,1.368,0,1,1,41.089,18.1,1.368,1.368,0,0,1,42.457,16.735Zm-15.043,0h2.735V19.47H27.414Zm-12.308,0A1.368,1.368,0,1,1,13.738,18.1,1.368,1.368,0,0,1,15.106,16.735Z" transform="translate(4.04 4.043)"/>
      <path id="Trazado_900863" data-name="Trazado 900863" d="M50.394,32H9.368A1.368,1.368,0,0,0,8,33.368v8.205A1.368,1.368,0,0,0,9.368,42.94H50.394a1.368,1.368,0,0,0,1.368-1.368V33.368A1.368,1.368,0,0,0,50.394,32Zm-1.368,8.205h-4.1V37.47a1.368,1.368,0,0,0-2.735,0v2.735h-4.1V38.838a1.368,1.368,0,0,0-2.735,0v1.368h-4.1V37.47a1.368,1.368,0,0,0-2.735,0v2.735h-4.1V38.838a1.368,1.368,0,0,0-2.735,0v1.368h-4.1V37.47a1.368,1.368,0,0,0-2.735,0v2.735h-4.1v-5.47H49.027Z" transform="translate(2.94 10.659)"/>
    </g>
  </g>
</svg>
