<svg xmlns="http://www.w3.org/2000/svg" width="100" height="99.999" viewBox="0 0 100 99.999">
  <g id="Grupo_1212496" data-name="Grupo 1212496" transform="translate(6465.5 -10782.148)">
    <g id="Rectángulo_408734" data-name="Rectángulo 408734" transform="translate(-6465.5 10782.148)" fill="#6ab4a8" stroke="#497d74" stroke-width="2">
      <rect width="100" height="99.999" rx="50" stroke="none"/>
      <rect x="1" y="1" width="98" height="97.999" rx="49" fill="none"/>
    </g>
    <g id="resize_3039198" transform="translate(-6445.128 10803.57)">
      <g id="Grupo_1212494" data-name="Grupo 1212494" transform="translate(0.868 0.868)">
        <g id="Grupo_1212491" data-name="Grupo 1212491">
          <path id="Trazado_900864" data-name="Trazado 900864" d="M268.892,270.21l5.159-6.071,7.237,4.671v-9.339h-3.472V256H259.472v3.472H256v18.011l8.716-9.874Z" transform="translate(-227.24 -227.24)" fill="#c2eaf6" fill-rule="evenodd"/>
          <path id="Trazado_900865" data-name="Trazado 900865" d="M281.288,340.006v-9l-7.237-4.671-5.159,6.071-4.176-2.6L256,339.674v.333h3.472v3.472h18.344v-3.472Z" transform="translate(-227.24 -289.43)" fill="#7fdcc7" fill-rule="evenodd"/>
          <path id="Trazado_900866" data-name="Trazado 900866" d="M226,226h6.944v6.944H226Z" transform="translate(-200.712 -200.712)" fill="#efc17a" fill-rule="evenodd"/>
          <path id="Trazado_900867" data-name="Trazado 900867" d="M444.5,226h6.944v6.944H444.5Z" transform="translate(-393.924 -200.712)" fill="#efc17a" fill-rule="evenodd"/>
          <path id="Trazado_900868" data-name="Trazado 900868" d="M444.5,444.5h6.944v6.944H444.5Z" transform="translate(-393.924 -393.924)" fill="#efc17a" fill-rule="evenodd"/>
          <path id="Trazado_900869" data-name="Trazado 900869" d="M226,444.5h6.944v6.944H226Z" transform="translate(-200.712 -393.924)" fill="#efc17a" fill-rule="evenodd"/>
          <path id="Trazado_900870" data-name="Trazado 900870" d="M14.444,451.444V444.5H7.5v6.944Z" transform="translate(-7.5 -393.924)" fill="#efc17a" fill-rule="evenodd"/>
          <path id="Trazado_900871" data-name="Trazado 900871" d="M14.444,14.444V7.5H7.5v6.944h6.944Z" transform="translate(-7.5 -7.5)" fill="#efc17a" fill-rule="evenodd"/>
          <path id="Trazado_900872" data-name="Trazado 900872" d="M451.444,14.444V7.5H444.5v6.944h6.944Z" transform="translate(-393.924 -7.5)" fill="#efc17a" fill-rule="evenodd"/>
          <path id="Trazado_900873" data-name="Trazado 900873" d="M266.4,357.356l-1.68-1.046L256,366.184v.333h3.472v3.472h1.736v-5.208h-1.365Z" transform="translate(-227.24 -315.941)" fill="#5fa6b0" fill-rule="evenodd"/>
          <path id="Trazado_900874" data-name="Trazado 900874" d="M259.472,259.472H256v18.011l2.6-2.95V261.208h2.6V256h-1.736Z" transform="translate(-227.24 -227.24)" fill="#a3dcf0" fill-rule="evenodd"/>
          <path id="Trazado_900875" data-name="Trazado 900875" d="M431.236,431.236h3.472V429.5H429.5v5.208h1.736Z" transform="translate(-380.66 -380.66)" fill="#5fa6b0" fill-rule="evenodd"/>
          <path id="Trazado_900876" data-name="Trazado 900876" d="M431.236,259.472h3.472v1.736H429.5V256h1.736Z" transform="translate(-380.66 -227.24)" fill="#a3dcf0" fill-rule="evenodd"/>
          <path id="Trazado_900877" data-name="Trazado 900877" d="M226,444.5h2.6v6.944H226Z" transform="translate(-200.712 -393.924)" fill="#e8ab4c" fill-rule="evenodd"/>
          <path id="Trazado_900878" data-name="Trazado 900878" d="M226,226h2.6v6.944H226Z" transform="translate(-200.712 -200.712)" fill="#e8ab4c" fill-rule="evenodd"/>
          <path id="Trazado_900879" data-name="Trazado 900879" d="M444.5,226h2.6v6.944h-2.6Z" transform="translate(-393.924 -200.712)" fill="#e8ab4c" fill-rule="evenodd"/>
          <path id="Trazado_900880" data-name="Trazado 900880" d="M444.5,444.5h2.6v6.944h-2.6Z" transform="translate(-393.924 -393.924)" fill="#e8ab4c" fill-rule="evenodd"/>
          <path id="Trazado_900881" data-name="Trazado 900881" d="M444.5,7.5h2.6v6.944h-2.6Z" transform="translate(-393.924 -7.5)" fill="#e8ab4c" fill-rule="evenodd"/>
          <path id="Trazado_900882" data-name="Trazado 900882" d="M7.5,7.5h2.6v6.944H7.5Z" transform="translate(-7.5 -7.5)" fill="#e8ab4c" fill-rule="evenodd"/>
          <path id="Trazado_900883" data-name="Trazado 900883" d="M7.5,444.5h2.6v6.944H7.5Z" transform="translate(-7.5 -393.924)" fill="#e8ab4c" fill-rule="evenodd"/>
        </g>
        <g id="Grupo_1212492" data-name="Grupo 1212492" transform="translate(39.292 31.364)">
          <path id="Trazado_900884" data-name="Trazado 900884" d="M355.68,280.236h-5.208V278.5h5.208Zm-6.944,0H347V278.5h1.736Z" transform="translate(-347 -278.5)" fill="#fff"/>
        </g>
        <g id="Grupo_1212493" data-name="Grupo 1212493" transform="translate(34.836 49.708)">
          <path id="Trazado_900885" data-name="Trazado 900885" d="M313.708,438.736h-1.736V437h1.736Zm-3.472,0H308.5V437h1.736Z" transform="translate(-308.5 -437)" fill="#fff"/>
        </g>
      </g>
      <g id="Grupo_1212495" data-name="Grupo 1212495">
        <path id="Trazado_900886" data-name="Trazado 900886" d="M248.5,30h1.736v1.736H248.5Z" transform="translate(-219.74 -26.528)"/>
        <path id="Trazado_900887" data-name="Trazado 900887" d="M305.524,3.472V0h-8.68V3.472H278.5V5.208h18.344V8.68h3.472v11.4h1.736V8.68h3.472V5.208h-1.736V6.944H298.58V1.736h5.208V3.472Z" transform="translate(-246.268)"/>
        <path id="Trazado_900888" data-name="Trazado 900888" d="M8.68,296.844H5.208V278.5H3.472v18.344H0v3.472H1.736V298.58H6.944v5.208H1.736v-1.736H0v3.472H8.68v-3.472h11.4v-1.736H8.68Z" transform="translate(0 -246.268)"/>
        <path id="Trazado_900889" data-name="Trazado 900889" d="M323.372,440.472H308.5v1.736h14.872v3.472h8.68v-3.472h-1.736v1.736h-5.208v-5.208h5.208v1.736h1.736V437h-8.68Z" transform="translate(-272.796 -386.424)"/>
        <path id="Trazado_900890" data-name="Trazado 900890" d="M225.444,225.444h-5.208v-5.208h1.736V218.5H218.5v8.68h8.68v-3.472h14.872v-1.736H227.18V218.5h-3.472v1.736h1.736Z" transform="translate(-193.212 -193.212)"/>
        <path id="Trazado_900891" data-name="Trazado 900891" d="M30,248.5h1.736v1.736H30Z" transform="translate(-26.528 -219.74)"/>
        <path id="Trazado_900892" data-name="Trazado 900892" d="M3.472,27.024H5.208V8.68H8.68V5.208H27.024V3.472H8.68V0H0V3.472H1.736V1.736H6.944V6.944H1.736V5.208H0V8.68H3.472Z"/>
        <path id="Trazado_900893" data-name="Trazado 900893" d="M188.5,467h1.736v1.736H188.5Z" transform="translate(-166.684 -412.952)"/>
        <path id="Trazado_900894" data-name="Trazado 900894" d="M467,188.5h1.736v1.736H467Z" transform="translate(-412.952 -166.684)"/>
        <path id="Trazado_900895" data-name="Trazado 900895" d="M97.336,103.412h6.076V97.336h-1.736v3.113L93.323,92.1h3.113V90.36H90.36v6.076H92.1V93.323l8.353,8.353H97.336Z" transform="translate(-79.902 -79.902)"/>
        <path id="Trazado_900896" data-name="Trazado 900896" d="M231.721,235.574l2.7,1.681-2.211,2.6,1.323,1.124,7.529-8.86,6.2,4v5.928H249V227.18h3.472V218.5h-8.68v8.68h3.472v6.877l-6.538-4.22-5.166,6.08-4.164-2.594-7.683,8.7V228.916h-1.736v14.872H218.5v8.68h3.472v-1.736h-1.736v-5.208h5.208v5.208h-1.736v1.736h3.472v-8.68h-2.71Zm13.8-15.338h5.208v5.208h-5.208Z" transform="translate(-193.212 -193.212)"/>
      </g>
    </g>
  </g>
</svg>
