<svg xmlns="http://www.w3.org/2000/svg" xmlns:xlink="http://www.w3.org/1999/xlink" width="118" height="118" viewBox="0 0 118 118">
  <defs>
    <filter id="Trazado_896985" x="0" y="0" width="118" height="118" filterUnits="userSpaceOnUse">
      <feOffset dy="3" input="SourceAlpha"/>
      <feGaussianBlur stdDeviation="3" result="blur"/>
      <feFlood flood-opacity="0.161"/>
      <feComposite operator="in" in2="blur"/>
      <feComposite in="SourceGraphic"/>
    </filter>
  </defs>
  <g id="Grupo_1212505" data-name="Grupo 1212505" transform="translate(-830.853 -25346.26)">
    <g id="Grupo_1212199" data-name="Grupo 1212199" transform="translate(633.962 7417.26)">
      <g id="Grupo_1200012" data-name="Grupo 1200012" transform="translate(-0.949 13650.111)">
        <g id="Grupo_1198723" data-name="Grupo 1198723" transform="translate(0.95 -182.434)">
          <g id="Grupo_1198139" data-name="Grupo 1198139" transform="translate(-129 615.322)">
            <g id="Grupo_1111318" data-name="Grupo 1111318" transform="translate(334.891 3852)">
              <g id="Grupo_1109826" data-name="Grupo 1109826" transform="translate(0)">
                <g id="Grupo_1098742" data-name="Grupo 1098742" transform="translate(0 0)">
                  <g transform="matrix(1, 0, 0, 1, -9, -6)" filter="url(#Trazado_896985)">
                    <g id="Trazado_896985-2" data-name="Trazado 896985" transform="translate(9 6)" fill="#d0c110" opacity="0.859">
                      <path d="M 49.99993515014648 99.5 C 43.31726837158203 99.5 36.83476257324219 98.19129943847656 30.73248100280762 95.61025238037109 C 24.83812141418457 93.11714172363281 19.54434776306152 89.54795837402344 14.99820137023926 85.00179290771484 C 10.45204162597656 80.45565032958984 6.88285493850708 75.16187286376953 4.389748573303223 69.26751708984375 C 1.808695197105408 63.16523742675781 0.5000017881393433 56.6827278137207 0.5000017881393433 50.00006103515625 C 0.5000017881393433 43.31726455688477 1.808695197105408 36.83475494384766 4.389748573303223 30.73247528076172 C 6.88285493850708 24.83811569213867 10.45204162597656 19.54434204101562 14.99820137023926 14.99819660186768 C 19.54434776306152 10.45203590393066 24.83812141418457 6.88284969329834 30.73248100280762 4.389742851257324 C 36.83476257324219 1.808689475059509 43.31726837158203 0.4999961853027344 49.99993515014648 0.4999961853027344 C 56.68260192871094 0.4999961853027344 63.16510772705078 1.808689475059509 69.26738739013672 4.389742851257324 C 75.16175079345703 6.88284969329834 80.45552062988281 10.45203590393066 85.00167083740234 14.99819660186768 C 89.54782867431641 19.54434204101562 93.11701202392578 24.83811569213867 95.61012268066406 30.73247528076172 C 98.19117736816406 36.83475494384766 99.49987030029297 43.31726455688477 99.49987030029297 49.99993133544922 C 99.49987030029297 56.6827278137207 98.19117736816406 63.16523742675781 95.61012268066406 69.26751708984375 C 93.11701202392578 75.16187286376953 89.54782867431641 80.45565032958984 85.00167083740234 85.00179290771484 C 80.45552062988281 89.54795837402344 75.16175079345703 93.11714172363281 69.26738739013672 95.61025238037109 C 63.16510772705078 98.19129943847656 56.68260192871094 99.5 49.99993515014648 99.5 Z" stroke="none"/>
                      <path d="M 49.99993515014648 0.9999923706054688 C 43.38454818725586 0.9999923706054688 36.96757507324219 2.29541015625 30.92725372314453 4.850250244140625 C 25.09249877929688 7.318145751953125 19.85213470458984 10.85135650634766 15.35174560546875 15.35174560546875 C 10.85136413574219 19.85212707519531 7.318145751953125 25.09249114990234 4.850257873535156 30.92724609375 C 2.295417785644531 36.96757125854492 1 43.38454437255859 1 50.00006103515625 C 1 56.61544799804688 2.295417785644531 63.03242111206055 4.850257873535156 69.07273864746094 C 7.318145751953125 74.90750122070312 10.85136413574219 80.14786529541016 15.35174560546875 84.64824676513672 C 19.85213470458984 89.14863586425781 25.09249877929688 92.68184661865234 30.92725372314453 95.14974212646484 C 36.96757507324219 97.70458221435547 43.38454818725586 99 49.99993515014648 99 C 56.61532211303711 99 63.03229522705078 97.70458221435547 69.07261657714844 95.14974212646484 C 74.90737915039062 92.68184661865234 80.14773559570312 89.14863586425781 84.64812469482422 84.64824676513672 C 89.14850616455078 80.14786529541016 92.68172454833984 74.90750122070312 95.14961242675781 69.07273864746094 C 97.70445251464844 63.03242111206055 98.99987030029297 56.61544799804688 98.99987030029297 49.99993133544922 C 98.99987030029297 43.38454437255859 97.70445251464844 36.96757125854492 95.14961242675781 30.92724609375 C 92.68172454833984 25.09249114990234 89.14850616455078 19.85212707519531 84.64812469482422 15.35174560546875 C 80.14773559570312 10.85135650634766 74.90737915039062 7.318145751953125 69.07261657714844 4.850250244140625 C 63.03229522705078 2.29541015625 56.61532211303711 0.9999923706054688 49.99993515014648 0.9999923706054688 M 49.99993515014648 -7.62939453125e-06 C 77.6141357421875 -7.62939453125e-06 99.99987030029297 22.38572692871094 99.99987030029297 49.99993133544922 L 99.99987030029297 50.00006103515625 C 99.99987030029297 77.61426544189453 77.6141357421875 100 49.99993515014648 100 C 22.38573455810547 100 0 77.61426544189453 0 50.00006103515625 L 0 49.99993133544922 C 0 22.38572692871094 22.38573455810547 -7.62939453125e-06 49.99993515014648 -7.62939453125e-06 Z" stroke="none" fill="#fff"/>
                    </g>
                  </g>
                  <g id="Rectángulo_400907" data-name="Rectángulo 400907" transform="translate(0)" fill="none" stroke="#fff" stroke-width="1">
                    <rect width="100" height="100" rx="50" stroke="none"/>
                    <rect x="0.5" y="0.5" width="99" height="99" rx="49.5" fill="none"/>
                  </g>
                </g>
              </g>
            </g>
          </g>
        </g>
      </g>
    </g>
    <g id="touchpad_12640476" transform="translate(859.771 25374.447)">
      <path id="Trazado_900962" data-name="Trazado 900962" d="M6,17H41.645V39.915H6Z" transform="translate(1.365 4.642)" fill="#ccc"/>
      <path id="Trazado_900963" data-name="Trazado 900963" d="M35.28,17H6V39.915h6.365Z" transform="translate(1.365 4.642)" fill="#efefef"/>
      <g id="Grupo_1212504" data-name="Grupo 1212504" transform="translate(2.273 1.273)">
        <path id="Trazado_900964" data-name="Trazado 900964" d="M10,9H35.461v5.092H10Z" transform="translate(0.184 1.184)" fill="#5e5e5e"/>
        <path id="Trazado_900965" data-name="Trazado 900965" d="M18,1h5.092V6.092H18Z" transform="translate(2.368 -1)" fill="#5e5e5e"/>
        <path id="Trazado_900966" data-name="Trazado 900966" d="M26,1h5.092V6.092H26Z" transform="translate(4.553 -1)" fill="#5e5e5e"/>
        <path id="Trazado_900967" data-name="Trazado 900967" d="M34,1h5.092V6.092H34Z" transform="translate(6.737 -1)" fill="#5e5e5e"/>
        <path id="Trazado_900968" data-name="Trazado 900968" d="M10,1h5.092V6.092H10Z" transform="translate(0.184 -1)" fill="#5e5e5e"/>
        <path id="Trazado_900969" data-name="Trazado 900969" d="M2,1H7.092V6.092H2Z" transform="translate(-2 -1)" fill="#5e5e5e"/>
        <path id="Trazado_900970" data-name="Trazado 900970" d="M34,9h5.092v5.092H34Z" transform="translate(6.737 1.184)" fill="#5e5e5e"/>
        <path id="Trazado_900971" data-name="Trazado 900971" d="M2,9H7.092v5.092H2Z" transform="translate(-2 1.184)" fill="#5e5e5e"/>
      </g>
      <path id="Trazado_900972" data-name="Trazado 900972" d="M25.276,9H10v5.092H20.184Z" transform="translate(2.457 2.457)" fill="#919191"/>
      <path id="Trazado_900973" data-name="Trazado 900973" d="M18,6.092V1h5.092Z" transform="translate(4.642 0.273)" fill="#919191"/>
      <path id="Trazado_900974" data-name="Trazado 900974" d="M26,6.092V1h5.092Z" transform="translate(6.826 0.273)" fill="#919191"/>
      <path id="Trazado_900975" data-name="Trazado 900975" d="M34,6.092V1h5.092Z" transform="translate(9.01 0.273)" fill="#919191"/>
      <path id="Trazado_900976" data-name="Trazado 900976" d="M10,6.092V1h5.092Z" transform="translate(2.457 0.273)" fill="#919191"/>
      <path id="Trazado_900977" data-name="Trazado 900977" d="M2,6.092V1H7.092Z" transform="translate(0.273 0.273)" fill="#919191"/>
      <path id="Trazado_900978" data-name="Trazado 900978" d="M34,14.092V9h5.092Z" transform="translate(9.01 2.457)" fill="#919191"/>
      <path id="Trazado_900979" data-name="Trazado 900979" d="M42,1h5.092V6.092H42Z" transform="translate(11.194 0.273)" fill="#5e5e5e"/>
      <path id="Trazado_900980" data-name="Trazado 900980" d="M42,9h5.092v5.092H42Z" transform="translate(11.194 2.457)" fill="#5e5e5e"/>
      <path id="Trazado_900981" data-name="Trazado 900981" d="M42,6.092V1h5.092Z" transform="translate(11.194 0.273)" fill="#919191"/>
      <path id="Trazado_900982" data-name="Trazado 900982" d="M42,14.092V9h5.092Z" transform="translate(11.194 2.457)" fill="#919191"/>
      <path id="Trazado_900983" data-name="Trazado 900983" d="M2,14.092V9H7.092Z" transform="translate(0.273 2.457)" fill="#919191"/>
      <path id="Trazado_900984" data-name="Trazado 900984" d="M21.638,21a2.545,2.545,0,0,0-2.546,2.546V33.73L15.4,35.574A2.542,2.542,0,0,0,14,37.846v6.667a2.543,2.543,0,0,0,.335,1.26L19.092,54.1H34.368l2.364-5.911a2.523,2.523,0,0,0,.182-.943V35a2.542,2.542,0,0,0-2.542-2.542H24.184V23.546A2.545,2.545,0,0,0,21.638,21Z" transform="translate(3.549 5.734)" fill="#f2d6ad"/>
      <path id="Trazado_900985" data-name="Trazado 900985" d="M17.7,51.669,36.17,33.2a2.536,2.536,0,0,0-1.8-.745H24.184V23.546a2.546,2.546,0,1,0-5.092,0V33.73L15.4,35.574A2.542,2.542,0,0,0,14,37.846v6.667a2.543,2.543,0,0,0,.335,1.26Z" transform="translate(3.549 5.734)" fill="#fcf6f2"/>
      <path id="Trazado_900986" data-name="Trazado 900986" d="M22.642,7.638h5.092a1.273,1.273,0,0,0,1.273-1.273V1.273A1.273,1.273,0,0,0,27.734,0H22.642a1.273,1.273,0,0,0-1.273,1.273V6.365A1.273,1.273,0,0,0,22.642,7.638Zm1.273-5.092h2.546V5.092H23.915Zm19.1,5.092H48.1a1.273,1.273,0,0,0,1.273-1.273V1.273A1.273,1.273,0,0,0,48.1,0H43.01a1.273,1.273,0,0,0-1.273,1.273V6.365A1.273,1.273,0,0,0,43.01,7.638Zm1.273-5.092h2.546V5.092H44.283ZM32.826,7.638h5.092a1.273,1.273,0,0,0,1.273-1.273V1.273A1.273,1.273,0,0,0,37.918,0H32.826a1.273,1.273,0,0,0-1.273,1.273V6.365A1.273,1.273,0,0,0,32.826,7.638ZM34.1,2.546h2.546V5.092H34.1ZM43.01,17.822H48.1a1.273,1.273,0,0,0,1.273-1.273V11.457A1.273,1.273,0,0,0,48.1,10.184H43.01a1.273,1.273,0,0,0-1.273,1.273v5.092A1.273,1.273,0,0,0,43.01,17.822Zm1.273-5.092h2.546v2.546H44.283Zm14-2.546H53.194a1.273,1.273,0,0,0-1.273,1.273v5.092a1.273,1.273,0,0,0,1.273,1.273h5.092a1.273,1.273,0,0,0,1.273-1.273V11.457A1.273,1.273,0,0,0,58.286,10.184Zm-1.273,5.092H54.467V12.73h2.546ZM59.186,46.2a1.272,1.272,0,0,1,0,1.8l-5.092,5.092a1.272,1.272,0,0,1-1.8,0L47.2,48A1.273,1.273,0,0,1,49,46.2l2.919,2.919V29.28a1.273,1.273,0,1,1,2.546,0V49.12L57.386,46.2A1.274,1.274,0,0,1,59.186,46.2ZM58.286,0H53.194a1.273,1.273,0,0,0-1.273,1.273V6.365a1.273,1.273,0,0,0,1.273,1.273h5.092a1.273,1.273,0,0,0,1.273-1.273V1.273A1.273,1.273,0,0,0,58.286,0ZM57.013,5.092H54.467V2.546h2.546Zm-14,15.276H7.365a1.273,1.273,0,0,0-1.273,1.273V44.556a1.273,1.273,0,0,0,1.273,1.273h8.911v4.416a3.811,3.811,0,0,0,.5,1.894l4.756,8.324a1.271,1.271,0,0,0,1.1.642H37.918a1.275,1.275,0,0,0,1.183-.8L41.463,54.4a3.78,3.78,0,0,0,.274-1.419V45.829H43.01a1.273,1.273,0,0,0,1.273-1.273V21.642A1.273,1.273,0,0,0,43.01,20.368ZM39.191,52.977a1.253,1.253,0,0,1-.092.472l-2.043,5.11H23.381L18.99,50.875a1.256,1.256,0,0,1-.168-.63V43.583a1.265,1.265,0,0,1,.7-1.138l1.842-.922v4.305a1.273,1.273,0,0,0,2.546,0V29.28a1.273,1.273,0,1,1,2.546,0v8.911a1.273,1.273,0,0,0,1.273,1.273H37.918a1.275,1.275,0,0,1,1.273,1.273Zm2.546-12.24a3.824,3.824,0,0,0-3.819-3.819H29.007V29.28a3.819,3.819,0,0,0-7.638,0v9.4l-2.981,1.491a3.789,3.789,0,0,0-2.09,3.115H8.638V22.915h33.1ZM8.638,16.549V11.457a1.273,1.273,0,0,0-1.273-1.273H2.273A1.273,1.273,0,0,0,1,11.457v5.092a1.273,1.273,0,0,0,1.273,1.273H7.365A1.273,1.273,0,0,0,8.638,16.549ZM6.092,15.276H3.546V12.73H6.092Zm6.365-7.638h5.092a1.273,1.273,0,0,0,1.273-1.273V1.273A1.273,1.273,0,0,0,17.549,0H12.457a1.273,1.273,0,0,0-1.273,1.273V6.365A1.273,1.273,0,0,0,12.457,7.638ZM13.73,2.546h2.546V5.092H13.73ZM12.457,17.822H37.918a1.273,1.273,0,0,0,1.273-1.273V11.457a1.273,1.273,0,0,0-1.273-1.273H12.457a1.273,1.273,0,0,0-1.273,1.273v5.092A1.273,1.273,0,0,0,12.457,17.822ZM13.73,12.73H36.645v2.546H13.73ZM2.273,7.638H7.365A1.273,1.273,0,0,0,8.638,6.365V1.273A1.273,1.273,0,0,0,7.365,0H2.273A1.273,1.273,0,0,0,1,1.273V6.365A1.273,1.273,0,0,0,2.273,7.638ZM3.546,2.546H6.092V5.092H3.546Z" fill="#12263f"/>
    </g>
  </g>
</svg>
