<svg xmlns="http://www.w3.org/2000/svg" width="105" height="104.999" viewBox="0 0 105 104.999">
  <g id="Grupo_1212552" data-name="Grupo 1212552" transform="translate(-590.025 -3777.739)">
    <g id="Grupo_1212211" data-name="Grupo 1212211" transform="translate(590.026 3777.739)">
      <g id="Grupo_1098742" data-name="Grupo 1098742" transform="translate(0)">
        <g id="Rect치ngulo_400898" data-name="Rect치ngulo 400898" transform="translate(0.001 0)" fill="#eabe94" stroke="#ae967f" stroke-width="1">
          <rect width="104.999" height="104.999" rx="52.5" stroke="none"/>
          <rect x="0.5" y="0.5" width="103.999" height="103.999" rx="52" fill="none"/>
        </g>
        <g id="Rect치ngulo_400907" data-name="Rect치ngulo 400907" transform="translate(0 0)" fill="none" stroke="#ae967f" stroke-width="1">
          <rect width="104.999" height="104.999" rx="52.5" stroke="none"/>
          <rect x="0.5" y="0.5" width="103.999" height="103.999" rx="52" fill="none"/>
        </g>
      </g>
    </g>
    <g id="line_16221469" transform="translate(611.051 3798)">
      <g id="Grupo_1212528" data-name="Grupo 1212528">
        <g id="Grupo_1212515" data-name="Grupo 1212515">
          <path id="Trazado_901177" data-name="Trazado 901177" d="M32,1H6V63H58V1Z" fill="#2b4b73"/>
        </g>
        <g id="Grupo_1212516" data-name="Grupo 1212516">
          <path id="Trazado_901178" data-name="Trazado 901178" d="M24.98,54v4h-14V54h5V6h4V54Z" fill="#3679ce"/>
        </g>
        <g id="Grupo_1212517" data-name="Grupo 1212517">
          <path id="Trazado_901179" data-name="Trazado 901179" d="M54,54v4H40V54h5V6h4V54Z" fill="#3679ce"/>
        </g>
        <g id="Grupo_1212518" data-name="Grupo 1212518">
          <path id="Trazado_901180" data-name="Trazado 901180" d="M32,24a2,2,0,0,0-2,2V20a2,2,0,0,1,4,0v6A2.006,2.006,0,0,0,32,24Z" fill="#ed5565"/>
        </g>
        <g id="Grupo_1212519" data-name="Grupo 1212519">
          <path id="Trazado_901181" data-name="Trazado 901181" d="M32,48.01A1.992,1.992,0,0,0,30,50V44a2,2,0,0,1,4,0v6A2,2,0,0,0,32,48.01Z" fill="#ed5565"/>
        </g>
        <g id="Grupo_1212520" data-name="Grupo 1212520">
          <path id="Trazado_901182" data-name="Trazado 901182" d="M32,12a2,2,0,0,0-2,2V8a2,2,0,0,1,4,0v6A2.006,2.006,0,0,0,32,12Z" fill="#ed5565"/>
        </g>
        <g id="Grupo_1212525" data-name="Grupo 1212525">
          <g id="Grupo_1212521" data-name="Grupo 1212521">
            <path id="Trazado_901183" data-name="Trazado 901183" d="M32,18a2,2,0,0,0-2,2V14a2,2,0,0,1,4,0v6A2.006,2.006,0,0,0,32,18Z" fill="#da4453"/>
          </g>
          <g id="Grupo_1212522" data-name="Grupo 1212522">
            <path id="Trazado_901184" data-name="Trazado 901184" d="M32,42a2,2,0,0,0-2,2V38a2,2,0,0,1,4,0v6A2.006,2.006,0,0,0,32,42Z" fill="#da4453"/>
          </g>
          <g id="Grupo_1212523" data-name="Grupo 1212523">
            <path id="Trazado_901185" data-name="Trazado 901185" d="M32,54.01a1.989,1.989,0,0,0-2,1.98V50a2,2,0,0,1,4,0v5.99A2,2,0,0,0,32,54.01Z" fill="#da4453"/>
          </g>
          <g id="Grupo_1212524" data-name="Grupo 1212524">
            <path id="Trazado_901186" data-name="Trazado 901186" d="M32,30a2,2,0,0,0-2,2V26a2,2,0,0,1,4,0v6A2.006,2.006,0,0,0,32,30Z" fill="#da4453"/>
          </g>
        </g>
        <g id="Grupo_1212526" data-name="Grupo 1212526">
          <path id="Trazado_901187" data-name="Trazado 901187" d="M32,36a2,2,0,0,0-2,2V32a2,2,0,0,1,4,0v6A2.006,2.006,0,0,0,32,36Z" fill="#ed5565"/>
        </g>
        <g id="Grupo_1212527" data-name="Grupo 1212527">
          <path id="Trazado_901188" data-name="Trazado 901188" d="M32,54.01a2,2,0,0,1,2,1.98V56a2,2,0,0,1-4,0v-.01A1.989,1.989,0,0,1,32,54.01Z" fill="#ed5565"/>
        </g>
      </g>
      <g id="Grupo_1212551" data-name="Grupo 1212551">
        <g id="Grupo_1212529" data-name="Grupo 1212529">
          <path id="Trazado_901189" data-name="Trazado 901189" d="M6,64a1,1,0,0,1-1-1V1A1,1,0,0,1,7,1V63A1,1,0,0,1,6,64Z"/>
        </g>
        <g id="Grupo_1212530" data-name="Grupo 1212530">
          <path id="Trazado_901190" data-name="Trazado 901190" d="M58,64a1,1,0,0,1-1-1V1a1,1,0,0,1,2,0V63A1,1,0,0,1,58,64Z"/>
        </g>
        <g id="Grupo_1212544" data-name="Grupo 1212544">
          <g id="Grupo_1212533" data-name="Grupo 1212533">
            <g id="Grupo_1212531" data-name="Grupo 1212531">
              <path id="Trazado_901191" data-name="Trazado 901191" d="M30,56.991a1,1,0,0,1-1-1V8a1,1,0,0,1,2,0V55.991A1,1,0,0,1,30,56.991Z"/>
            </g>
            <g id="Grupo_1212532" data-name="Grupo 1212532">
              <path id="Trazado_901192" data-name="Trazado 901192" d="M34,56.991a1,1,0,0,1-1-1V8a1,1,0,0,1,2,0V55.991A1,1,0,0,1,34,56.991Z"/>
            </g>
          </g>
          <g id="Grupo_1212534" data-name="Grupo 1212534">
            <path id="Trazado_901193" data-name="Trazado 901193" d="M34,9a1,1,0,0,1-1-1,1,1,0,1,0-2,0,1,1,0,0,1-2,0,3,3,0,0,1,6,0A1,1,0,0,1,34,9Z"/>
          </g>
          <g id="Grupo_1212535" data-name="Grupo 1212535">
            <path id="Trazado_901194" data-name="Trazado 901194" d="M34,15a1,1,0,0,1-1-1,1,1,0,0,0-2,0,1,1,0,1,1-2,0,3,3,0,1,1,6,0A1,1,0,0,1,34,15Z"/>
          </g>
          <g id="Grupo_1212536" data-name="Grupo 1212536">
            <path id="Trazado_901195" data-name="Trazado 901195" d="M34,21a1,1,0,0,1-1-1,1,1,0,1,0-2,0,1,1,0,0,1-2,0,3,3,0,1,1,6,0A1,1,0,0,1,34,21Z"/>
          </g>
          <g id="Grupo_1212537" data-name="Grupo 1212537">
            <path id="Trazado_901196" data-name="Trazado 901196" d="M34,27a1,1,0,0,1-1-1,1,1,0,1,0-2,0,1,1,0,0,1-2,0,3,3,0,1,1,6,0A1,1,0,0,1,34,27Z"/>
          </g>
          <g id="Grupo_1212538" data-name="Grupo 1212538">
            <path id="Trazado_901197" data-name="Trazado 901197" d="M34,33a1,1,0,0,1-1-1,1,1,0,1,0-2,0,1,1,0,0,1-2,0,3,3,0,1,1,6,0A1,1,0,0,1,34,33Z"/>
          </g>
          <g id="Grupo_1212539" data-name="Grupo 1212539">
            <path id="Trazado_901198" data-name="Trazado 901198" d="M34,39.005a1,1,0,0,1-1-1,1,1,0,1,0-2,0,1,1,0,1,1-2,0,3,3,0,1,1,6,0A1,1,0,0,1,34,39.005Z"/>
          </g>
          <g id="Grupo_1212540" data-name="Grupo 1212540">
            <path id="Trazado_901199" data-name="Trazado 901199" d="M34,45.005a1,1,0,0,1-1-1,1,1,0,1,0-2,0,1,1,0,1,1-2,0,3,3,0,1,1,6,0A1,1,0,0,1,34,45.005Z"/>
          </g>
          <g id="Grupo_1212541" data-name="Grupo 1212541">
            <path id="Trazado_901200" data-name="Trazado 901200" d="M34,51.005a1,1,0,0,1-1-1,1,1,0,0,0-2,0,1,1,0,1,1-2,0,3,3,0,0,1,6,0A1,1,0,0,1,34,51.005Z"/>
          </g>
          <g id="Grupo_1212542" data-name="Grupo 1212542">
            <path id="Trazado_901201" data-name="Trazado 901201" d="M34,57.005a1,1,0,0,1-1-1,1,1,0,0,0-2,0,1,1,0,1,1-2,0,3,3,0,0,1,6,0A1,1,0,0,1,34,57.005Z"/>
          </g>
          <g id="Grupo_1212543" data-name="Grupo 1212543">
            <path id="Trazado_901202" data-name="Trazado 901202" d="M32,58.995a3,3,0,0,1-3-3,1,1,0,0,1,2,0,1,1,0,0,0,2,0,1,1,0,0,1,2,0,3,3,0,0,1-3,3Z"/>
          </g>
        </g>
        <g id="Grupo_1212545" data-name="Grupo 1212545">
          <path id="Trazado_901203" data-name="Trazado 901203" d="M32,7a1,1,0,0,1-1-1V1a1,1,0,0,1,2,0V6A1,1,0,0,1,32,7Z"/>
        </g>
        <g id="Grupo_1212546" data-name="Grupo 1212546">
          <path id="Trazado_901204" data-name="Trazado 901204" d="M32,64a1,1,0,0,1-1-1V56.995a1,1,0,0,1,2,0V63a1,1,0,0,1-1,1Z"/>
        </g>
        <g id="Grupo_1212547" data-name="Grupo 1212547">
          <path id="Trazado_901205" data-name="Trazado 901205" d="M24.986,59h-14a1,1,0,0,1-1-1V54a1,1,0,0,1,1-1h4V6a1,1,0,0,1,1-1h4a1,1,0,0,1,1,1V53h4a1,1,0,0,1,1,1v4A1,1,0,0,1,24.986,59Zm-13-2h12V55h-4a1,1,0,0,1-1-1V7h-2V54a1,1,0,0,1-1,1h-4Z"/>
        </g>
        <g id="Grupo_1212548" data-name="Grupo 1212548">
          <path id="Trazado_901206" data-name="Trazado 901206" d="M54,59H40a1,1,0,0,1-1-1V54a1,1,0,0,1,1-1h4V6a1,1,0,0,1,1-1h4a1,1,0,0,1,1,1V53h4a1,1,0,0,1,1,1v4A1,1,0,0,1,54,59ZM41,57H53V55H49a1,1,0,0,1-1-1V7H46V54a1,1,0,0,1-1,1H41Z"/>
        </g>
        <g id="Grupo_1212549" data-name="Grupo 1212549">
          <path id="Trazado_901207" data-name="Trazado 901207" d="M58,2H6A1,1,0,0,1,6,0H58a1,1,0,0,1,0,2Z"/>
        </g>
        <g id="Grupo_1212550" data-name="Grupo 1212550">
          <path id="Trazado_901208" data-name="Trazado 901208" d="M58,64H6a1,1,0,0,1,0-2H58a1,1,0,0,1,0,2Z"/>
        </g>
      </g>
    </g>
  </g>
</svg>
