<svg xmlns="http://www.w3.org/2000/svg" xmlns:xlink="http://www.w3.org/1999/xlink" width="190" height="154" viewBox="0 0 190 154">
  <defs>
    <clipPath id="clip-path">
      <rect id="Rectángulo_408998" data-name="Rectángulo 408998" width="190" height="154" transform="translate(1230.126 26643)" fill="#fff" stroke="#707070" stroke-width="1" opacity="0.47"/>
    </clipPath>
  </defs>
  <g id="Enmascarar_grupo_1098796" data-name="Enmascarar grupo 1098796" transform="translate(-1230.126 -26643)" clip-path="url(#clip-path)">
    <g id="Grupo_1212916" data-name="Grupo 1212916" transform="translate(18 21679)">
      <rect id="Rectángulo_408996" data-name="Rectángulo 408996" width="99" height="57" rx="12" transform="translate(1241.126 5029)" fill="#497d74"/>
      <rect id="Rectángulo_408997" data-name="Rectángulo 408997" width="78" height="154" rx="12" transform="translate(1286.126 4964)" fill="#345953"/>
    </g>
    <g id="blueprint_14254130_3_" data-name="blueprint_14254130 (3)" transform="translate(1271.2 26657.477)">
      <g id="Grupo_1212937" data-name="Grupo 1212937" transform="translate(2 17.726)">
        <g id="Grupo_1212917" data-name="Grupo 1212917" transform="translate(1.048 13.479)">
          <path id="Trazado_902180" data-name="Trazado 902180" d="M86.272,21.5V87.1H5.7a3,3,0,0,1-3-3V24.5a3,3,0,0,1,3-3Z" transform="translate(-2.7 -21.5)" fill="#c9eaf5"/>
        </g>
        <g id="Grupo_1212918" data-name="Grupo 1212918" transform="translate(1.048 13.479)">
          <path id="Trazado_902181" data-name="Trazado 902181" d="M70.247,21.5V51.754A26.782,26.782,0,0,1,43.438,78.563H2.7V84.1a3,3,0,0,0,3,3H86.272V21.5Z" transform="translate(-2.7 -21.5)" fill="#a9dcea"/>
        </g>
        <g id="Grupo_1212919" data-name="Grupo 1212919" transform="translate(0 12.281)">
          <path id="Trazado_902182" data-name="Trazado 902182" d="M86.621,88.546H6.044A4.027,4.027,0,0,1,2,84.5V24.894A4.186,4.186,0,0,1,6.194,20.7H86.77a1.181,1.181,0,0,1,1.2,1.2V87.5A1.439,1.439,0,0,1,86.621,88.546ZM6.044,22.947A1.983,1.983,0,0,0,4.1,24.894V84.5a1.857,1.857,0,0,0,1.947,1.8H85.422V22.947Z" transform="translate(-2 -20.7)"/>
        </g>
        <g id="Grupo_1212920" data-name="Grupo 1212920" transform="translate(6.889 65.45)">
          <path id="Trazado_902183" data-name="Trazado 902183" d="M15.137,65.636H7.8a1.181,1.181,0,0,1-1.2-1.2V57.4a1.181,1.181,0,0,1,1.2-1.2A1.1,1.1,0,0,1,9,57.4v5.991h6.141a1.181,1.181,0,0,1,1.2,1.2A1.061,1.061,0,0,1,15.137,65.636Z" transform="translate(-6.6 -56.2)"/>
        </g>
        <g id="Grupo_1212921" data-name="Grupo 1212921" transform="translate(6.889 59.609)">
          <path id="Trazado_902184" data-name="Trazado 902184" d="M7.8,55.895a1.181,1.181,0,0,1-1.2-1.2V53.5a1.181,1.181,0,0,1,1.2-1.2A1.1,1.1,0,0,1,9,53.5v1.2a1.288,1.288,0,0,1-1.2,1.2Z" transform="translate(-6.6 -52.3)"/>
        </g>
        <g id="Grupo_1212928" data-name="Grupo 1212928" transform="translate(16.774 22.615)">
          <g id="Grupo_1212926" data-name="Grupo 1212926">
            <g id="Grupo_1212922" data-name="Grupo 1212922" transform="translate(23.214)">
              <path id="Trazado_902185" data-name="Trazado 902185" d="M29.9,74.179a1.181,1.181,0,0,1-1.2-1.2V28.8a1.181,1.181,0,0,1,1.2-1.2,1.1,1.1,0,0,1,1.2,1.2V73.13A1.068,1.068,0,0,1,29.9,74.179Z" transform="translate(-28.7 -27.6)"/>
            </g>
            <g id="Grupo_1212923" data-name="Grupo 1212923" transform="translate(47.028)">
              <path id="Trazado_902186" data-name="Trazado 902186" d="M45.8,74.179a1.181,1.181,0,0,1-1.2-1.2V28.8a1.181,1.181,0,0,1,1.2-1.2A1.1,1.1,0,0,1,47,28.8V73.13A1.157,1.157,0,0,1,45.8,74.179Z" transform="translate(-44.6 -27.6)"/>
            </g>
            <g id="Grupo_1212924" data-name="Grupo 1212924" transform="translate(14.078 22.016)">
              <path id="Trazado_902187" data-name="Trazado 902187" d="M56.748,44.7H23.8a1.181,1.181,0,0,1-1.2-1.2,1.1,1.1,0,0,1,1.2-1.2H56.9a1.181,1.181,0,0,1,1.2,1.2,1.311,1.311,0,0,1-1.348,1.2Z" transform="translate(-22.6 -42.3)"/>
            </g>
            <g id="Grupo_1212925" data-name="Grupo 1212925" transform="translate(0 44.182)">
              <path id="Trazado_902188" data-name="Trazado 902188" d="M61.426,59.5H14.4a1.181,1.181,0,0,1-1.2-1.2,1.1,1.1,0,0,1,1.2-1.2H61.426a1.2,1.2,0,1,1,0,2.4Z" transform="translate(-13.2 -57.1)"/>
            </g>
          </g>
          <g id="Grupo_1212927" data-name="Grupo 1212927" transform="translate(23.214 22.166)">
            <path id="Trazado_902189" data-name="Trazado 902189" d="M53.712,66.813H29.9a1.181,1.181,0,0,1-1.2-1.2V43.6a1.181,1.181,0,0,1,1.2-1.2H53.712a1.181,1.181,0,0,1,1.2,1.2V65.764A1.157,1.157,0,0,1,53.712,66.813ZM31.1,64.566H52.663V44.647H31.1Z" transform="translate(-28.7 -42.4)"/>
          </g>
        </g>
        <g id="Grupo_1212929" data-name="Grupo 1212929" transform="translate(74.586 1.344)">
          <path id="Trazado_902190" data-name="Trazado 902190" d="M71.869,23.286V80.2H51.8V23.436A10.035,10.035,0,0,1,61.835,13.4a9.815,9.815,0,0,1,10.035,9.885Z" transform="translate(-51.8 -13.398)" fill="#666"/>
        </g>
        <g id="Grupo_1212930" data-name="Grupo 1212930" transform="translate(74.586 2.546)">
          <path id="Trazado_902191" data-name="Trazado 902191" d="M67.077,14.2V51.343A15.341,15.341,0,0,1,51.8,66.62V79.8H71.869V22.887A10.2,10.2,0,0,0,67.077,14.2Z" transform="translate(-51.8 -14.2)" fill="#595857"/>
        </g>
        <g id="Grupo_1212931" data-name="Grupo 1212931" transform="translate(73.538)">
          <path id="Trazado_902192" data-name="Trazado 902192" d="M72.218,81.694H52.148A1.068,1.068,0,0,1,51.1,80.5V23.733a11.226,11.226,0,0,1,19.171-7.938,11.75,11.75,0,0,1,3.145,7.938V80.646a1.144,1.144,0,0,1-.3.749A2.129,2.129,0,0,1,72.218,81.694ZM53.347,79.448H71.169V23.733a8.828,8.828,0,0,0-2.546-6.29,9.321,9.321,0,0,0-6.44-2.7,8.7,8.7,0,0,0-8.836,8.836Z" transform="translate(-51.1 -12.5)"/>
        </g>
        <g id="Grupo_1212932" data-name="Grupo 1212932" transform="translate(74.736 58.86)">
          <path id="Trazado_902193" data-name="Trazado 902193" d="M71.969,61.835A10.035,10.035,0,1,1,61.935,51.8,10.035,10.035,0,0,1,71.969,61.835Z" transform="translate(-51.9 -51.8)" fill="#c9eaf5"/>
        </g>
        <g id="Grupo_1212933" data-name="Grupo 1212933" transform="translate(76.233 60.507)">
          <path id="Trazado_902194" data-name="Trazado 902194" d="M71.322,61.287A10.035,10.035,0,0,1,61.287,71.322,9.745,9.745,0,0,1,52.9,66.679a9.554,9.554,0,0,0,5.392,1.647A10.035,10.035,0,0,0,68.326,58.292,9.554,9.554,0,0,0,66.679,52.9,9.934,9.934,0,0,1,71.322,61.287Z" transform="translate(-52.9 -52.9)" fill="#a9dcea"/>
        </g>
        <g id="Grupo_1212934" data-name="Grupo 1212934" transform="translate(73.388 57.662)">
          <path id="Trazado_902195" data-name="Trazado 902195" d="M62.233,73.466A11.233,11.233,0,1,1,73.466,62.233,11.218,11.218,0,0,1,62.233,73.466Zm0-20.069a8.986,8.986,0,1,0,8.986,8.986A8.917,8.917,0,0,0,62.233,53.4Z" transform="translate(-51 -51)"/>
        </g>
        <g id="Grupo_1212935" data-name="Grupo 1212935" transform="translate(80.876 65.15)">
          <path id="Trazado_902196" data-name="Trazado 902196" d="M59.744,63.489a3.744,3.744,0,1,1,3.744-3.744A3.708,3.708,0,0,1,59.744,63.489Z" transform="translate(-56 -56)" fill="#666"/>
        </g>
        <g id="Grupo_1212936" data-name="Grupo 1212936" transform="translate(79.828 64.102)">
          <path id="Trazado_902197" data-name="Trazado 902197" d="M60.093,65.035A4.826,4.826,0,0,1,55.3,60.242a4.868,4.868,0,1,1,4.793,4.793Zm0-7.489a2.562,2.562,0,0,0-2.546,2.7,2.524,2.524,0,0,0,2.546,2.546,2.657,2.657,0,0,0,2.7-2.546A2.685,2.685,0,0,0,60.093,57.547Z" transform="translate(-55.3 -55.3)"/>
        </g>
      </g>
      <g id="Grupo_1212952" data-name="Grupo 1212952" transform="translate(11.735 2)">
        <g id="Grupo_1212938" data-name="Grupo 1212938" transform="translate(1.198 9.735)">
          <path id="Trazado_902198" data-name="Trazado 902198" d="M9.3,8.5h7.638V53.282H9.3Z" transform="translate(-9.3 -8.5)" fill="#ff4848"/>
        </g>
        <g id="Grupo_1212939" data-name="Grupo 1212939" transform="translate(8.836 9.735)">
          <path id="Trazado_902199" data-name="Trazado 902199" d="M14.4,8.5h7.638V53.282H14.4Z" transform="translate(-14.4 -8.5)" fill="#ff4848"/>
        </g>
        <g id="Grupo_1212940" data-name="Grupo 1212940" transform="translate(8.836 9.735)">
          <path id="Trazado_902200" data-name="Trazado 902200" d="M22.038,8.5V53.282H14.4v-3h.15a4.506,4.506,0,0,0,4.493-4.493V8.5Z" transform="translate(-14.4 -8.5)" fill="#f91c1c"/>
        </g>
        <g id="Grupo_1212941" data-name="Grupo 1212941" transform="translate(1.198 9.735)">
          <path id="Trazado_902201" data-name="Trazado 902201" d="M16.938,8.5V53.282H9.3v-3h.15a4.506,4.506,0,0,0,4.493-4.493V8.5Z" transform="translate(-9.3 -8.5)" fill="#f91c1c"/>
        </g>
        <g id="Grupo_1212942" data-name="Grupo 1212942" transform="translate(0 8.537)">
          <path id="Trazado_902202" data-name="Trazado 902202" d="M17.336,54.878H9.7a1.181,1.181,0,0,1-1.2-1.2V8.9A1.181,1.181,0,0,1,9.7,7.7h7.638a1.181,1.181,0,0,1,1.2,1.2V53.68A1.288,1.288,0,0,1,17.336,54.878ZM10.9,52.631h5.392V10.1H10.9Z" transform="translate(-8.5 -7.7)"/>
        </g>
        <g id="Grupo_1212943" data-name="Grupo 1212943" transform="translate(7.638 8.537)">
          <path id="Trazado_902203" data-name="Trazado 902203" d="M22.436,54.878H14.8a1.181,1.181,0,0,1-1.2-1.2V8.9a1.181,1.181,0,0,1,1.2-1.2h7.638a1.181,1.181,0,0,1,1.2,1.2V53.68A1.288,1.288,0,0,1,22.436,54.878ZM16,52.631h5.392V10.1H16Z" transform="translate(-13.6 -7.7)"/>
        </g>
        <g id="Grupo_1212944" data-name="Grupo 1212944" transform="translate(1.198 54.517)">
          <path id="Trazado_902204" data-name="Trazado 902204" d="M24.577,38.4l-6.29,12.281a1.549,1.549,0,0,1-2.7,0L9.3,38.4Z" transform="translate(-9.3 -38.4)" fill="#ffc776"/>
        </g>
        <g id="Grupo_1212945" data-name="Grupo 1212945" transform="translate(1.198 54.517)">
          <path id="Trazado_902205" data-name="Trazado 902205" d="M24.577,38.4l-6.29,12.281a1.549,1.549,0,0,1-2.7,0l-.15-.3,3.145-6.141a2.389,2.389,0,0,0-2.1-3.445H10.5L9.3,38.55Z" transform="translate(-9.3 -38.4)" fill="#f4b25b"/>
        </g>
        <g id="Grupo_1212946" data-name="Grupo 1212946" transform="translate(5.392 62.754)">
          <path id="Trazado_902206" data-name="Trazado 902206" d="M18.989,43.9l-2.1,4.044a1.549,1.549,0,0,1-2.7,0L12.1,43.9Z" transform="translate(-12.1 -43.9)" fill="#666"/>
        </g>
        <g id="Grupo_1212947" data-name="Grupo 1212947" transform="translate(4.194 61.406)">
          <path id="Trazado_902207" data-name="Trazado 902207" d="M19.388,45.4H12.5a1.181,1.181,0,0,1-1.2-1.2A1.1,1.1,0,0,1,12.5,43h6.889a1.2,1.2,0,1,1,0,2.4Z" transform="translate(-11.3 -43)"/>
        </g>
        <g id="Grupo_1212948" data-name="Grupo 1212948" transform="translate(0.037 53.468)">
          <path id="Trazado_902208" data-name="Trazado 902208" d="M17.324,52.977a2.836,2.836,0,0,1-2.4-1.348L8.637,39.347a1.279,1.279,0,0,1,0-1.048,1.231,1.231,0,0,1,.9-.6H24.813a.821.821,0,0,1,.9.6,1.279,1.279,0,0,1,0,1.048L19.72,51.479A2.668,2.668,0,0,1,17.324,52.977Zm-5.841-13.03L17.024,50.58a.464.464,0,0,0,.3.15c.15,0,.3,0,.3-.15l5.392-10.634Z" transform="translate(-8.525 -37.7)"/>
        </g>
        <g id="Grupo_1212949" data-name="Grupo 1212949" transform="translate(1.198 1.198)">
          <path id="Trazado_902209" data-name="Trazado 902209" d="M24.577,4.747v6.74H9.3V4.747A1.983,1.983,0,0,1,11.247,2.8H22.63a1.888,1.888,0,0,1,1.947,1.947Z" transform="translate(-9.3 -2.8)" fill="#fc3"/>
        </g>
        <g id="Grupo_1212950" data-name="Grupo 1212950" transform="translate(1.198 1.198)">
          <path id="Trazado_902210" data-name="Trazado 902210" d="M24.577,4.747v6.74H9.3V8.342h7.938a3.645,3.645,0,0,0,3.595-3.595V2.8h1.947a1.858,1.858,0,0,1,1.8,1.947Z" transform="translate(-9.3 -2.8)" fill="#fcb910"/>
        </g>
        <g id="Grupo_1212951" data-name="Grupo 1212951" transform="translate(0.15)">
          <path id="Trazado_902211" data-name="Trazado 902211" d="M24.925,12.933H9.648a1.068,1.068,0,0,1-1.048-1.2V5a3,3,0,0,1,3-3H22.978a3.04,3.04,0,0,1,3,3.145v6.74A1.024,1.024,0,0,1,24.925,12.933ZM10.847,10.687h13.03V5a.839.839,0,0,0-.749-.9H11.745a.863.863,0,0,0-.9.9Z" transform="translate(-8.6 -2)"/>
        </g>
      </g>
    </g>
  </g>
</svg>
