<svg xmlns="http://www.w3.org/2000/svg" width="85.001" height="85" viewBox="0 0 85.001 85">
  <g id="Grupo_1212953" data-name="Grupo 1212953" transform="translate(-180.05 -24189.721)">
    <g id="Grupo_1198286" data-name="Grupo 1198286" transform="translate(180.102 24189.727)">
      <g id="Grupo_1112424" data-name="Grupo 1112424" transform="translate(-0.051 0.045)">
        <g id="Grupo_1112415" data-name="Grupo 1112415">
          <g id="Grupo_1098742" data-name="Grupo 1098742" transform="translate(0 0)">
            <g id="Rect치ngulo_400898" data-name="Rect치ngulo 400898" transform="translate(0.001 -0.051)" fill="#f5f2ce" stroke="#908619" stroke-width="3">
              <rect width="85" height="85" rx="42.5" stroke="none"/>
              <rect x="1.5" y="1.5" width="82" height="82" rx="41" fill="none"/>
            </g>
            <g id="Rect치ngulo_400907" data-name="Rect치ngulo 400907" transform="translate(0 -0.051)" fill="none" stroke="#908619" stroke-width="3">
              <rect width="85" height="85" rx="42.5" stroke="none"/>
              <rect x="1.5" y="1.5" width="82" height="82" rx="41" fill="none"/>
            </g>
          </g>
        </g>
      </g>
    </g>
    <g id="alert_17912462" transform="translate(193.671 24198.539)">
      <path id="Trazado_900956" data-name="Trazado 900956" d="M42.836,12.8a.789.789,0,0,0-.789.789v9.316a.789.789,0,0,0,1.579,0V13.59a.789.789,0,0,0-.789-.789Zm0,13.251a.789.789,0,0,0-.789.789V27.9a.789.789,0,0,0,1.579,0V26.841a.789.789,0,0,0-.789-.789Zm0,0a.789.789,0,0,0-.789.789V27.9a.789.789,0,0,0,1.579,0V26.841a.789.789,0,0,0-.789-.789Zm0-13.251a.789.789,0,0,0-.789.789v9.316a.789.789,0,0,0,1.579,0V13.59a.789.789,0,0,0-.789-.789Zm0,0a.789.789,0,0,0-.789.789v9.316a.789.789,0,0,0,1.579,0V13.59a.789.789,0,0,0-.789-.789Zm0,13.251a.789.789,0,0,0-.789.789V27.9a.789.789,0,0,0,1.579,0V26.841a.789.789,0,0,0-.789-.789Zm0,0a.789.789,0,0,0-.789.789V27.9a.789.789,0,0,0,1.579,0V26.841a.789.789,0,0,0-.789-.789Zm0-13.251a.789.789,0,0,0-.789.789v9.316a.789.789,0,0,0,1.579,0V13.59a.789.789,0,0,0-.789-.789Zm0,0a.789.789,0,0,0-.789.789v9.316a.789.789,0,0,0,1.579,0V13.59a.789.789,0,0,0-.789-.789Zm0,13.251a.789.789,0,0,0-.789.789V27.9a.789.789,0,0,0,1.579,0V26.841a.789.789,0,0,0-.789-.789Zm0,0a.789.789,0,0,0-.789.789V27.9a.789.789,0,0,0,1.579,0V26.841a.789.789,0,0,0-.789-.789Zm0-13.251a.789.789,0,0,0-.789.789v9.316a.789.789,0,0,0,1.579,0V13.59a.789.789,0,0,0-.789-.789ZM57.252,28.377,45.993,8.871a3.646,3.646,0,0,0-6.312,0l-.93,1.609A24.128,24.128,0,0,0,23.364,5.43.79.79,0,0,0,23.4,7.009a22.546,22.546,0,0,1,14.551,4.853l-2.281,3.95a17.829,17.829,0,0,0-13.83-4.736.79.79,0,1,0,.15,1.572,16.231,16.231,0,0,1,12.866,4.574l-.81,1.4-.991,1.718a13.355,13.355,0,0,0-10.815-2.771l-.314-.547a4.4,4.4,0,0,0-7.613,4.4l.308.53a13.3,13.3,0,0,0-1.411,15.222l7.106,12.312,1.627,8.566a4.642,4.642,0,0,0,2.694,3.438,4.759,4.759,0,0,0,1.993.448A4.707,4.707,0,0,0,29,61.285l4.672-2.7a6.262,6.262,0,0,0,10.761-6.213l4.674-2.7a4.76,4.76,0,0,0,.725-7.727l-6.6-5.692-1.394-2.414H54.1a3.646,3.646,0,0,0,3.155-5.468ZM15.405,18.495a2.79,2.79,0,0,1,1.309-1.711,2.822,2.822,0,0,1,3.847,1.031l.087.151A13.075,13.075,0,0,0,18.054,19.1a13.247,13.247,0,0,0-2.288,1.67l-.083-.143a2.8,2.8,0,0,1-.277-2.137Zm5.955,29.637L14.58,36.385A11.645,11.645,0,0,1,32.255,21.73l-3.836,6.647a3.646,3.646,0,0,0,3.155,5.468h8.44l1.522,2.635Zm21.825,7.879a4.682,4.682,0,0,1-8.127,1.777l8-4.616A4.646,4.646,0,0,1,43.185,56.012Zm-.661-18.278L48.8,43.148a3.18,3.18,0,0,1-.484,5.163L28.213,59.918a3.181,3.181,0,0,1-4.715-2.16L21.95,49.615Zm13.36-6.5A1.991,1.991,0,0,1,54.1,32.265H31.574a2.067,2.067,0,0,1-1.787-3.1l5.628-9.752L41.048,9.66a2.068,2.068,0,0,1,3.578,0L55.884,29.166A1.992,1.992,0,0,1,55.884,31.231Zm-13.049-5.18a.789.789,0,0,0-.789.789V27.9a.789.789,0,0,0,1.579,0V26.841A.789.789,0,0,0,42.836,26.052Zm0-13.251a.789.789,0,0,0-.789.789v9.316a.789.789,0,0,0,1.579,0V13.59A.789.789,0,0,0,42.836,12.8Zm0,0a.789.789,0,0,0-.789.789v9.316a.789.789,0,0,0,1.579,0V13.59A.789.789,0,0,0,42.836,12.8Zm0,13.251a.789.789,0,0,0-.789.789V27.9a.789.789,0,0,0,1.579,0V26.841A.789.789,0,0,0,42.836,26.052Zm0,0a.789.789,0,0,0-.789.789V27.9a.789.789,0,0,0,1.579,0V26.841A.789.789,0,0,0,42.836,26.052Zm0-13.251a.789.789,0,0,0-.789.789v9.316a.789.789,0,0,0,1.579,0V13.59A.789.789,0,0,0,42.836,12.8Zm0,0a.789.789,0,0,0-.789.789v9.316a.789.789,0,0,0,1.579,0V13.59A.789.789,0,0,0,42.836,12.8Zm0,13.251a.789.789,0,0,0-.789.789V27.9a.789.789,0,0,0,1.579,0V26.841A.789.789,0,0,0,42.836,26.052Zm0,0a.789.789,0,0,0-.789.789V27.9a.789.789,0,0,0,1.579,0V26.841A.789.789,0,0,0,42.836,26.052Zm0-13.251a.789.789,0,0,0-.789.789v9.316a.789.789,0,0,0,1.579,0V13.59A.789.789,0,0,0,42.836,12.8ZM10.307,18.187a.789.789,0,0,0-1.1.185A17.785,17.785,0,0,0,6.7,33.864a.789.789,0,0,0,.754.556.81.81,0,0,0,.235-.035.791.791,0,0,0,.52-.989,16.2,16.2,0,0,1,2.28-14.109A.789.789,0,0,0,10.307,18.187ZM4.641,16.606a.79.79,0,0,0-1.086.263,24.08,24.08,0,0,0-.544,24.184.79.79,0,1,0,1.381-.766A22.5,22.5,0,0,1,4.9,17.692a.791.791,0,0,0-.263-1.086Z" transform="translate(0 0)"/>
      <path id="Trazado_900957" data-name="Trazado 900957" d="M318.847,431.688a4.682,4.682,0,0,1-8.127,1.777l8-4.616A4.645,4.645,0,0,1,318.847,431.688Z" transform="translate(-275.662 -375.677)" fill="#ffe177"/>
      <path id="Trazado_900958" data-name="Trazado 900958" d="M140.9,104.378a13.075,13.075,0,0,0-2.594,1.139,13.246,13.246,0,0,0-2.288,1.67l-.083-.143a2.817,2.817,0,1,1,4.878-2.817Z" transform="translate(-120.254 -86.413)" fill="#f28a00"/>
      <path id="Trazado_900959" data-name="Trazado 900959" d="M287.9,54.4,276.645,34.891a2.068,2.068,0,0,0-3.578,0l-5.633,9.754L261.806,54.4a2.067,2.067,0,0,0,1.787,3.1h22.523a2.067,2.067,0,0,0,1.787-3.1Zm-12.259-1.264a.789.789,0,0,1-1.579,0V52.071a.789.789,0,0,1,1.579,0Zm0-5a.789.789,0,1,1-1.579,0V38.821a.789.789,0,0,1,1.579,0Z" transform="translate(-232.019 -25.23)" fill="#ff3c38"/>
      <path id="Trazado_900960" data-name="Trazado 900960" d="M222.434,300.061a3.06,3.06,0,0,1-1.574,2.456l-20.107,11.608a3.181,3.181,0,0,1-4.715-2.16l-1.547-8.143,20.574-11.882,6.279,5.414a3.06,3.06,0,0,1,1.091,2.707Z" transform="translate(-172.54 -254.206)" fill="#f28a00"/>
      <path id="Trazado_900961" data-name="Trazado 900961" d="M143.892,142.753l-20.176,11.652-6.781-11.747A11.645,11.645,0,0,1,134.611,128l-3.836,6.647a3.646,3.646,0,0,0,3.155,5.468h8.44Z" transform="translate(-102.355 -106.273)" fill="#ffe177"/>
    </g>
  </g>
</svg>
