<svg xmlns="http://www.w3.org/2000/svg" width="105" height="104.999" viewBox="0 0 105 104.999">
  <g id="Grupo_1212954" data-name="Grupo 1212954" transform="translate(-275.026 -2555.497)">
    <g id="Grupo_1212328" data-name="Grupo 1212328" transform="translate(275.026 2555.497)">
      <g id="Grupo_1098742" data-name="Grupo 1098742" transform="translate(0)">
        <g id="Rect치ngulo_400898" data-name="Rect치ngulo 400898" transform="translate(0.001 0)" fill="#eabe94" stroke="#497d74" stroke-width="1">
          <rect width="104.999" height="104.999" rx="52.5" stroke="none"/>
          <rect x="0.5" y="0.5" width="103.999" height="103.999" rx="52" fill="none"/>
        </g>
        <g id="Rect치ngulo_400907" data-name="Rect치ngulo 400907" transform="translate(0 0)" fill="none" stroke="#497d74" stroke-width="1">
          <rect width="104.999" height="104.999" rx="52.5" stroke="none"/>
          <rect x="0.5" y="0.5" width="103.999" height="103.999" rx="52" fill="none"/>
        </g>
      </g>
    </g>
    <g id="g2583" transform="translate(552.165 2905.728)">
      <path id="path1049-9-9-3-5" d="M-227.716-273.405l-28.451,16.23,28.451,16.23,28.451-16.23Z" transform="translate(-0.931 -21.578)" fill="#fff9b0"/>
      <path id="path1111" d="M-154.612-328.9a1.462,1.462,0,0,0-1.243.731l-1.631,2.825a1.462,1.462,0,0,0,.536,2,1.462,1.462,0,0,0,.9.186v60.641a1.462,1.462,0,0,0,1.462,1.462,1.462,1.462,0,0,0,1.462-1.462v-60.641a1.462,1.462,0,0,0,.9-.186,1.462,1.462,0,0,0,.535-2l-1.631-2.825a1.462,1.462,0,0,0-1.29-.731Z" transform="translate(-39.222)"/>
      <path id="path1119" d="M-228.666-275.8a1.462,1.462,0,0,0-.7.192l-28.452,16.23a1.462,1.462,0,0,0-.738,1.27,1.462,1.462,0,0,0,.738,1.27l28.452,16.23a1.462,1.462,0,0,0,1.448,0l28.451-16.23a1.462,1.462,0,0,0,.738-1.27,1.462,1.462,0,0,0-.738-1.27l-28.451-16.23A1.463,1.463,0,0,0-228.666-275.8Zm.019,3.146,25.5,14.546-25.5,14.546-25.5-14.546Z" transform="translate(0 -20.648)"/>
      <path id="path1049-9-9-2-7" d="M-227.716-299.958l-28.451,16.23,28.451,16.23,28.451-16.23Z" transform="translate(-0.931 -11.254)" fill="#ffd384"/>
      <path id="path1123" d="M-228.666-302.351a1.463,1.463,0,0,0-.7.192l-28.452,16.23a1.462,1.462,0,0,0-.738,1.27,1.462,1.462,0,0,0,.738,1.27l28.452,16.23a1.462,1.462,0,0,0,1.448,0l28.451-16.23a1.462,1.462,0,0,0,.738-1.27,1.462,1.462,0,0,0-.738-1.27l-28.451-16.23A1.463,1.463,0,0,0-228.666-302.351Zm.019,3.146,25.5,14.546-25.5,14.546-25.5-14.546Z" transform="translate(0 -10.324)"/>
      <path id="path1049-9-9-77" d="M-227.716-326.512l-28.451,16.23,28.451,16.23,28.451-16.23Z" transform="translate(-0.931 -0.93)" fill="#ffab73"/>
      <path id="path1127" d="M-228.666-328.9a1.462,1.462,0,0,0-.7.192l-28.452,16.23a1.462,1.462,0,0,0-.738,1.27,1.462,1.462,0,0,0,.738,1.27l28.452,16.23a1.462,1.462,0,0,0,1.448,0l28.451-16.23a1.462,1.462,0,0,0,.738-1.27,1.462,1.462,0,0,0-.738-1.27l-28.451-16.23A1.462,1.462,0,0,0-228.666-328.9Zm.019,3.146,25.5,14.546-25.5,14.546-25.5-14.546Z" transform="translate(0 0)"/>
    </g>
  </g>
</svg>
