<svg xmlns="http://www.w3.org/2000/svg" width="105" height="104.999" viewBox="0 0 105 104.999">
  <g id="Grupo_1212963" data-name="Grupo 1212963" transform="translate(-1219.975 -2555.497)">
    <g id="Grupo_1212326" data-name="Grupo 1212326" transform="translate(1219.975 2555.497)">
      <g id="Grupo_1098742" data-name="Grupo 1098742" transform="translate(0)">
        <g id="Rect치ngulo_400898" data-name="Rect치ngulo 400898" transform="translate(0.001 0)" fill="#eabe94" stroke="#497d74" stroke-width="1">
          <rect width="104.999" height="104.999" rx="52.5" stroke="none"/>
          <rect x="0.5" y="0.5" width="103.999" height="103.999" rx="52" fill="none"/>
        </g>
        <g id="Rect치ngulo_400907" data-name="Rect치ngulo 400907" transform="translate(0 0)" fill="none" stroke="#497d74" stroke-width="1">
          <rect width="104.999" height="104.999" rx="52.5" stroke="none"/>
          <rect x="0.5" y="0.5" width="103.999" height="103.999" rx="52" fill="none"/>
        </g>
      </g>
    </g>
    <g id="resize_3039198_1_" data-name="resize_3039198 (1)" transform="translate(1241.925 2576.947)">
      <g id="Grupo_1212961" data-name="Grupo 1212961" transform="translate(0.91 0.91)">
        <g id="Grupo_1212958" data-name="Grupo 1212958">
          <path id="Trazado_902234" data-name="Trazado 902234" d="M269.511,270.892l5.406-6.362,7.584,4.9v-9.787h-3.639V256H259.639v3.639H256v18.875l9.134-10.348Z" transform="translate(-225.86 -225.86)" fill="#c2eaf6" fill-rule="evenodd"/>
          <path id="Trazado_902235" data-name="Trazado 902235" d="M282.5,340.662v-9.437l-7.584-4.9-5.406,6.362-4.377-2.726L256,340.314v.348h3.639V344.3h19.224v-3.639Z" transform="translate(-225.86 -287.66)" fill="#7fdcc7" fill-rule="evenodd"/>
          <path id="Trazado_902236" data-name="Trazado 902236" d="M226,226h7.277v7.277H226Z" transform="translate(-199.499 -199.499)" fill="#efc17a" fill-rule="evenodd"/>
          <path id="Trazado_902237" data-name="Trazado 902237" d="M444.5,226h7.277v7.277H444.5Z" transform="translate(-391.498 -199.499)" fill="#efc17a" fill-rule="evenodd"/>
          <path id="Trazado_902238" data-name="Trazado 902238" d="M444.5,444.5h7.277v7.277H444.5Z" transform="translate(-391.498 -391.498)" fill="#efc17a" fill-rule="evenodd"/>
          <path id="Trazado_902239" data-name="Trazado 902239" d="M226,444.5h7.277v7.277H226Z" transform="translate(-199.499 -391.498)" fill="#efc17a" fill-rule="evenodd"/>
          <path id="Trazado_902240" data-name="Trazado 902240" d="M14.777,451.777V444.5H7.5v7.277Z" transform="translate(-7.5 -391.498)" fill="#efc17a" fill-rule="evenodd"/>
          <path id="Trazado_902241" data-name="Trazado 902241" d="M14.777,14.777V7.5H7.5v7.277h7.277Z" transform="translate(-7.5 -7.5)" fill="#efc17a" fill-rule="evenodd"/>
          <path id="Trazado_902242" data-name="Trazado 902242" d="M451.777,14.777V7.5H444.5v7.277h7.277Z" transform="translate(-391.498 -7.5)" fill="#efc17a" fill-rule="evenodd"/>
          <path id="Trazado_902243" data-name="Trazado 902243" d="M266.895,357.407l-1.761-1.1L256,366.658v.348h3.639v3.639h1.819v-5.458h-1.431Z" transform="translate(-225.86 -314.004)" fill="#5fa6b0" fill-rule="evenodd"/>
          <path id="Trazado_902244" data-name="Trazado 902244" d="M259.639,259.639H256v18.875l2.729-3.092V261.458h2.729V256h-1.819Z" transform="translate(-225.86 -225.86)" fill="#a3dcf0" fill-rule="evenodd"/>
          <path id="Trazado_902245" data-name="Trazado 902245" d="M431.319,431.319h3.639V429.5H429.5v5.458h1.819Z" transform="translate(-378.317 -378.317)" fill="#5fa6b0" fill-rule="evenodd"/>
          <path id="Trazado_902246" data-name="Trazado 902246" d="M431.319,259.639h3.639v1.819H429.5V256h1.819Z" transform="translate(-378.317 -225.86)" fill="#a3dcf0" fill-rule="evenodd"/>
          <path id="Trazado_902247" data-name="Trazado 902247" d="M226,444.5h2.729v7.277H226Z" transform="translate(-199.499 -391.498)" fill="#e8ab4c" fill-rule="evenodd"/>
          <path id="Trazado_902248" data-name="Trazado 902248" d="M226,226h2.729v7.277H226Z" transform="translate(-199.499 -199.499)" fill="#e8ab4c" fill-rule="evenodd"/>
          <path id="Trazado_902249" data-name="Trazado 902249" d="M444.5,226h2.729v7.277H444.5Z" transform="translate(-391.498 -199.499)" fill="#e8ab4c" fill-rule="evenodd"/>
          <path id="Trazado_902250" data-name="Trazado 902250" d="M444.5,444.5h2.729v7.277H444.5Z" transform="translate(-391.498 -391.498)" fill="#e8ab4c" fill-rule="evenodd"/>
          <path id="Trazado_902251" data-name="Trazado 902251" d="M444.5,7.5h2.729v7.277H444.5Z" transform="translate(-391.498 -7.5)" fill="#e8ab4c" fill-rule="evenodd"/>
          <path id="Trazado_902252" data-name="Trazado 902252" d="M7.5,7.5h2.729v7.277H7.5Z" transform="translate(-7.5 -7.5)" fill="#e8ab4c" fill-rule="evenodd"/>
          <path id="Trazado_902253" data-name="Trazado 902253" d="M7.5,444.5h2.729v7.277H7.5Z" transform="translate(-7.5 -391.498)" fill="#e8ab4c" fill-rule="evenodd"/>
        </g>
        <g id="Grupo_1212959" data-name="Grupo 1212959" transform="translate(41.177 32.869)">
          <path id="Trazado_902254" data-name="Trazado 902254" d="M356.1,280.319h-5.458V278.5H356.1Zm-7.277,0H347V278.5h1.819Z" transform="translate(-347 -278.5)" fill="#fff"/>
        </g>
        <g id="Grupo_1212960" data-name="Grupo 1212960" transform="translate(36.507 52.093)">
          <path id="Trazado_902255" data-name="Trazado 902255" d="M313.958,438.819h-1.819V437h1.819Zm-3.639,0H308.5V437h1.819Z" transform="translate(-308.5 -437)" fill="#fff"/>
        </g>
      </g>
      <g id="Grupo_1212962" data-name="Grupo 1212962">
        <path id="Trazado_902256" data-name="Trazado 902256" d="M248.5,30h1.819v1.819H248.5Z" transform="translate(-218.36 -26.361)"/>
        <path id="Trazado_902257" data-name="Trazado 902257" d="M306.82,3.639V0h-9.1V3.639H278.5V5.458h19.224V9.1h3.639V21.043h1.819V9.1h3.639V5.458H305V7.277h-5.458V1.819H305V3.639Z" transform="translate(-244.722)"/>
        <path id="Trazado_902258" data-name="Trazado 902258" d="M9.1,297.724H5.458V278.5H3.639v19.224H0v3.639H1.819v-1.819H7.277V305H1.819v-1.819H0v3.639H9.1v-3.639H21.043v-1.819H9.1Z" transform="translate(0 -244.722)"/>
        <path id="Trazado_902259" data-name="Trazado 902259" d="M324.085,440.639H308.5v1.819h15.585V446.1h9.1v-3.639h-1.819v1.819H325.9v-5.458h5.458v1.819h1.819V437h-9.1Z" transform="translate(-271.083 -383.998)"/>
        <path id="Trazado_902260" data-name="Trazado 902260" d="M225.777,225.777h-5.458v-5.458h1.819V218.5H218.5v9.1h9.1v-3.639h15.585v-1.819H227.6V218.5h-3.639v1.819h1.819Z" transform="translate(-191.999 -191.999)"/>
        <path id="Trazado_902261" data-name="Trazado 902261" d="M30,248.5h1.819v1.819H30Z" transform="translate(-26.361 -218.36)"/>
        <path id="Trazado_902262" data-name="Trazado 902262" d="M3.639,28.32H5.458V9.1H9.1V5.458H28.32V3.639H9.1V0H0V3.639H1.819V1.819H7.277V7.277H1.819V5.458H0V9.1H3.639Z"/>
        <path id="Trazado_902263" data-name="Trazado 902263" d="M188.5,467h1.819v1.819H188.5Z" transform="translate(-165.638 -410.359)"/>
        <path id="Trazado_902264" data-name="Trazado 902264" d="M467,188.5h1.819v1.819H467Z" transform="translate(-410.359 -165.638)"/>
        <path id="Trazado_902265" data-name="Trazado 902265" d="M97.671,104.039h6.368V97.671h-1.819v3.262l-8.754-8.754h3.262V90.36H90.36v6.368h1.819V93.466l8.754,8.754H97.671Z" transform="translate(-79.401 -79.401)"/>
        <path id="Trazado_902266" data-name="Trazado 902266" d="M232.355,236.394l2.828,1.761-2.317,2.727,1.386,1.178,7.89-9.285,6.5,4.194v6.212h1.819V227.6H254.1v-9.1H245v9.1h3.639V234.8l-6.851-4.422-5.414,6.372-4.364-2.718-8.052,9.122V229.416h-1.819V245H218.5v9.1h3.639v-1.819h-1.819V246.82h5.458v5.458h-1.819V254.1H227.6V245h-2.84Zm14.466-16.074h5.458v5.458H246.82Z" transform="translate(-191.999 -191.999)"/>
      </g>
    </g>
  </g>
</svg>
