<svg xmlns="http://www.w3.org/2000/svg" width="105" height="105" viewBox="0 0 105 105">
  <g id="Grupo_1212685" data-name="Grupo 1212685" transform="translate(-275.026 -5209.497)">
    <g id="Grupo_1212250" data-name="Grupo 1212250" transform="translate(275.026 5209.497)">
      <g id="Grupo_1098742" data-name="Grupo 1098742" transform="translate(0)">
        <g id="Rect치ngulo_400898" data-name="Rect치ngulo 400898" transform="translate(0.001 0)" fill="#eabe94" stroke="#497d74" stroke-width="1">
          <rect width="104.999" height="104.999" rx="52.5" stroke="none"/>
          <rect x="0.5" y="0.5" width="103.999" height="103.999" rx="52" fill="none"/>
        </g>
        <g id="Rect치ngulo_400907" data-name="Rect치ngulo 400907" transform="translate(0 0)" fill="none" stroke="#497d74" stroke-width="1">
          <rect width="104.999" height="104.999" rx="52.5" stroke="none"/>
          <rect x="0.5" y="0.5" width="103.999" height="103.999" rx="52" fill="none"/>
        </g>
      </g>
    </g>
    <g id="break_1731882" transform="translate(297.81 5232.209)">
      <g id="Grupo_1212684" data-name="Grupo 1212684" transform="translate(0.965 0.963)">
        <path id="Trazado_901572" data-name="Trazado 901572" d="M141.769,146.895a2.883,2.883,0,1,1-2.883-2.883A2.882,2.882,0,0,1,141.769,146.895Zm0,0" transform="translate(-120.63 -127.677)" fill="#e4725f"/>
        <path id="Trazado_901573" data-name="Trazado 901573" d="M445.769,242.895a2.883,2.883,0,1,1-2.883-2.883A2.882,2.882,0,0,1,445.769,242.895Zm0,0" transform="translate(-388.118 -212.147)" fill="#e4725f"/>
        <path id="Trazado_901574" data-name="Trazado 901574" d="M8,65.663V8.012L18.573,18.581H11.847V61.82H55.086V55.094L65.655,65.663Zm0,0" transform="translate(-8.004 -8.012)" fill="#e4725f"/>
      </g>
      <path id="Trazado_901575" data-name="Trazado 901575" d="M58.616,59.575H.965A.961.961,0,0,1,0,58.614V.963A.961.961,0,0,1,1.644.283L12.214,10.853a.961.961,0,0,1-.679,1.64H5.769V53.81H47.086V48.045a.961.961,0,0,1,1.64-.679L59.3,57.935a.961.961,0,0,1-.679,1.64ZM1.926,57.653H56.3l-7.289-7.289v4.406a.961.961,0,0,1-.961.961H4.808a.961.961,0,0,1-.961-.961V11.532a.961.961,0,0,1,.961-.961H9.215L1.926,3.282Zm0,0" transform="translate(0 0)"/>
      <path id="Trazado_901576" data-name="Trazado 901576" d="M131.847,143.7a3.843,3.843,0,1,1,3.843-3.843A3.847,3.847,0,0,1,131.847,143.7Zm0-5.765a1.922,1.922,0,1,0,1.922,1.922A1.924,1.924,0,0,0,131.847,137.934Zm0,0" transform="translate(-112.626 -119.676)"/>
      <path id="Trazado_901577" data-name="Trazado 901577" d="M435.847,239.7a3.843,3.843,0,1,1,3.843-3.843A3.847,3.847,0,0,1,435.847,239.7Zm0-5.765a1.922,1.922,0,1,0,1.922,1.922A1.924,1.924,0,0,0,435.847,233.934Zm0,0" transform="translate(-380.114 -204.145)"/>
      <path id="Trazado_901578" data-name="Trazado 901578" d="M203.553,181.868h-17.3a.956.956,0,0,1-.568-.186l-14.413-10.569,1.137-1.55,14.158,10.383h16.981Zm0,0" transform="translate(-150.702 -149.197)"/>
      <path id="Trazado_901579" data-name="Trazado 901579" d="M40,160.012h11.53v1.922H40Zm0,0" transform="translate(-35.196 -140.793)"/>
      <path id="Trazado_901580" data-name="Trazado 901580" d="M48,55.742V53.82A30.782,30.782,0,0,0,78.751,23.073V.012h1.922V23.073A32.706,32.706,0,0,1,48,55.742Zm0,0" transform="translate(-42.235 -0.01)"/>
      <path id="Trazado_901581" data-name="Trazado 901581" d="M181.791,56.755c-.653,0-1.32-.021-1.981-.065l.125-1.917c.613.04,1.232.061,1.856.061Zm-3.956-.26c-.648-.086-1.306-.2-1.957-.327l.38-1.884c.609.123,1.225.225,1.83.305Zm-3.89-.785c-.629-.172-1.267-.369-1.9-.585l.626-1.817q.875.3,1.775.548Zm-3.753-1.3c-.611-.259-1.217-.54-1.8-.835l.866-1.715c.547.276,1.115.539,1.685.78Zm-3.545-1.791c-.571-.337-1.134-.7-1.676-1.067l1.088-1.583c.506.346,1.033.682,1.566,1Zm-3.276-2.244c-.521-.41-1.031-.841-1.517-1.28l1.288-1.426q.689.623,1.42,1.2Zm-2.946-2.656c-.462-.474-.911-.969-1.336-1.468l1.464-1.244c.4.467.817.929,1.248,1.373ZM157.855,44.7c-.4-.534-.776-1.084-1.129-1.632l1.618-1.038c.328.512.683,1.025,1.055,1.526Zm-2.147-3.333c-.319-.577-.623-1.172-.9-1.767l1.741-.815c.26.556.544,1.111.843,1.651Zm-1.682-3.588c-.24-.616-.461-1.246-.658-1.873l1.833-.577c.184.587.391,1.177.615,1.751Zm-1.188-3.786c-.157-.647-.291-1.3-.4-1.945l1.895-.323c.1.6.228,1.213.374,1.816Zm-.673-3.911c-.067-.65-.114-1.316-.14-1.978l1.921-.073q.034.934.131,1.852Zm1.761-3.935H152V24.225h1.922Zm0-3.843H152V20.381h1.922Zm0-3.843H152V16.538h1.922Zm0-3.843H152V12.695h1.922Zm0-3.843H152V8.851h1.922Zm0-3.843H152V5.008h1.922Zm0-3.843H152V1.164h1.922Zm0,0" transform="translate(-133.744 -1.024)"/>
      <path id="Trazado_901582" data-name="Trazado 901582" d="M205.91,294.879a.96.96,0,0,1-.679-.281l-2.883-2.883,1.359-1.359,2.2,2.2,2.2-2.2,1.359,1.359-2.883,2.883A.958.958,0,0,1,205.91,294.879Zm0,0" transform="translate(-178.041 -255.482)"/>
      <path id="Trazado_901583" data-name="Trazado 901583" d="M224,256.012h1.922V263.7H224Zm0,0" transform="translate(-197.096 -225.263)"/>
    </g>
  </g>
</svg>
