<svg xmlns="http://www.w3.org/2000/svg" width="85.001" height="85" viewBox="0 0 85.001 85">
  <g id="Grupo_1212358" data-name="Grupo 1212358" transform="translate(-180.05 -10389)">
    <g id="Grupo_1198238" data-name="Grupo 1198238" transform="translate(180.102 10389.005)">
      <g id="Grupo_1112424" data-name="Grupo 1112424" transform="translate(-0.051 0.045)">
        <g id="Grupo_1112415" data-name="Grupo 1112415">
          <g id="Grupo_1098742" data-name="Grupo 1098742" transform="translate(0 0)">
            <g id="Rectángulo_400898" data-name="Rectángulo 400898" transform="translate(0.001 -0.051)" fill="#f5f2ce" stroke="#908619" stroke-width="3">
              <rect width="85" height="85" rx="42.5" stroke="none"/>
              <rect x="1.5" y="1.5" width="82" height="82" rx="41" fill="none"/>
            </g>
            <g id="Rectángulo_400907" data-name="Rectángulo 400907" transform="translate(0 -0.051)" fill="none" stroke="#908619" stroke-width="3">
              <rect width="85" height="85" rx="42.5" stroke="none"/>
              <rect x="1.5" y="1.5" width="82" height="82" rx="41" fill="none"/>
            </g>
          </g>
        </g>
      </g>
    </g>
    <g id="graphic-design_525578" transform="translate(196.786 10387.772)">
      <path id="Trazado_900435" data-name="Trazado 900435" d="M199.819,342.282H185.711l2.114-11.79h9.88Z" transform="translate(-167.02 -279.268)" fill="#aeafb0"/>
      <g id="Grupo_1212355" data-name="Grupo 1212355" transform="translate(19.884 51.224)" opacity="0.2">
        <path id="Trazado_900436" data-name="Trazado 900436" d="M208.226,330.492h-9.88l-.773,4.314H209Z" transform="translate(-197.572 -330.492)"/>
      </g>
      <path id="Trazado_900437" data-name="Trazado 900437" d="M57.044,59.529H9.195a1.043,1.043,0,0,1-1.04-1.04V28.762a1.043,1.043,0,0,1,1.04-1.04H57.044a1.043,1.043,0,0,1,1.04,1.04V58.489A1.043,1.043,0,0,1,57.044,59.529Z" transform="translate(-7.334 -6.97)" fill="#fff"/>
      <g id="Grupo_1212356" data-name="Grupo 1212356" transform="translate(0.8 20.752)">
        <path id="Trazado_900438" data-name="Trazado 900438" d="M7.952,289.64v4.406a1.043,1.043,0,0,0,1.04,1.04H56.841a1.043,1.043,0,0,0,1.04-1.04V289.64Z" transform="translate(-7.952 -263.28)" fill="#727171"/>
        <path id="Trazado_900439" data-name="Trazado 900439" d="M57.882,28.762a1.043,1.043,0,0,0-1.04-1.04H8.993a1.043,1.043,0,0,0-1.04,1.04v3.893H57.882Z" transform="translate(-7.953 -27.722)" fill="#727171"/>
      </g>
      <rect id="Rectángulo_408892" data-name="Rectángulo 408892" width="7.443" height="11.373" transform="translate(39.163 30.741)" fill="#ffdb4c"/>
      <path id="Trazado_900440" data-name="Trazado 900440" d="M79.449,189.257l1.183-.786a.52.52,0,0,0,.147-.719l-.283-.429a.52.52,0,0,1,.389-.8l3.062-.27a.52.52,0,0,1,.565.55l-.21,3.378a.52.52,0,0,1-.876.346l-.167-.158a.52.52,0,0,0-.713,0l-1.253,1.178a.52.52,0,0,1-.759-.051l-1.2-1.472A.52.52,0,0,1,79.449,189.257Z" transform="translate(-71.244 -149.54)" fill="#48c2e0"/>
      <path id="Trazado_900441" data-name="Trazado 900441" d="M57.044,451.33H9.195a1.04,1.04,0,0,1-1.04-1.04v-1.607a1.04,1.04,0,0,1,1.04-1.04H57.044a1.04,1.04,0,0,1,1.04,1.04v1.607A1.04,1.04,0,0,1,57.044,451.33Z" transform="translate(-7.334 -384.629)" fill="#332e2f"/>
      <g id="Grupo_1212357" data-name="Grupo 1212357" transform="translate(19.679 30.352)">
        <path id="Trazado_900442" data-name="Trazado 900442" d="M198.147,126.245h-2.094a.52.52,0,0,1-.52-.52v-2.094a.52.52,0,0,1,.52-.52h2.094a.52.52,0,0,1,.52.52v2.094A.52.52,0,0,1,198.147,126.245Z" transform="translate(-195.533 -123.111)" fill="#48c2e0"/>
        <path id="Trazado_900443" data-name="Trazado 900443" d="M198.147,211.969h-2.094a.52.52,0,0,1-.52-.52v-2.094a.52.52,0,0,1,.52-.52h2.094a.52.52,0,0,1,.52.52v2.094A.52.52,0,0,1,198.147,211.969Z" transform="translate(-195.533 -200.207)" fill="#48c2e0"/>
        <path id="Trazado_900444" data-name="Trazado 900444" d="M285.7,126.245h-2.094a.52.52,0,0,1-.52-.52v-2.094a.52.52,0,0,1,.52-.52H285.7a.52.52,0,0,1,.52.52v2.094A.52.52,0,0,1,285.7,126.245Z" transform="translate(-274.277 -123.111)" fill="#48c2e0"/>
        <path id="Trazado_900445" data-name="Trazado 900445" d="M285.7,211.969h-2.094a.52.52,0,0,1-.52-.52v-2.094a.52.52,0,0,1,.52-.52H285.7a.52.52,0,0,1,.52.52v2.094A.52.52,0,0,1,285.7,211.969Z" transform="translate(-274.277 -200.207)" fill="#48c2e0"/>
      </g>
      <path id="Trazado_900446" data-name="Trazado 900446" d="M49.709,19.972H1.861a1.822,1.822,0,0,0-1.82,1.82v3.645a.772.772,0,0,0,0,.495V41.24a.78.78,0,0,0,1.56,0V26.464H49.969V46.332H1.6V45.225a.78.78,0,1,0-1.56,0v6.294a1.822,1.822,0,0,0,1.82,1.82H19.633l-1.595,8.9H1.861a1.822,1.822,0,0,0-1.82,1.82v1.607a1.822,1.822,0,0,0,1.82,1.82H49.709a1.822,1.822,0,0,0,1.82-1.82V64.054a1.822,1.822,0,0,0-1.82-1.82H33.451l-1.595-8.9h8.378a.78.78,0,1,0,0-1.56H1.861a.263.263,0,0,1-.26-.26V47.892H49.969v3.626a.263.263,0,0,1-.26.26H44.037a.78.78,0,1,0,0,1.56h5.672a1.822,1.822,0,0,0,1.82-1.82V21.792A1.822,1.822,0,0,0,49.709,19.972Zm.26,44.082v1.607a.26.26,0,0,1-.26.26H1.861a.26.26,0,0,1-.26-.26V64.054a.26.26,0,0,1,.26-.26H49.709A.26.26,0,0,1,49.969,64.054Zm-19.7-10.716,1.595,8.9H19.623l1.595-8.9ZM1.6,24.9V21.792a.263.263,0,0,1,.26-.26H49.709a.263.263,0,0,1,.26.26V24.9Z" transform="translate(0 0)"/>
      <path id="Trazado_900447" data-name="Trazado 900447" d="M188.563,123.989a.78.78,0,0,0-.78.78V127.9a.78.78,0,0,0,.78.78H191.7a.78.78,0,0,0,.78-.78v-.787H196.6v.787a.78.78,0,0,0,.78.78h3.134a.78.78,0,0,0,.78-.78v-3.134a.78.78,0,0,0-.78-.78h-.787v-3.934h.787a.78.78,0,0,0,.78-.78v-3.134a.78.78,0,0,0-.78-.78h-3.134a.78.78,0,0,0-.78.78v.787h-4.118v-.787a.78.78,0,0,0-.78-.78h-3.134a.78.78,0,0,0-.78.78v3.134a.78.78,0,0,0,.78.78h.787v3.934Zm2.354,3.134h-1.574v-1.574h1.574Zm8.812,0h-1.574v-1.574h1.574Zm-1.574-10.2h1.574V118.5h-1.574Zm-8.812,0h1.574V118.5h-1.574Zm1.567,3.134h.787a.78.78,0,0,0,.78-.78v-.787H196.6v.787a.78.78,0,0,0,.78.78h.787v3.934h-.787a.78.78,0,0,0-.78.78v.787h-4.118v-.787a.78.78,0,0,0-.78-.78h-.787Z" transform="translate(-168.884 -85.789)"/>
      <path id="Trazado_900448" data-name="Trazado 900448" d="M389.6,132.152a.78.78,0,0,0,.78-.78V120a.78.78,0,0,0-.78-.78h-7.443a.78.78,0,0,0-.78.78v11.373a.78.78,0,0,0,.78.78Zm-.78-11.373v9.813h-5.883v-1.91h4.094a.78.78,0,0,0,0-1.56h-4.094V124.8h4.094a.78.78,0,0,0,0-1.56h-4.094v-2.458Z" transform="translate(-342.995 -89.258)"/>
      <path id="Trazado_900449" data-name="Trazado 900449" d="M69.042,182.029a.78.78,0,0,0,.166.609l1.913,2.35a.78.78,0,0,0,.541.285l.064,0a.779.779,0,0,0,.516-.2l1.546-1.365.75.709a.78.78,0,0,0,1.314-.518l.317-5.09a.78.78,0,0,0-.847-.825l-4.532.4a.78.78,0,0,0-.583,1.206l.619.941-1.445.96A.782.782,0,0,0,69.042,182.029Zm3.514-1.7-.328-.5,2.327-.205-.157,2.522-.057-.054a.78.78,0,0,0-1.052-.018l-1.472,1.3-.858-1.054,1.376-.914A.78.78,0,0,0,72.556,180.328Z" transform="translate(-62.085 -142.112)"/>
    </g>
  </g>
</svg>
