<svg xmlns="http://www.w3.org/2000/svg" width="105" height="105" viewBox="0 0 105 105">
  <g id="Grupo_1212686" data-name="Grupo 1212686" transform="translate(-590.025 -5209.497)">
    <g id="Grupo_1212247" data-name="Grupo 1212247" transform="translate(590.026 5209.497)">
      <g id="Grupo_1098742" data-name="Grupo 1098742" transform="translate(0)">
        <g id="Trazado_902212" data-name="Trazado 902212" transform="translate(0.001 0)" fill="#eabe94">
          <path d="M 52.49967956542969 104.4993286132812 C 45.47954940795898 104.4993286132812 38.6696662902832 103.1245422363281 32.25920104980469 100.4131393432617 C 26.06717491149902 97.79414367675781 20.50606727600098 94.04470062255859 15.73034858703613 89.26898193359375 C 10.95462799072266 84.49326324462891 7.205188274383545 78.93214416503906 4.586188316345215 72.74012756347656 C 1.874788165092468 66.32965850830078 0.5000014305114746 59.51979446411133 0.5000014305114746 52.49966049194336 C 0.5000014305114746 45.47952651977539 1.874788165092468 38.66965866088867 4.586188316345215 32.25920867919922 C 7.205188274383545 26.06718063354492 10.95462799072266 20.50607299804688 15.73034858703613 15.73035335540771 C 20.50606727600098 10.95463371276855 26.06717491149902 7.205193996429443 32.25920104980469 4.586194038391113 C 38.66965484619141 1.874793767929077 45.47952270507812 0.500007152557373 52.49965667724609 0.500007152557373 C 59.5197868347168 0.500007152557373 66.32966613769531 1.874793767929077 72.74013519287109 4.586194038391113 C 78.93215942382812 7.205193996429443 84.49327087402344 10.95463371276855 89.26898956298828 15.73035335540771 C 94.04470825195312 20.50607299804688 97.79415130615234 26.06718063354492 100.4131469726562 32.25920867919922 C 103.1245498657227 38.66965866088867 104.4993362426758 45.47952651977539 104.4993362426758 52.49966049194336 C 104.4993362426758 59.51979446411133 103.1245498657227 66.32965850830078 100.4131469726562 72.74012756347656 C 97.79415130615234 78.93214416503906 94.04470825195312 84.49326324462891 89.26898956298828 89.26898193359375 C 84.49327087402344 94.04470062255859 78.93215942382812 97.79414367675781 72.74013519287109 100.4131393432617 C 66.32968139648438 103.1245422363281 59.51981353759766 104.4993286132812 52.49967956542969 104.4993286132812 Z" stroke="none"/>
          <path d="M 52.49965286254883 1 C 45.54681015014648 1 38.80246734619141 2.361503601074219 32.45397186279297 5.04669189453125 C 26.32155609130859 7.640487670898438 20.81385040283203 11.35394287109375 16.08390045166016 16.08390045166016 C 11.35394287109375 20.81385803222656 7.640480041503906 26.32156372070312 5.046684265136719 32.45397186279297 C 2.361495971679688 38.80247497558594 1 45.54681777954102 1 52.49966049194336 C 1 59.4525032043457 2.361495971679688 66.19684600830078 5.046684265136719 72.54534912109375 C 7.640480041503906 78.67776489257812 11.35394287109375 84.18546295166016 16.08390045166016 88.91542053222656 C 20.81386566162109 93.64537811279297 26.32155609130859 97.35883331298828 32.4539794921875 99.95262908935547 C 38.80248260498047 102.6378173828125 45.54682540893555 103.9993209838867 52.49968338012695 103.9993209838867 C 59.4525260925293 103.9993209838867 66.19686889648438 102.6378173828125 72.54536437988281 99.95262908935547 C 78.67778015136719 97.35883331298828 84.18548583984375 93.64537811279297 88.91543579101562 88.91542053222656 C 93.64539337158203 84.18546295166016 97.35885620117188 78.67776489257812 99.95265197753906 72.54534912109375 C 102.6378402709961 66.19684600830078 103.9993362426758 59.4525032043457 103.9993362426758 52.49966049194336 C 103.9993362426758 45.54681777954102 102.6378402709961 38.80247497558594 99.95265197753906 32.45397186279297 C 97.35885620117188 26.32156372070312 93.64539337158203 20.81385803222656 88.91543579101562 16.08390045166016 C 84.18547058105469 11.35394287109375 78.67778015136719 7.640487670898438 72.54534912109375 5.04669189453125 C 66.19685363769531 2.361503601074219 59.45251083374023 1 52.49965286254883 1 M 52.49965286254883 0 L 52.49968338012695 0 C 81.49443817138672 0 104.9993362426758 23.50490570068359 104.9993362426758 52.49966049194336 C 104.9993362426758 81.49441528320312 81.49443817138672 104.9993209838867 52.49968338012695 104.9993209838867 L 52.49965286254883 104.9993209838867 C 23.50489807128906 104.9993209838867 0 81.49441528320312 0 52.49966049194336 C 0 23.50490570068359 23.50489807128906 0 52.49965286254883 0 Z" stroke="none" fill="#497d74"/>
        </g>
        <g id="Rectángulo_400907" data-name="Rectángulo 400907" transform="translate(0 0)" fill="none" stroke="#497d74" stroke-width="1">
          <rect width="104.999" height="104.999" rx="52.5" stroke="none"/>
          <rect x="0.5" y="0.5" width="103.999" height="103.999" rx="52" fill="none"/>
        </g>
      </g>
    </g>
    <g id="analytics_315400_1_" data-name="analytics_315400 (1)" transform="translate(610.164 5210.345)">
      <path id="Trazado_901584" data-name="Trazado 901584" d="M82.22,87.754H35.177a5.535,5.535,0,0,1-5.535-5.535V35.177a5.535,5.535,0,0,1,5.535-5.535H82.22a5.535,5.535,0,0,1,5.535,5.535V82.22A5.535,5.535,0,0,1,82.22,87.754Z" transform="translate(-25.837 -7.046)" fill="#ededed"/>
      <path id="Trazado_901585" data-name="Trazado 901585" d="M87.754,176.961v9.547a5.535,5.535,0,0,1-5.535,5.535H35.177a5.535,5.535,0,0,1-5.535-5.535v-37.22H48.949l23.48,27.624a.138.138,0,0,0,.105.049h15.22Z" transform="translate(-25.837 -111.334)" fill="#ffbd7c"/>
      <path id="Trazado_901586" data-name="Trazado 901586" d="M32.989,129.419a2.767,2.767,0,1,1-2.767-2.767A2.767,2.767,0,0,1,32.989,129.419Zm20.754,24.905a2.767,2.767,0,1,0,2.767,2.767A2.767,2.767,0,0,0,53.744,154.325ZM10.851,126.652a2.767,2.767,0,1,0,2.767,2.767A2.767,2.767,0,0,0,10.851,126.652Z" transform="translate(-7.046 -91.604)" fill="#b7441c"/>
      <path id="Trazado_901587" data-name="Trazado 901587" d="M2.767,30.9V28.13a6.58,6.58,0,0,1,6.572-6.572H56.383a6.58,6.58,0,0,1,6.572,6.572V58.57a1.038,1.038,0,0,1-2.075,0V28.13a4.5,4.5,0,0,0-4.5-4.5H9.339a4.5,4.5,0,0,0-4.5,4.5V30.9a1.038,1.038,0,1,1-2.075,0ZM65.418,66.222l-2.767,2.767a1.038,1.038,0,0,1-1.467-1.467l1-1H50.358a3.8,3.8,0,1,1-6.822-3.154L24.756,41.277a3.805,3.805,0,0,1-5.241-2.424H7.466a3.8,3.8,0,1,1,0-2.075H19.514a3.8,3.8,0,1,1,6.822,3.154L45.117,62.027a3.805,3.805,0,0,1,5.241,2.424H62.179l-1-1a1.038,1.038,0,1,1,1.467-1.467l2.767,2.767A1.037,1.037,0,0,1,65.418,66.222ZM5.535,37.816a1.73,1.73,0,1,0-1.73,1.73A1.731,1.731,0,0,0,5.535,37.816Zm19.371,0a1.731,1.731,0,1,0-.626,1.331l.016-.014.016-.013A1.726,1.726,0,0,0,24.905,37.816ZM48.427,65.488a1.73,1.73,0,1,0-1.73,1.73A1.731,1.731,0,0,0,48.427,65.488Zm13.49,5.88a1.038,1.038,0,0,0-1.038,1.038v2.767a4.5,4.5,0,0,1-4.5,4.5H9.339a4.5,4.5,0,0,1-4.5-4.5V44.734a1.038,1.038,0,1,0-2.075,0v30.44a6.58,6.58,0,0,0,6.572,6.572H56.383a6.58,6.58,0,0,0,6.572-6.572V72.406A1.038,1.038,0,0,0,61.917,71.369Z" transform="translate(0 0)"/>
    </g>
  </g>
</svg>
