<svg xmlns="http://www.w3.org/2000/svg" width="105" height="105" viewBox="0 0 105 105">
  <g id="Grupo_1212690" data-name="Grupo 1212690" transform="translate(-904.975 -5209.497)">
    <g id="Grupo_1212248" data-name="Grupo 1212248" transform="translate(904.975 5209.497)">
      <g id="Grupo_1098742" data-name="Grupo 1098742" transform="translate(0)">
        <g id="Rect치ngulo_400898" data-name="Rect치ngulo 400898" transform="translate(0.001 0)" fill="#eabe94" stroke="#497d74" stroke-width="1">
          <rect width="104.999" height="104.999" rx="52.5" stroke="none"/>
          <rect x="0.5" y="0.5" width="103.999" height="103.999" rx="52" fill="none"/>
        </g>
        <g id="Rect치ngulo_400907" data-name="Rect치ngulo 400907" transform="translate(0 0)" fill="none" stroke="#497d74" stroke-width="1">
          <rect width="104.999" height="104.999" rx="52.5" stroke="none"/>
          <rect x="0.5" y="0.5" width="103.999" height="103.999" rx="52" fill="none"/>
        </g>
      </g>
    </g>
    <g id="aggregate-supply_6762699_1_" data-name="aggregate-supply_6762699 (1)" transform="translate(929.975 5232.848)">
      <g id="Grupo_1212688" data-name="Grupo 1212688" transform="translate(0.797 0.797)">
        <g id="Grupo_1212687" data-name="Grupo 1212687" transform="translate(3.767 27.019)">
          <path id="Trazado_901588" data-name="Trazado 901588" d="M78.8,75.394a.8.8,0,0,1-.8-.8V72.915a.8.8,0,0,1,1.594,0V74.6a.8.8,0,0,1-.8.8Z" transform="translate(-47.035 -67.085)" fill="#ecfffc"/>
          <path id="Trazado_901589" data-name="Trazado 901589" d="M78.8,88.291a.8.8,0,0,1-.8-.8V85.812a.8.8,0,0,1,1.594,0v1.682a.8.8,0,0,1-.8.8Z" transform="translate(-47.035 -74.107)" fill="#ecfffc"/>
          <path id="Trazado_901590" data-name="Trazado 901590" d="M78.8,101.186a.8.8,0,0,1-.8-.8v-1.68a.8.8,0,0,1,1.594,0v1.682A.8.8,0,0,1,78.8,101.186Z" transform="translate(-47.035 -81.129)" fill="#ecfffc"/>
          <path id="Trazado_901591" data-name="Trazado 901591" d="M78.8,114.083a.8.8,0,0,1-.8-.8V111.6a.8.8,0,0,1,1.594,0v1.682a.8.8,0,0,1-.8.8Z" transform="translate(-47.035 -88.151)" fill="#ecfffc"/>
          <path id="Trazado_901592" data-name="Trazado 901592" d="M13.863,62.662H10.817a.8.8,0,1,1,0-1.594h3.046a.8.8,0,0,1,0,1.594Z" transform="translate(-10.02 -61.068)" fill="#ecfffc"/>
          <path id="Trazado_901593" data-name="Trazado 901593" d="M28.863,62.662H25.817a.8.8,0,1,1,0-1.594h3.046a.8.8,0,0,1,0,1.594Z" transform="translate(-18.188 -61.068)" fill="#ecfffc"/>
          <path id="Trazado_901594" data-name="Trazado 901594" d="M43.863,62.662H40.817a.8.8,0,1,1,0-1.594h3.046a.8.8,0,0,1,0,1.594Z" transform="translate(-26.355 -61.068)" fill="#ecfffc"/>
          <path id="Trazado_901595" data-name="Trazado 901595" d="M60.79,62.662H55.817a.8.8,0,1,1,0-1.594H60.79a.8.8,0,0,1,0,1.594Z" transform="translate(-34.523 -61.068)" fill="#ecfffc"/>
        </g>
        <path id="Trazado_901596" data-name="Trazado 901596" d="M58.459,58.459H1.75V1.75H6.3V53.9H58.459Z" transform="translate(-1.75 -1.75)" fill="#2d4a59"/>
        <path id="Trazado_901597" data-name="Trazado 901597" d="M19.75,50.261h8.556A55.929,55.929,0,0,0,53.343,3.786V1.75H48.788V3.786a51.338,51.338,0,0,1-29.038,46.1Z" transform="translate(-11.551 -1.75)" fill="#ee1e1e"/>
      </g>
      <g id="Grupo_1212689" data-name="Grupo 1212689">
        <path id="Trazado_901598" data-name="Trazado 901598" d="M79.594,72.915a.8.8,0,0,0-1.594,0V74.6a.8.8,0,0,0,1.594,0Z" transform="translate(-42.471 -39.268)"/>
        <path id="Trazado_901599" data-name="Trazado 901599" d="M79.594,85.812a.8.8,0,0,0-1.594,0v1.682a.8.8,0,0,0,1.594,0Z" transform="translate(-42.471 -46.291)"/>
        <path id="Trazado_901600" data-name="Trazado 901600" d="M78.8,97.911a.8.8,0,0,0-.8.8v1.682a.8.8,0,0,0,1.594,0V98.708a.8.8,0,0,0-.8-.8Z" transform="translate(-42.471 -53.313)"/>
        <path id="Trazado_901601" data-name="Trazado 901601" d="M25.817,62.662h3.046a.8.8,0,1,0,0-1.594H25.817a.8.8,0,0,0,0,1.594Z" transform="translate(-13.623 -33.252)"/>
        <path id="Trazado_901602" data-name="Trazado 901602" d="M40.817,62.662h3.046a.8.8,0,1,0,0-1.594H40.817a.8.8,0,0,0,0,1.594Z" transform="translate(-21.791 -33.252)"/>
        <path id="Trazado_901603" data-name="Trazado 901603" d="M35.66,29.411h3.715a50.857,50.857,0,0,1-20.923,18.8A.8.8,0,0,0,18,48.93v.378a.8.8,0,0,0,.8.8h8.556a.8.8,0,0,0,.44-.133A56.436,56.436,0,0,0,53.187,2.833V.8a.8.8,0,0,0-.8-.8H47.835a.8.8,0,0,0-.8.8V2.833a49.908,49.908,0,0,1-1.779,13.2.8.8,0,1,0,1.535.429A51.506,51.506,0,0,0,48.632,2.833V1.594h2.961V2.833A54.846,54.846,0,0,1,27.107,48.512l-5.739,0A52.634,52.634,0,0,0,45.405,20.775a.8.8,0,1,0-1.494-.554,50.04,50.04,0,0,1-3.574,7.595H35.66a.8.8,0,0,0,0,1.594Z" transform="translate(-9.801 0)"/>
        <path id="Trazado_901604" data-name="Trazado 901604" d="M57.507,52.154h-4.4a.8.8,0,0,0,0,1.594h3.6v2.961H1.594V1.594H4.555V52.952a.8.8,0,0,0,.8.8H42.543a.8.8,0,1,0,0-1.594h-5.42v-.885a.8.8,0,1,0-1.594,0v.885H6.149V29.411H8.408a.8.8,0,1,0,0-1.594H6.149V.8a.8.8,0,0,0-.8-.8H.8A.8.8,0,0,0,0,.8V57.507a.8.8,0,0,0,.8.8H57.507a.8.8,0,0,0,.8-.8V52.952a.8.8,0,0,0-.8-.8Z"/>
        <path id="Trazado_901605" data-name="Trazado 901605" d="M101.561,116.094h2.264a.8.8,0,0,0,0-1.594h-2.264a.8.8,0,1,0,0,1.594Z" transform="translate(-54.866 -62.346)"/>
      </g>
    </g>
  </g>
</svg>
