<svg xmlns="http://www.w3.org/2000/svg" xmlns:xlink="http://www.w3.org/1999/xlink" width="118" height="118" viewBox="0 0 118 118">
  <defs>
    <filter id="Trazado_896985" x="0" y="0" width="118" height="118" filterUnits="userSpaceOnUse">
      <feOffset dy="3" input="SourceAlpha"/>
      <feGaussianBlur stdDeviation="3" result="blur"/>
      <feFlood flood-opacity="0.161"/>
      <feComposite operator="in" in2="blur"/>
      <feComposite in="SourceGraphic"/>
    </filter>
  </defs>
  <g id="Grupo_1212718" data-name="Grupo 1212718" transform="translate(-616.967 -9157.27)">
    <g id="Grupo_1212199" data-name="Grupo 1212199" transform="translate(0.076 -8771.73)">
      <g id="Grupo_1200068" data-name="Grupo 1200068" transform="translate(-0.949 13650.111)">
        <g id="Grupo_1198724" data-name="Grupo 1198724" transform="translate(0.95 -182.434)">
          <g id="Grupo_1198140" data-name="Grupo 1198140" transform="translate(291 615.322)">
            <g id="Grupo_1111318" data-name="Grupo 1111318" transform="translate(334.891 3852)">
              <g id="Grupo_1109826" data-name="Grupo 1109826" transform="translate(0)">
                <g id="Grupo_1098742" data-name="Grupo 1098742" transform="translate(0 0)">
                  <g transform="matrix(1, 0, 0, 1, -9, -6)" filter="url(#Trazado_896985)">
                    <g id="Trazado_896985-2" data-name="Trazado 896985" transform="translate(9 6)" fill="#d0c110" opacity="0.859">
                      <path d="M 49.99993515014648 99.5 C 43.31726837158203 99.5 36.83476257324219 98.19129943847656 30.73248100280762 95.61025238037109 C 24.83812141418457 93.11714172363281 19.54434776306152 89.54795837402344 14.99820137023926 85.00179290771484 C 10.45204162597656 80.45565032958984 6.88285493850708 75.16187286376953 4.389748573303223 69.26751708984375 C 1.808695197105408 63.16523742675781 0.5000017881393433 56.6827278137207 0.5000017881393433 50.00006103515625 C 0.5000017881393433 43.31726455688477 1.808695197105408 36.83475494384766 4.389748573303223 30.73247528076172 C 6.88285493850708 24.83811569213867 10.45204162597656 19.54434204101562 14.99820137023926 14.99819660186768 C 19.54434776306152 10.45203590393066 24.83812141418457 6.88284969329834 30.73248100280762 4.389742851257324 C 36.83476257324219 1.808689475059509 43.31726837158203 0.4999961853027344 49.99993515014648 0.4999961853027344 C 56.68260192871094 0.4999961853027344 63.16510772705078 1.808689475059509 69.26738739013672 4.389742851257324 C 75.16175079345703 6.88284969329834 80.45552062988281 10.45203590393066 85.00167083740234 14.99819660186768 C 89.54782867431641 19.54434204101562 93.11701202392578 24.83811569213867 95.61012268066406 30.73247528076172 C 98.19117736816406 36.83475494384766 99.49987030029297 43.31726455688477 99.49987030029297 49.99993133544922 C 99.49987030029297 56.6827278137207 98.19117736816406 63.16523742675781 95.61012268066406 69.26751708984375 C 93.11701202392578 75.16187286376953 89.54782867431641 80.45565032958984 85.00167083740234 85.00179290771484 C 80.45552062988281 89.54795837402344 75.16175079345703 93.11714172363281 69.26738739013672 95.61025238037109 C 63.16510772705078 98.19129943847656 56.68260192871094 99.5 49.99993515014648 99.5 Z" stroke="none"/>
                      <path d="M 49.99993515014648 0.9999923706054688 C 43.38454818725586 0.9999923706054688 36.96757507324219 2.29541015625 30.92725372314453 4.850250244140625 C 25.09249877929688 7.318145751953125 19.85213470458984 10.85135650634766 15.35174560546875 15.35174560546875 C 10.85136413574219 19.85212707519531 7.318145751953125 25.09249114990234 4.850257873535156 30.92724609375 C 2.295417785644531 36.96757125854492 1 43.38454437255859 1 50.00006103515625 C 1 56.61544799804688 2.295417785644531 63.03242111206055 4.850257873535156 69.07273864746094 C 7.318145751953125 74.90750122070312 10.85136413574219 80.14786529541016 15.35174560546875 84.64824676513672 C 19.85213470458984 89.14863586425781 25.09249877929688 92.68184661865234 30.92725372314453 95.14974212646484 C 36.96757507324219 97.70458221435547 43.38454818725586 99 49.99993515014648 99 C 56.61532211303711 99 63.03229522705078 97.70458221435547 69.07261657714844 95.14974212646484 C 74.90737915039062 92.68184661865234 80.14773559570312 89.14863586425781 84.64812469482422 84.64824676513672 C 89.14850616455078 80.14786529541016 92.68172454833984 74.90750122070312 95.14961242675781 69.07273864746094 C 97.70445251464844 63.03242111206055 98.99987030029297 56.61544799804688 98.99987030029297 49.99993133544922 C 98.99987030029297 43.38454437255859 97.70445251464844 36.96757125854492 95.14961242675781 30.92724609375 C 92.68172454833984 25.09249114990234 89.14850616455078 19.85212707519531 84.64812469482422 15.35174560546875 C 80.14773559570312 10.85135650634766 74.90737915039062 7.318145751953125 69.07261657714844 4.850250244140625 C 63.03229522705078 2.29541015625 56.61532211303711 0.9999923706054688 49.99993515014648 0.9999923706054688 M 49.99993515014648 -7.62939453125e-06 C 77.6141357421875 -7.62939453125e-06 99.99987030029297 22.38572692871094 99.99987030029297 49.99993133544922 L 99.99987030029297 50.00006103515625 C 99.99987030029297 77.61426544189453 77.6141357421875 100 49.99993515014648 100 C 22.38573455810547 100 0 77.61426544189453 0 50.00006103515625 L 0 49.99993133544922 C 0 22.38572692871094 22.38573455810547 -7.62939453125e-06 49.99993515014648 -7.62939453125e-06 Z" stroke="none" fill="#fff"/>
                    </g>
                  </g>
                  <g id="Rectángulo_400907" data-name="Rectángulo 400907" transform="translate(0)" fill="none" stroke="#fff" stroke-width="1">
                    <rect width="100" height="100" rx="50" stroke="none"/>
                    <rect x="0.5" y="0.5" width="99" height="99" rx="49.5" fill="none"/>
                  </g>
                </g>
              </g>
            </g>
          </g>
        </g>
      </g>
    </g>
    <g id="Filled_outline" data-name="Filled outline" transform="translate(629.656 9170.696)">
      <path id="Trazado_901690" data-name="Trazado 901690" d="M77,56H27.926A3.926,3.926,0,0,0,24,59.926V93.3H77a3.926,3.926,0,0,0,3.926-3.926V59.926A3.926,3.926,0,0,0,77,56Z" transform="translate(-7.018 -35.094)" fill="#593528"/>
      <path id="Trazado_901691" data-name="Trazado 901691" d="M204.464,24,176,36.76l9.815,21.593,28.464-12.76Z" transform="translate(-140.37 -7.02)" fill="#8da662"/>
      <path id="Trazado_901692" data-name="Trazado 901692" d="M156.464,24,128,36.76l9.815,21.593,28.464-12.76Z" transform="translate(-98.259 -7.02)" fill="#96b268"/>
      <path id="Trazado_901693" data-name="Trazado 901693" d="M26.945,104H80.928v27.482A3.926,3.926,0,0,1,77,135.408H24V106.945A2.945,2.945,0,0,1,26.945,104Z" transform="translate(-7.018 -77.205)" fill="#6a3f2e"/>
      <path id="Trazado_901694" data-name="Trazado 901694" d="M24,184H80.928v17.667A3.926,3.926,0,0,1,77,205.593H24Z" transform="translate(-7.018 -147.39)" fill="#784533"/>
      <path id="Trazado_901695" data-name="Trazado 901695" d="M90.945,136h39.26a2.945,2.945,0,0,1,2.945,2.945v2.945H88v-2.945A2.945,2.945,0,0,1,90.945,136Z" transform="translate(-63.166 -105.279)" fill="#de5540"/>
      <path id="Trazado_901696" data-name="Trazado 901696" d="M69.15,103.94v29.586a3.549,3.549,0,0,1-3.55,3.549,3.624,3.624,0,0,1-.744-.079L27.1,128.907a3.926,3.926,0,0,1-3.1-3.839V88a3.91,3.91,0,0,0,3.1,3.826L66.039,100.1A3.927,3.927,0,0,1,69.15,103.94Z" transform="translate(-7.018 -63.168)" fill="#844e3a"/>
      <g id="Grupo_1212717" data-name="Grupo 1212717" transform="translate(16.982 30.681)">
        <path id="Trazado_901697" data-name="Trazado 901697" d="M61.591,375.822l-.412,1.92,3.839.822.412-1.919Zm-7.678-1.645L53.5,376.1l3.838.822L57.752,375Zm-7.678-1.645-.411,1.92,3.838.822.412-1.919Zm-7.678-1.645-.411,1.92,3.838.822.412-1.919Zm-7.678-1.645-.411,1.92,3.839.822.411-1.919ZM24,367.76v2.008l2.629.569.411-1.919Z" transform="translate(-24 -339.286)" fill="#9b6c5c"/>
        <path id="Trazado_901698" data-name="Trazado 901698" d="M62.42,144.84l-.455,1.909L65,147.47l.454-1.909Zm-7.639-1.819-.454,1.91,3.818.909.455-1.91ZM47.143,141.2l-.454,1.909,3.818.91.455-1.91ZM39.5,139.384l-.454,1.909,3.819.909.454-1.909Zm-7.639-1.819-.454,1.91,3.819.909.454-1.91ZM24,135.68V137.7l3.592.866.454-1.909Z" transform="translate(-24 -135.68)" fill="#9b6c5c"/>
        <path id="Trazado_901699" data-name="Trazado 901699" d="M352,271.7v3.926h1.963V271.7Zm0-7.852v3.926h1.963v-3.926ZM352,256v3.926h1.963V256Z" transform="translate(-311.758 -241.238)" fill="#9b6c5c"/>
      </g>
      <path id="Trazado_901700" data-name="Trazado 901700" d="M291.926,278.723,288,277.741V264l3.926.982Z" transform="translate(-238.629 -217.575)" fill="#dfdfdd"/>
      <path id="Trazado_901701" data-name="Trazado 901701" d="M69.983,19.924H66.511l-1.523-3.351a.982.982,0,0,0-1.3-.489l-4,1.794-.593-1.3a.982.982,0,0,0-1.295-.489l-2.19.982.8,1.791,1.3-.582,3.426,7.539H40.9l13.329-5.975-.8-1.791-4.188,1.877H20.908A4.913,4.913,0,0,0,16,24.832V36.61h1.963V32.945l2.61.622.454-1.91-3.064-.73V28.745a4.85,4.85,0,0,0,1.913.873l38.941,8.273a2.959,2.959,0,0,1,2.333,2.88V70.357a2.568,2.568,0,0,1-3.107,2.511l-37.752-8.09A2.96,2.96,0,0,1,17.963,61.9v-.519l1.647.353.411-1.919-2.059-.442v-20.8H16V61.9a4.933,4.933,0,0,0,3.879,4.8l37.751,8.09a4.531,4.531,0,0,0,5.482-4.431V59.185h6.871a4.913,4.913,0,0,0,4.908-4.908V49.369H72.928v4.908a2.948,2.948,0,0,1-2.945,2.945H63.113V40.771a4.9,4.9,0,0,0-1.18-3.18H72.928v9.815h1.963V24.832a4.913,4.913,0,0,0-4.908-4.908ZM60.5,19.665l3.1-1.391,3.426,7.538H63.3ZM18.293,26.17a2.9,2.9,0,0,1-.33-1.339,2.948,2.948,0,0,1,2.945-2.945h23.95L36.1,25.813H19.926a3.923,3.923,0,0,0-1.633.357ZM69,35.628H57.614L39.134,31.7h27.9A1.965,1.965,0,0,1,69,33.665Zm3.926,0H70.965V33.665a3.93,3.93,0,0,0-3.926-3.926H29.894l-9.24-1.963H72.928Zm0-9.815H69.187L67.4,21.887h2.58a2.948,2.948,0,0,1,2.945,2.945ZM39.216,63.927l3.839.822-.411,1.92L38.8,65.847ZM23.86,60.636l3.839.822-.411,1.919-3.839-.822Zm7.678,1.645,3.839.822-.411,1.919L31.128,64.2Zm23.033,4.936,3.839.822L58,69.959l-3.839-.822Zm-7.678-1.645,3.839.823-.411,1.919-3.839-.822ZM55.4,39.841l3.03.722-.455,1.91-3.03-.722Zm-7.638-1.819,3.819.909-.455,1.91-3.819-.909ZM35.85,37.2l-3.819-.909.455-1.91,3.819.909Zm-7.638-1.819-3.819-.909.455-1.91,3.819.909Zm15.277,3.637-3.819-.909.455-1.91,3.819.909ZM57.224,61.148h1.963v3.926H57.224Zm1.963-11.778H57.224V45.443h1.963Zm0,7.852H57.224V53.3h1.963ZM53.535,46.454l-3.926-.982a.982.982,0,0,0-1.22.952V60.166a.982.982,0,0,0,.743.952L53.3,62.129c.506.123.982-.2.982-.982V47.406a.981.981,0,0,0-.743-.952Zm-1.22,13.436L50.353,59.4V47.682l1.963.491Z" transform="translate(0)"/>
    </g>
  </g>
</svg>
