<svg xmlns="http://www.w3.org/2000/svg" xmlns:xlink="http://www.w3.org/1999/xlink" width="118" height="118" viewBox="0 0 118 118">
  <defs>
    <filter id="Trazado_896985" x="0" y="0" width="118" height="118" filterUnits="userSpaceOnUse">
      <feOffset dy="3" input="SourceAlpha"/>
      <feGaussianBlur stdDeviation="3" result="blur"/>
      <feFlood flood-opacity="0.161"/>
      <feComposite operator="in" in2="blur"/>
      <feComposite in="SourceGraphic"/>
    </filter>
  </defs>
  <g id="Grupo_1212716" data-name="Grupo 1212716" transform="translate(-196.967 -9157.27)">
    <g id="Grupo_1212198" data-name="Grupo 1212198" transform="translate(0.076 -8771.73)">
      <g id="Grupo_1200012" data-name="Grupo 1200012" transform="translate(-0.949 13650.111)">
        <g id="Grupo_1198723" data-name="Grupo 1198723" transform="translate(0.95 -182.434)">
          <g id="Grupo_1198139" data-name="Grupo 1198139" transform="translate(-129 615.322)">
            <g id="Grupo_1111318" data-name="Grupo 1111318" transform="translate(334.891 3852)">
              <g id="Grupo_1109826" data-name="Grupo 1109826" transform="translate(0)">
                <g id="Grupo_1098742" data-name="Grupo 1098742" transform="translate(0 0)">
                  <g transform="matrix(1, 0, 0, 1, -9, -6)" filter="url(#Trazado_896985)">
                    <g id="Trazado_896985-2" data-name="Trazado 896985" transform="translate(9 6)" fill="#d0c110" opacity="0.859">
                      <path d="M 49.99993515014648 99.5 C 43.31726837158203 99.5 36.83476257324219 98.19129943847656 30.73248100280762 95.61025238037109 C 24.83812141418457 93.11714172363281 19.54434776306152 89.54795837402344 14.99820137023926 85.00179290771484 C 10.45204162597656 80.45565032958984 6.88285493850708 75.16187286376953 4.389748573303223 69.26751708984375 C 1.808695197105408 63.16523742675781 0.5000017881393433 56.6827278137207 0.5000017881393433 50.00006103515625 C 0.5000017881393433 43.31726455688477 1.808695197105408 36.83475494384766 4.389748573303223 30.73247528076172 C 6.88285493850708 24.83811569213867 10.45204162597656 19.54434204101562 14.99820137023926 14.99819660186768 C 19.54434776306152 10.45203590393066 24.83812141418457 6.88284969329834 30.73248100280762 4.389742851257324 C 36.83476257324219 1.808689475059509 43.31726837158203 0.4999961853027344 49.99993515014648 0.4999961853027344 C 56.68260192871094 0.4999961853027344 63.16510772705078 1.808689475059509 69.26738739013672 4.389742851257324 C 75.16175079345703 6.88284969329834 80.45552062988281 10.45203590393066 85.00167083740234 14.99819660186768 C 89.54782867431641 19.54434204101562 93.11701202392578 24.83811569213867 95.61012268066406 30.73247528076172 C 98.19117736816406 36.83475494384766 99.49987030029297 43.31726455688477 99.49987030029297 49.99993133544922 C 99.49987030029297 56.6827278137207 98.19117736816406 63.16523742675781 95.61012268066406 69.26751708984375 C 93.11701202392578 75.16187286376953 89.54782867431641 80.45565032958984 85.00167083740234 85.00179290771484 C 80.45552062988281 89.54795837402344 75.16175079345703 93.11714172363281 69.26738739013672 95.61025238037109 C 63.16510772705078 98.19129943847656 56.68260192871094 99.5 49.99993515014648 99.5 Z" stroke="none"/>
                      <path d="M 49.99993515014648 0.9999923706054688 C 43.38454818725586 0.9999923706054688 36.96757507324219 2.29541015625 30.92725372314453 4.850250244140625 C 25.09249877929688 7.318145751953125 19.85213470458984 10.85135650634766 15.35174560546875 15.35174560546875 C 10.85136413574219 19.85212707519531 7.318145751953125 25.09249114990234 4.850257873535156 30.92724609375 C 2.295417785644531 36.96757125854492 1 43.38454437255859 1 50.00006103515625 C 1 56.61544799804688 2.295417785644531 63.03242111206055 4.850257873535156 69.07273864746094 C 7.318145751953125 74.90750122070312 10.85136413574219 80.14786529541016 15.35174560546875 84.64824676513672 C 19.85213470458984 89.14863586425781 25.09249877929688 92.68184661865234 30.92725372314453 95.14974212646484 C 36.96757507324219 97.70458221435547 43.38454818725586 99 49.99993515014648 99 C 56.61532211303711 99 63.03229522705078 97.70458221435547 69.07261657714844 95.14974212646484 C 74.90737915039062 92.68184661865234 80.14773559570312 89.14863586425781 84.64812469482422 84.64824676513672 C 89.14850616455078 80.14786529541016 92.68172454833984 74.90750122070312 95.14961242675781 69.07273864746094 C 97.70445251464844 63.03242111206055 98.99987030029297 56.61544799804688 98.99987030029297 49.99993133544922 C 98.99987030029297 43.38454437255859 97.70445251464844 36.96757125854492 95.14961242675781 30.92724609375 C 92.68172454833984 25.09249114990234 89.14850616455078 19.85212707519531 84.64812469482422 15.35174560546875 C 80.14773559570312 10.85135650634766 74.90737915039062 7.318145751953125 69.07261657714844 4.850250244140625 C 63.03229522705078 2.29541015625 56.61532211303711 0.9999923706054688 49.99993515014648 0.9999923706054688 M 49.99993515014648 -7.62939453125e-06 C 77.6141357421875 -7.62939453125e-06 99.99987030029297 22.38572692871094 99.99987030029297 49.99993133544922 L 99.99987030029297 50.00006103515625 C 99.99987030029297 77.61426544189453 77.6141357421875 100 49.99993515014648 100 C 22.38573455810547 100 0 77.61426544189453 0 50.00006103515625 L 0 49.99993133544922 C 0 22.38572692871094 22.38573455810547 -7.62939453125e-06 49.99993515014648 -7.62939453125e-06 Z" stroke="none" fill="#fff"/>
                    </g>
                  </g>
                  <g id="Rectángulo_400907" data-name="Rectángulo 400907" transform="translate(0)" fill="none" stroke="#fff" stroke-width="1">
                    <rect width="100" height="100" rx="50" stroke="none"/>
                    <rect x="0.5" y="0.5" width="99" height="99" rx="49.5" fill="none"/>
                  </g>
                </g>
              </g>
            </g>
          </g>
        </g>
      </g>
    </g>
    <g id="_16-Digital_graphic" data-name="16-Digital graphic" transform="translate(219.169 9174.472)">
      <g id="_Group_" data-name="&lt;Group&gt;" transform="translate(0.005 0.011)">
        <path id="Trazado_901668" data-name="Trazado 901668" d="M77.242,52l.352.057a34.118,34.118,0,0,1-1.137,4.857l-.033-.008H29V52Z" transform="translate(-5.292 -9.491)" fill="#949fb5"/>
        <path id="Trazado_901669" data-name="Trazado 901669" d="M56.906,37v4.906H52V37h4.906Z" transform="translate(-9.485 -6.756)" fill="#f1f2f2"/>
        <path id="Trazado_901670" data-name="Trazado 901670" d="M69.906,37v4.906H65V37h4.906Z" transform="translate(-11.856 -6.756)" fill="#f1f2f2"/>
        <path id="Trazado_901671" data-name="Trazado 901671" d="M74.906,24v4.906H70V24Z" transform="translate(-12.767 -4.385)" fill="#f1f2f2"/>
        <path id="Trazado_901672" data-name="Trazado 901672" d="M56.906,8v4.906H52V8Z" transform="translate(-9.485 -1.468)" fill="#f1f2f2"/>
        <path id="Trazado_901673" data-name="Trazado 901673" d="M50.259,14V24.63H40.447V22.177H35.541V24.63H29V14H50.259Z" transform="translate(-5.292 -2.562)" fill="#5a87f6"/>
        <path id="Trazado_901674" data-name="Trazado 901674" d="M41.906,26.453v2.453H37V24h4.906Z" transform="translate(-6.75 -4.385)" fill="#f1f2f2"/>
        <path id="Trazado_901675" data-name="Trazado 901675" d="M41.906,39.453v2.453H37V37h4.906Z" transform="translate(-6.75 -6.756)" fill="#f1f2f2"/>
        <path id="Trazado_901676" data-name="Trazado 901676" d="M40.447,35.239V32.786H35.541v4.906h4.906Zm7.359,0v2.453h4.906V32.786H47.806Zm2.453-10.63V13.98H67.43l.09-.09A35.832,35.832,0,0,1,78.06,39.327a35.432,35.432,0,0,1-.466,5.781l-.352-.057H29V24.61h6.541v2.453h4.906V24.61Zm10.63,8.177H58.436v4.906h4.906V32.786Zm1.635-8.177v2.453H67.43V22.157H62.524Z" transform="translate(-5.292 -2.542)" fill="#5a87f6"/>
        <path id="Trazado_901677" data-name="Trazado 901677" d="M68,58H83.536l.033.008a35.867,35.867,0,0,1-4.767,9.8H72.088a.818.818,0,0,0,.818-.818V65.359a.818.818,0,0,0-.818-.818H69.635Z" transform="translate(-12.403 -10.585)" fill="#ffde17"/>
        <path id="Trazado_901678" data-name="Trazado 901678" d="M68.894,66.818v1.635a.818.818,0,0,1-.818.818H46.818A.818.818,0,0,1,46,68.453V66.818A.818.818,0,0,1,46.818,66H68.077A.818.818,0,0,1,68.894,66.818Z" transform="translate(-8.391 -12.044)" fill="#949fb5"/>
        <path id="Trazado_901679" data-name="Trazado 901679" d="M64.718,58l1.635,6.541H50L51.635,58Z" transform="translate(-9.121 -10.585)" fill="#f1f2f2"/>
        <path id="Trazado_901680" data-name="Trazado 901680" d="M75.724,75V86.447H70V75Z" transform="translate(-12.767 -13.685)" fill="#a76741"/>
        <path id="Trazado_901681" data-name="Trazado 901681" d="M60.883,75v5.078a35.986,35.986,0,0,1-40.883,0V75Z" transform="translate(-3.65 -13.685)" fill="#ffde17"/>
        <path id="Trazado_901682" data-name="Trazado 901682" d="M18.724,80.078v6.37H13V75h5.724Z" transform="translate(-2.374 -13.685)" fill="#a76741"/>
        <path id="Trazado_901683" data-name="Trazado 901683" d="M71.048,70v4.088H4V70H71.048Z" transform="translate(-0.733 -12.773)" fill="#c2895e"/>
        <path id="Trazado_901684" data-name="Trazado 901684" d="M19.541,65.271v3.271H13V65.271L13.409,62h5.724Z" transform="translate(-2.374 -11.314)" fill="#27dc95"/>
        <path id="Trazado_901685" data-name="Trazado 901685" d="M18.815,58l.409,3.271H13.5L13.909,58h4.906Z" transform="translate(-2.465 -10.585)" fill="#949fb5"/>
        <path id="Trazado_901686" data-name="Trazado 901686" d="M15.541,43.265,13.906,44.9v2.453h3.271V44.9Zm0-12.265,6.541,15.536v2.453s-4.088.818-4.088,4.088H13.088C13.088,49.806,9,48.989,9,48.989V46.536Z" transform="translate(-1.645 -5.662)" fill="#f1f2f2"/>
        <path id="Trazado_901687" data-name="Trazado 901687" d="M18.271,47.635v2.453H15V47.635L16.635,46Z" transform="translate(-2.739 -8.397)" fill="#949fb5"/>
        <path id="Trazado_901688" data-name="Trazado 901688" d="M37.8,56.6a.818.818,0,0,0,.818.818H17.354V54.15l-.409-3.271-.409-3.271c0-3.271,4.088-4.088,4.088-4.088V41.067L14.083,25.532,7.542,41.067V43.52s4.088.818,4.088,4.088l-.409,3.271-.409,3.271V57.42H7.37A35.977,35.977,0,0,1,62.415,11.541l-.09.09H47.607V6.725H42.7v4.906H23.9V47.608H42.7L41.066,54.15H38.613a.818.818,0,0,0-.818.818Z" transform="translate(-0.187 -0.193)" fill="#ffde17"/>
        <path id="Trazado_901689" data-name="Trazado 901689" d="M62.812,10.781A36.795,36.795,0,0,0,5.67,56.421h-2.4a.818.818,0,0,0-.818.818v4.088a.818.818,0,0,0,.818.818H9.813v10.63a.818.818,0,0,0,.818.818h5.724a.818.818,0,0,0,.818-.818V67.922a36.8,36.8,0,0,0,39.248,0v4.852a.818.818,0,0,0,.818.818h5.724a.818.818,0,0,0,.818-.818V62.144H70.32a.818.818,0,0,0,.818-.818V57.238a.818.818,0,0,0-.818-.818h-2.4a36.5,36.5,0,0,0,4.03-8.742,34.871,34.871,0,0,0,1.163-4.967,36.8,36.8,0,0,0-10.3-31.93ZM15.536,71.956H11.448V62.144h4.088Zm21.259,0a34.957,34.957,0,0,1-19.624-5.99V62.144H56.419v3.822A34.957,34.957,0,0,1,36.8,71.956Zm25.347,0H58.055V62.144h4.088ZM69.5,60.509H4.089V58.056H69.5ZM14.719,39.588v1.3H13.083v-1.3l.818-.818Zm-1.635-2.312-1.4,1.4a.818.818,0,0,0-.24.578V41.7a.818.818,0,0,0,.818.818h3.271a.818.818,0,0,0,.818-.818V39.25a.818.818,0,0,0-.239-.578l-1.4-1.4V29.4l4.906,11.65v1.657c-1.517.478-3.588,1.69-4.007,3.9H12.184c-.419-2.208-2.491-3.424-4.007-3.9V41.049L13.083,29.4ZM12.17,48.244h3.462l.2,1.635H11.966Zm-.722,5.774.313-2.5h4.28l.313,2.5v2.4H11.448Zm13.083-10.68H71.325a33.189,33.189,0,0,1-.777,3.271H24.531Zm18.627,4.906H54.963L56.19,53.15H41.93ZM59.69,54.785v1.635H38.431V54.785Zm1.635,1.635V54.785A1.635,1.635,0,0,0,59.69,53.15H57.875l-1.226-4.906H70.042a35.058,35.058,0,0,1-4.078,8.177ZM71.606,41.7H24.531V24.532H22.9V47.426a.818.818,0,0,0,.818.818h17.76L40.246,53.15H38.431A1.635,1.635,0,0,0,36.8,54.785v1.635H17.989V53.968a.843.843,0,0,0-.007-.1l-.811-6.488c.042-2.513,3.294-3.21,3.434-3.239a.818.818,0,0,0,.654-.8V40.885a.811.811,0,0,0-.064-.317L14.655,25.032a.818.818,0,0,0-1.508,0L6.606,40.568a.811.811,0,0,0-.064.317v2.453a.818.818,0,0,0,.654.8c.034.007,3.388.708,3.434,3.239l-.811,6.488a.844.844,0,0,0-.007.1v2.453H7.626A35.155,35.155,0,0,1,60.275,10.632H48.243V6.543a.818.818,0,0,0-.818-.818H42.519a.818.818,0,0,0-.818.818v4.088H23.713a.818.818,0,0,0-.818.818v8.177h1.635V12.267H44.154v8.994H35.978V19.626a.818.818,0,0,0-.818-.818H30.254a.818.818,0,0,0-.818.818v1.635H13.083V22.9H29.437v1.635a.818.818,0,0,0,.818.818H35.16a.818.818,0,0,0,.818-.818V22.9h8.177v6.541H42.519a.818.818,0,0,0-.818.818v1.635H35.978V30.256a.818.818,0,0,0-.818-.818H30.254a.818.818,0,0,0-.818.818v4.906a.818.818,0,0,0,.818.818H35.16a.818.818,0,0,0,.818-.818V33.526H41.7v1.635a.818.818,0,0,0,.818.818h4.906a.818.818,0,0,0,.818-.818V30.256a.818.818,0,0,0-.818-.818H45.79V22.9h2.353c.685.175,6.027,1.7,6.582,6.541H53.149a.818.818,0,0,0-.818.818v4.906a.818.818,0,0,0,.818.818h4.906a.818.818,0,0,0,.818-.818V30.256a.818.818,0,0,0-.818-.818H56.362A8.567,8.567,0,0,0,52.11,22.9h4.309v1.635a.818.818,0,0,0,.818.818h4.906a.818.818,0,0,0,.818-.818V19.626a.818.818,0,0,0-.818-.818H57.237a.818.818,0,0,0-.818.818v1.635H45.79V12.267H61.969A35.05,35.05,0,0,1,71.606,41.7ZM43.337,10.632V7.361h3.271v3.271Zm-8.994,9.812v3.271H31.072V20.444Zm12.265,10.63v3.271H43.337V31.073Zm-12.265,0v3.271H31.072V31.073Zm22.894,0v3.271H53.966V31.073Zm.818-7.359V20.444h3.271v3.271Z" transform="translate(-0.005 -0.011)" fill="#231f20"/>
      </g>
    </g>
  </g>
</svg>
