<svg xmlns="http://www.w3.org/2000/svg" xmlns:xlink="http://www.w3.org/1999/xlink" width="190" height="154" viewBox="0 0 190 154">
  <defs>
    <clipPath id="clip-path">
      <rect id="Rectángulo_408945" data-name="Rectángulo 408945" width="190" height="154" transform="translate(1230.051 799)" fill="#fff" stroke="#707070" stroke-width="1"/>
    </clipPath>
  </defs>
  <g id="Enmascarar_grupo_1098782" data-name="Enmascarar grupo 1098782" transform="translate(-1230.051 -799)" clip-path="url(#clip-path)">
    <g id="Grupo_1212278" data-name="Grupo 1212278" transform="translate(18.924 -4165)">
      <rect id="Rectángulo_408806" data-name="Rectángulo 408806" width="99" height="57" rx="12" transform="translate(1241.126 5029)" fill="#497d74"/>
      <rect id="Rectángulo_408807" data-name="Rectángulo 408807" width="78" height="154" rx="12" transform="translate(1286.126 4964)" fill="#345953"/>
    </g>
    <g id="Graphic_Designer-Computer-Monitor-Graphic_Tablet-Designer" data-name="Graphic Designer-Computer-Monitor-Graphic Tablet-Designer" transform="translate(1267.749 825.98)">
      <path id="Trazado_901012" data-name="Trazado 901012" d="M92.517,63.847H8L18.565,48H81.953l1.9,2.87Z" transform="translate(0.761 34.996)" fill="#c6c5ca"/>
      <path id="Trazado_901013" data-name="Trazado 901013" d="M87.474,6.522V45.259H10V6.522A3.532,3.532,0,0,1,13.522,3H83.953a3.532,3.532,0,0,1,3.522,3.522Z" transform="translate(2.282 0.761)" fill="#5aaae7"/>
      <path id="Trazado_901014" data-name="Trazado 901014" d="M63.466,39.7,58.5,44.686l-.018-.018L53.5,39.7l4.983-4.983Z" transform="translate(35.376 24.893)" fill="#c6c5ca"/>
      <path id="Trazado_901015" data-name="Trazado 901015" d="M92.517,57v5.282a1.761,1.761,0,0,1-1.761,1.761h-81A1.761,1.761,0,0,1,8,62.282V57Z" transform="translate(0.761 41.843)" fill="#acabb1"/>
      <path id="Trazado_901016" data-name="Trazado 901016" d="M87.474,27v7.043a3.532,3.532,0,0,1-3.522,3.522H13.522A3.532,3.532,0,0,1,10,34.043V27Z" transform="translate(2.282 19.019)" fill="#c6c5ca"/>
      <path id="Trazado_901017" data-name="Trazado 901017" d="M57.215,39v7.043H22V39H57.215Z" transform="translate(11.412 28.149)" fill="#898890"/>
      <g id="Grupo_1212508" data-name="Grupo 1212508" transform="translate(38.694 14.325)">
        <path id="Trazado_901018" data-name="Trazado 901018" d="M46.043,21v7.043H39V21h7.043Z" transform="translate(-14.349 0.129)" fill="#3d9ae2"/>
        <path id="Trazado_901019" data-name="Trazado 901019" d="M46.043,9v7.043H39V9Z" transform="translate(-14.349 -9)" fill="#3d9ae2"/>
        <path id="Trazado_901020" data-name="Trazado 901020" d="M32.043,24.522v3.522H25V21h7.043Z" transform="translate(-25 0.129)" fill="#3d9ae2"/>
        <path id="Trazado_901021" data-name="Trazado 901021" d="M32.043,12.522v3.522H25V9h7.043Z" transform="translate(-25 -9)" fill="#3d9ae2"/>
      </g>
      <path id="Trazado_901022" data-name="Trazado 901022" d="M27,33H44.608V43.565H27Z" transform="translate(15.216 23.584)" fill="#acabb1"/>
      <path id="Trazado_901023" data-name="Trazado 901023" d="M27,33H44.608v3.522H27Z" transform="translate(15.216 23.584)" fill="#898890"/>
      <path id="Trazado_901024" data-name="Trazado 901024" d="M44.043,19v7.043H37V19h7.043Z" transform="translate(22.823 12.933)" fill="#ff9811"/>
      <path id="Trazado_901025" data-name="Trazado 901025" d="M44.043,7v7.043H37V7Z" transform="translate(22.823 3.804)" fill="#ff9811"/>
      <path id="Trazado_901026" data-name="Trazado 901026" d="M30.043,22.522v3.522H23V19h7.043Z" transform="translate(12.172 12.933)" fill="#ff9811"/>
      <path id="Trazado_901027" data-name="Trazado 901027" d="M30.043,10.522v3.522H23V7h7.043Z" transform="translate(12.172 3.804)" fill="#ff9811"/>
      <path id="Trazado_901028" data-name="Trazado 901028" d="M57.935,50.87l-.651.651-5.247,5.247-3.75,1.25-3.733,3.733L42.07,59.269l3.733-3.75,1.25-3.733L50.839,48h5.194Z" transform="translate(26.68 34.996)" fill="#acabb1"/>
      <path id="Trazado_901029" data-name="Trazado 901029" d="M67.1,42.533,53.67,55.95,48.423,61.2l-3.75,1.25L43.44,61.2l-1.25-1.25,1.25-3.733L62.1,37.55l4.983,4.965Z" transform="translate(26.772 27.046)" fill="#e6e7e8"/>
      <path id="Trazado_901030" data-name="Trazado 901030" d="M86.018,50.544,83.088,52.5l6.9,10.348H12.05l8.218-12.325H65V47H19.325a1.761,1.761,0,0,0-1.465.784L7.3,63.631a1.771,1.771,0,0,0-.3.977V69.89a3.522,3.522,0,0,0,3.522,3.522h81a3.522,3.522,0,0,0,3.522-3.522V64.608a1.771,1.771,0,0,0-.3-.977ZM10.522,69.89V66.369h81V69.89Z" transform="translate(0 34.235)"/>
      <path id="Trazado_901031" data-name="Trazado 901031" d="M84.713,2H14.282A5.3,5.3,0,0,0,9,7.282v45.78a5.3,5.3,0,0,0,5.282,5.282H38.933v7.043H31.89a1.761,1.761,0,0,0-1.761,1.761v7.043a1.761,1.761,0,0,0,1.761,1.761H67.106a1.761,1.761,0,0,0,1.761-1.761V67.149a1.761,1.761,0,0,0-1.761-1.761H60.062V58.345H84.713A5.3,5.3,0,0,0,90,53.062V7.282A5.3,5.3,0,0,0,84.713,2ZM65.345,68.909v3.522H33.651V68.909Zm-22.89-3.522V58.345H56.541v7.043ZM86.474,53.062a1.761,1.761,0,0,1-1.761,1.761H14.282a1.761,1.761,0,0,1-1.761-1.761V47.78H86.474Zm0-8.8H12.522V7.282a1.761,1.761,0,0,1,1.761-1.761H84.713a1.761,1.761,0,0,1,1.761,1.761Z" transform="translate(1.522 0)"/>
      <path id="Trazado_901032" data-name="Trazado 901032" d="M47,29h3.522v3.522H47Z" transform="translate(30.431 20.541)"/>
      <path id="Trazado_901033" data-name="Trazado 901033" d="M23.761,37.694H30.8a1.761,1.761,0,0,0,1.761-1.761V34.172H46.651v1.761a1.761,1.761,0,0,0,1.761,1.761h7.043a1.761,1.761,0,0,0,1.761-1.761V28.89a1.761,1.761,0,0,0-1.761-1.761H53.694V16.565h1.761A1.761,1.761,0,0,0,57.215,14.8V7.761A1.761,1.761,0,0,0,55.455,6H48.412a1.761,1.761,0,0,0-1.761,1.761V9.522H32.565V7.761A1.761,1.761,0,0,0,30.8,6H23.761A1.761,1.761,0,0,0,22,7.761V14.8a1.761,1.761,0,0,0,1.761,1.761h1.761V27.129H23.761A1.761,1.761,0,0,0,22,28.89v7.043A1.761,1.761,0,0,0,23.761,37.694Zm29.933-3.522H50.172V30.651h3.522ZM50.172,9.522h3.522v3.522H50.172Zm-24.651,0h3.522v3.522H25.522Zm3.522,7.043H30.8A1.761,1.761,0,0,0,32.565,14.8V13.043H46.651V14.8a1.761,1.761,0,0,0,1.761,1.761h1.761V27.129H48.412a1.761,1.761,0,0,0-1.761,1.761v1.761H32.565V28.89A1.761,1.761,0,0,0,30.8,27.129H29.043ZM25.522,30.651h3.522v3.522H25.522Z" transform="translate(11.412 3.043)"/>
      <path id="Trazado_901034" data-name="Trazado 901034" d="M23,52H47.651v3.522H23Z" transform="translate(12.172 38.039)"/>
      <path id="Trazado_901035" data-name="Trazado 901035" d="M74.933,39.214,69.95,34.231a1.743,1.743,0,0,0-1.25-.511,1.7,1.7,0,0,0-1.233.511L43.8,57.9a1.731,1.731,0,0,0-.423.687l-1.25,3.733a1.778,1.778,0,0,0,.423,1.8l-2.483,2.5,2.483,2.483,2.5-2.483a1.733,1.733,0,0,0,1.233.511,1.984,1.984,0,0,0,.563-.088l3.733-1.25a1.731,1.731,0,0,0,.687-.423L74.933,41.7A1.761,1.761,0,0,0,74.933,39.214ZM49.085,62.579l-2.307.757-.968-.951.775-2.307L63.717,42.947l2.5,2.483ZM68.7,42.947l-2.483-2.483,2.483-2.5,2.5,2.5Z" transform="translate(25.159 24.132)"/>
    </g>
  </g>
</svg>
