<svg xmlns="http://www.w3.org/2000/svg" width="105" height="104.999" viewBox="0 0 105 104.999">
  <g id="Grupo_1212406" data-name="Grupo 1212406" transform="translate(-905 -10752.208)">
    <g id="Grupo_1198249" data-name="Grupo 1198249" transform="translate(905 10752.208)">
      <g id="Grupo_1098742" data-name="Grupo 1098742" transform="translate(0)">
        <g id="Rectángulo_400898" data-name="Rectángulo 400898" transform="translate(0.001 0)" fill="#eabe94" stroke="#ae967f" stroke-width="1">
          <rect width="104.999" height="104.999" rx="52.5" stroke="none"/>
          <rect x="0.5" y="0.5" width="103.999" height="103.999" rx="52" fill="none"/>
        </g>
        <g id="Rectángulo_400907" data-name="Rectángulo 400907" transform="translate(0 0)" fill="none" stroke="#ae967f" stroke-width="1">
          <rect width="104.999" height="104.999" rx="52.5" stroke="none"/>
          <rect x="0.5" y="0.5" width="103.999" height="103.999" rx="52" fill="none"/>
        </g>
      </g>
    </g>
    <g id="graphic-design_525578_1_" data-name="graphic-design_525578 (1)" transform="translate(924.382 10756.202)">
      <path id="Trazado_900510" data-name="Trazado 900510" d="M203.845,345.647H185.711l2.717-15.155h12.7Z" transform="translate(-161.686 -270.349)" fill="#aeafb0"/>
      <g id="Grupo_1212403" data-name="Grupo 1212403" transform="translate(25.559 60.143)" opacity="0.2">
        <path id="Trazado_900511" data-name="Trazado 900511" d="M211.266,330.492h-12.7l-.994,5.545H212.26Z" transform="translate(-197.572 -330.492)"/>
      </g>
      <path id="Trazado_900512" data-name="Trazado 900512" d="M71,68.606H9.492a1.341,1.341,0,0,1-1.337-1.337V29.059a1.341,1.341,0,0,1,1.337-1.337H71a1.341,1.341,0,0,1,1.337,1.337v38.21A1.341,1.341,0,0,1,71,68.606Z" transform="translate(-7.1 -6.747)" fill="#fff"/>
      <g id="Grupo_1212404" data-name="Grupo 1212404" transform="translate(1.029 20.975)">
        <path id="Trazado_900513" data-name="Trazado 900513" d="M7.952,289.64V295.3a1.341,1.341,0,0,0,1.337,1.337h61.5A1.341,1.341,0,0,0,72.13,295.3V289.64Z" transform="translate(-7.952 -255.757)" fill="#727171"/>
        <path id="Trazado_900514" data-name="Trazado 900514" d="M72.131,29.059a1.341,1.341,0,0,0-1.337-1.337H9.29a1.341,1.341,0,0,0-1.337,1.337v5H72.131Z" transform="translate(-7.953 -27.722)" fill="#727171"/>
      </g>
      <rect id="Rectángulo_408894" data-name="Rectángulo 408894" width="9.567" height="14.619" transform="translate(50.339 33.814)" fill="#ffdb4c"/>
      <path id="Trazado_900515" data-name="Trazado 900515" d="M79.516,190.116l1.521-1.011a.668.668,0,0,0,.188-.924l-.363-.552a.668.668,0,0,1,.5-1.033l3.936-.347a.668.668,0,0,1,.726.707l-.27,4.342a.668.668,0,0,1-1.126.444l-.215-.2a.668.668,0,0,0-.917,0l-1.611,1.514a.668.668,0,0,1-.976-.065l-1.541-1.893A.668.668,0,0,1,79.516,190.116Z" transform="translate(-68.969 -144.764)" fill="#48c2e0"/>
      <path id="Trazado_900516" data-name="Trazado 900516" d="M71,452.382H9.492a1.337,1.337,0,0,1-1.337-1.337V448.98a1.337,1.337,0,0,1,1.337-1.337H71a1.337,1.337,0,0,1,1.337,1.337v2.066A1.337,1.337,0,0,1,71,452.382Z" transform="translate(-7.1 -372.345)" fill="#332e2f"/>
      <g id="Grupo_1212405" data-name="Grupo 1212405" transform="translate(25.295 33.315)">
        <path id="Trazado_900517" data-name="Trazado 900517" d="M198.893,127.14H196.2a.669.669,0,0,1-.668-.668v-2.692a.669.669,0,0,1,.668-.668h2.692a.669.669,0,0,1,.668.668v2.692A.669.669,0,0,1,198.893,127.14Z" transform="translate(-195.533 -123.111)" fill="#48c2e0"/>
        <path id="Trazado_900518" data-name="Trazado 900518" d="M198.893,212.864H196.2a.669.669,0,0,1-.668-.668V209.5a.669.669,0,0,1,.668-.668h2.692a.669.669,0,0,1,.668.668V212.2A.669.669,0,0,1,198.893,212.864Z" transform="translate(-195.533 -197.745)" fill="#48c2e0"/>
        <path id="Trazado_900519" data-name="Trazado 900519" d="M286.449,127.14h-2.692a.669.669,0,0,1-.668-.668v-2.692a.669.669,0,0,1,.668-.668h2.692a.669.669,0,0,1,.668.668v2.692A.668.668,0,0,1,286.449,127.14Z" transform="translate(-271.762 -123.111)" fill="#48c2e0"/>
        <path id="Trazado_900520" data-name="Trazado 900520" d="M286.449,212.864h-2.692a.669.669,0,0,1-.668-.668V209.5a.669.669,0,0,1,.668-.668h2.692a.669.669,0,0,1,.668.668V212.2A.668.668,0,0,1,286.449,212.864Z" transform="translate(-271.762 -197.745)" fill="#48c2e0"/>
      </g>
      <path id="Trazado_900521" data-name="Trazado 900521" d="M63.9,19.972H2.392A2.342,2.342,0,0,0,.052,22.311V27a.992.992,0,0,0,0,.636V47.31a1,1,0,1,0,2.005,0V28.317H64.23V53.855H2.058V52.432a1,1,0,1,0-2.005,0v8.09a2.342,2.342,0,0,0,2.339,2.339H25.235L23.186,74.3H2.392A2.342,2.342,0,0,0,.052,76.635V78.7A2.342,2.342,0,0,0,2.392,81.04H63.9A2.342,2.342,0,0,0,66.235,78.7V76.635A2.342,2.342,0,0,0,63.9,74.3H43l-2.05-11.435H51.716a1,1,0,1,0,0-2.005H2.392a.339.339,0,0,1-.334-.334V55.86H64.23v4.661a.339.339,0,0,1-.334.334H56.6a1,1,0,1,0,0,2.005H63.9a2.342,2.342,0,0,0,2.339-2.339V22.311A2.342,2.342,0,0,0,63.9,19.972Zm.334,56.663V78.7a.334.334,0,0,1-.334.334H2.392a.334.334,0,0,1-.334-.334V76.635a.334.334,0,0,1,.334-.334H63.9A.334.334,0,0,1,64.23,76.635ZM38.91,62.861,40.96,74.3H25.223l2.05-11.435ZM2.058,26.312v-4a.339.339,0,0,1,.334-.334H63.9a.339.339,0,0,1,.334.334v4Z" transform="translate(0)"/>
      <path id="Trazado_900522" data-name="Trazado 900522" d="M188.786,126.451a1,1,0,0,0-1,1v4.028a1,1,0,0,0,1,1h4.028a1,1,0,0,0,1-1v-1.011h5.293v1.011a1,1,0,0,0,1,1h4.028a1,1,0,0,0,1-1v-4.028a1,1,0,0,0-1-1h-1.012v-5.056h1.012a1,1,0,0,0,1-1v-4.029a1,1,0,0,0-1-1h-4.028a1,1,0,0,0-1,1v1.012h-5.293v-1.012a1,1,0,0,0-1-1h-4.028a1,1,0,0,0-1,1v4.029a1,1,0,0,0,1,1H189.8v5.056Zm3.026,4.028h-2.023v-2.023h2.023Zm11.327,0h-2.023v-2.023h2.023Zm-2.023-13.113h2.023v2.023h-2.023Zm-11.327,0h2.023v2.023h-2.023Zm2.014,4.029h1.012a1,1,0,0,0,1-1V119.38h5.293v1.012a1,1,0,0,0,1,1h1.012v5.056h-1.012a1,1,0,0,0-1,1v1.012h-5.293v-1.012a1,1,0,0,0-1-1H191.8Z" transform="translate(-163.49 -83.049)"/>
      <path id="Trazado_900523" data-name="Trazado 900523" d="M391.947,135.843a1,1,0,0,0,1-1V120.222a1,1,0,0,0-1-1h-9.567a1,1,0,0,0-1,1v14.619a1,1,0,0,0,1,1Zm-1-14.619v12.614h-7.562v-2.455h5.262a1,1,0,1,0,0-2.005h-5.262v-2.99h5.262a1,1,0,1,0,0-2.005h-5.262v-3.159Z" transform="translate(-332.041 -86.408)"/>
      <path id="Trazado_900524" data-name="Trazado 900524" d="M69.045,183.183a1,1,0,0,0,.214.783l2.459,3.02a1,1,0,0,0,.7.366c.028,0,.055,0,.082,0a1,1,0,0,0,.663-.251l1.987-1.755.964.911a1,1,0,0,0,1.689-.666l.407-6.543a1,1,0,0,0-1.089-1.061l-5.825.514a1,1,0,0,0-.749,1.55l.8,1.209L69.481,182.5A1,1,0,0,0,69.045,183.183ZM73.562,181l-.421-.64,2.992-.264-.2,3.242-.073-.069a1,1,0,0,0-1.352-.023l-1.892,1.67-1.1-1.354,1.768-1.175A1,1,0,0,0,73.562,181Z" transform="translate(-60.103 -137.574)"/>
    </g>
  </g>
</svg>
