<svg xmlns="http://www.w3.org/2000/svg" xmlns:xlink="http://www.w3.org/1999/xlink" width="118" height="118" viewBox="0 0 118 118">
  <defs>
    <filter id="Trazado_896985" x="0" y="0" width="118" height="118" filterUnits="userSpaceOnUse">
      <feOffset dy="3" input="SourceAlpha"/>
      <feGaussianBlur stdDeviation="3" result="blur"/>
      <feFlood flood-opacity="0.161"/>
      <feComposite operator="in" in2="blur"/>
      <feComposite in="SourceGraphic"/>
    </filter>
  </defs>
  <g id="Grupo_1213047" data-name="Grupo 1213047" transform="translate(-1036.967 -9155.27)">
    <g id="Grupo_1212202" data-name="Grupo 1212202" transform="translate(0.076 -8771.73)">
      <g id="Grupo_1200070" data-name="Grupo 1200070" transform="translate(-0.949 13648.111)">
        <g id="Grupo_1198726" data-name="Grupo 1198726" transform="translate(0.95 -182.434)">
          <g id="Grupo_1198141" data-name="Grupo 1198141" transform="translate(711 615.322)">
            <g id="Grupo_1111318" data-name="Grupo 1111318" transform="translate(334.891 3852)">
              <g id="Grupo_1109826" data-name="Grupo 1109826" transform="translate(0)">
                <g id="Grupo_1098742" data-name="Grupo 1098742" transform="translate(0 0)">
                  <g transform="matrix(1, 0, 0, 1, -9, -6)" filter="url(#Trazado_896985)">
                    <g id="Trazado_896985-2" data-name="Trazado 896985" transform="translate(9 6)" fill="#d0c110" opacity="0.859">
                      <path d="M 49.99993515014648 99.5 C 43.31726837158203 99.5 36.83476257324219 98.19129943847656 30.73248100280762 95.61025238037109 C 24.83812141418457 93.11714172363281 19.54434776306152 89.54795837402344 14.99820137023926 85.00179290771484 C 10.45204162597656 80.45565032958984 6.88285493850708 75.16187286376953 4.389748573303223 69.26751708984375 C 1.808695197105408 63.16523742675781 0.5000017881393433 56.6827278137207 0.5000017881393433 50.00006103515625 C 0.5000017881393433 43.31726455688477 1.808695197105408 36.83475494384766 4.389748573303223 30.73247528076172 C 6.88285493850708 24.83811569213867 10.45204162597656 19.54434204101562 14.99820137023926 14.99819660186768 C 19.54434776306152 10.45203590393066 24.83812141418457 6.88284969329834 30.73248100280762 4.389742851257324 C 36.83476257324219 1.808689475059509 43.31726837158203 0.4999961853027344 49.99993515014648 0.4999961853027344 C 56.68260192871094 0.4999961853027344 63.16510772705078 1.808689475059509 69.26738739013672 4.389742851257324 C 75.16175079345703 6.88284969329834 80.45552062988281 10.45203590393066 85.00167083740234 14.99819660186768 C 89.54782867431641 19.54434204101562 93.11701202392578 24.83811569213867 95.61012268066406 30.73247528076172 C 98.19117736816406 36.83475494384766 99.49987030029297 43.31726455688477 99.49987030029297 49.99993133544922 C 99.49987030029297 56.6827278137207 98.19117736816406 63.16523742675781 95.61012268066406 69.26751708984375 C 93.11701202392578 75.16187286376953 89.54782867431641 80.45565032958984 85.00167083740234 85.00179290771484 C 80.45552062988281 89.54795837402344 75.16175079345703 93.11714172363281 69.26738739013672 95.61025238037109 C 63.16510772705078 98.19129943847656 56.68260192871094 99.5 49.99993515014648 99.5 Z" stroke="none"/>
                      <path d="M 49.99993515014648 0.9999923706054688 C 43.38454818725586 0.9999923706054688 36.96757507324219 2.29541015625 30.92725372314453 4.850250244140625 C 25.09249877929688 7.318145751953125 19.85213470458984 10.85135650634766 15.35174560546875 15.35174560546875 C 10.85136413574219 19.85212707519531 7.318145751953125 25.09249114990234 4.850257873535156 30.92724609375 C 2.295417785644531 36.96757125854492 1 43.38454437255859 1 50.00006103515625 C 1 56.61544799804688 2.295417785644531 63.03242111206055 4.850257873535156 69.07273864746094 C 7.318145751953125 74.90750122070312 10.85136413574219 80.14786529541016 15.35174560546875 84.64824676513672 C 19.85213470458984 89.14863586425781 25.09249877929688 92.68184661865234 30.92725372314453 95.14974212646484 C 36.96757507324219 97.70458221435547 43.38454818725586 99 49.99993515014648 99 C 56.61532211303711 99 63.03229522705078 97.70458221435547 69.07261657714844 95.14974212646484 C 74.90737915039062 92.68184661865234 80.14773559570312 89.14863586425781 84.64812469482422 84.64824676513672 C 89.14850616455078 80.14786529541016 92.68172454833984 74.90750122070312 95.14961242675781 69.07273864746094 C 97.70445251464844 63.03242111206055 98.99987030029297 56.61544799804688 98.99987030029297 49.99993133544922 C 98.99987030029297 43.38454437255859 97.70445251464844 36.96757125854492 95.14961242675781 30.92724609375 C 92.68172454833984 25.09249114990234 89.14850616455078 19.85212707519531 84.64812469482422 15.35174560546875 C 80.14773559570312 10.85135650634766 74.90737915039062 7.318145751953125 69.07261657714844 4.850250244140625 C 63.03229522705078 2.29541015625 56.61532211303711 0.9999923706054688 49.99993515014648 0.9999923706054688 M 49.99993515014648 -7.62939453125e-06 C 77.6141357421875 -7.62939453125e-06 99.99987030029297 22.38572692871094 99.99987030029297 49.99993133544922 L 99.99987030029297 50.00006103515625 C 99.99987030029297 77.61426544189453 77.6141357421875 100 49.99993515014648 100 C 22.38573455810547 100 0 77.61426544189453 0 50.00006103515625 L 0 49.99993133544922 C 0 22.38572692871094 22.38573455810547 -7.62939453125e-06 49.99993515014648 -7.62939453125e-06 Z" stroke="none" fill="#fff"/>
                    </g>
                  </g>
                  <g id="Rectángulo_400907" data-name="Rectángulo 400907" transform="translate(0)" fill="none" stroke="#fff" stroke-width="1">
                    <rect width="100" height="100" rx="50" stroke="none"/>
                    <rect x="0.5" y="0.5" width="99" height="99" rx="49.5" fill="none"/>
                  </g>
                </g>
              </g>
            </g>
          </g>
        </g>
      </g>
    </g>
    <g id="wallet_1669522" transform="translate(1067.598 9186.989)">
      <path id="Trazado_901702" data-name="Trazado 901702" d="M51.011,156.413v7.321h7.321V173.8a1.83,1.83,0,0,1-1.83,1.83H8V144.516H56.5a1.83,1.83,0,0,1,1.83,1.83v10.066Zm0,0" transform="translate(-7.085 -127.985)" fill="#9b8579"/>
      <path id="Trazado_901703" data-name="Trazado 901703" d="M391.321,255.837H384v-7.321h7.321" transform="translate(-340.074 -220.088)" fill="#d8d7da"/>
      <path id="Trazado_901704" data-name="Trazado 901704" d="M449.83,273.431a.915.915,0,1,1-.915-.915A.915.915,0,0,1,449.83,273.431Zm0,0" transform="translate(-396.753 -241.343)" fill="#d8d7da"/>
      <path id="Trazado_901705" data-name="Trazado 901705" d="M8,23.585,45.978,8.232a3.66,3.66,0,0,1,5.033,3.394V23.585Zm0,0" transform="translate(-7.085 -7.054)" fill="#754c29"/>
      <path id="Trazado_901706" data-name="Trazado 901706" d="M8,184.516H53.757v21.963H8Zm0,0" transform="translate(-7.085 -163.409)" fill="#603913"/>
      <path id="Trazado_901707" data-name="Trazado 901707" d="M395.9,250.346v3.661a1.83,1.83,0,0,1-1.83,1.83H384v-7.321h10.066A1.83,1.83,0,0,1,395.9,250.346Zm0,0" transform="translate(-340.074 -220.088)" fill="#cca400"/>
      <g id="Grupo_1212719" data-name="Grupo 1212719" transform="translate(0 0)">
        <path id="Trazado_901708" data-name="Trazado 901708" d="M53.993,27.513h-1.83V18.361a2.746,2.746,0,0,0-2.745-2.745H44.841V4.572A4.576,4.576,0,0,0,38.551.333L.572,15.683H.565a.648.648,0,0,0-.067.042.9.9,0,0,0-.212.143,1,1,0,0,0-.071.092.908.908,0,0,0-.121.183.791.791,0,0,0-.04.119.832.832,0,0,0-.042.209c0,.022-.013.041-.013.063V47.646a.915.915,0,0,0,.915.915h48.5a2.746,2.746,0,0,0,2.745-2.745V36.664h1.83a2.746,2.746,0,0,0,2.745-2.745V30.258a2.746,2.746,0,0,0-2.745-2.745Zm-3.661-9.151v9.151H47.587V21.107a.915.915,0,0,0-.915-.915H1.83V17.446H49.417A.915.915,0,0,1,50.332,18.361Zm-6.406,9.151a.915.915,0,0,0-.915.915v7.321a.915.915,0,0,0,.915.915h1.83v5.491H1.83V22.022H45.757v5.491ZM39.237,2.026a2.745,2.745,0,0,1,3.774,2.546V15.616H5.621Zm11.1,43.789a.915.915,0,0,1-.915.915H1.83V43.985H46.672a.915.915,0,0,0,.915-.915V36.664h2.745Zm4.576-11.9a.915.915,0,0,1-.915.915H44.841V29.343h9.151a.915.915,0,0,1,.915.915Zm0,0" transform="translate(0 0)" fill="#231f20"/>
        <path id="Trazado_901709" data-name="Trazado 901709" d="M443.661,266.346a1.83,1.83,0,1,1-1.83-1.83A1.83,1.83,0,0,1,443.661,266.346Zm0,0" transform="translate(-389.668 -234.257)" fill="#231f20"/>
        <path id="Trazado_901710" data-name="Trazado 901710" d="M42.066,216.516H32.915a.915.915,0,0,0,0,1.83h9.151a.915.915,0,1,0,0-1.83Zm0,0" transform="translate(-28.339 -191.748)" fill="#231f20"/>
        <path id="Trazado_901711" data-name="Trazado 901711" d="M138.745,216.516h-1.83a.915.915,0,0,0,0,1.83h1.83a.915.915,0,0,0,0-1.83Zm0,0" transform="translate(-120.443 -191.748)" fill="#231f20"/>
      </g>
      <g id="export_6995395" transform="translate(7.424)">
        <path id="Trazado_901712" data-name="Trazado 901712" d="M34.517,3.9V6.782A14.686,14.686,0,0,1,36.092,6.7,15.008,15.008,0,0,1,48.246,30.512a15.014,15.014,0,0,0-13.729-16.2v3.272l-13.69-6.84Z" transform="translate(-20.073 -3.145)" fill="#ef4538"/>
        <path id="Trazado_901714" data-name="Trazado 901714" d="M20.244,9.824l13.69-6.845a.754.754,0,0,1,1.091.674V5.72c.272-.014.548-.021.822-.021A15.761,15.761,0,0,1,48.611,30.707.754.754,0,0,1,47.25,30.2,14.273,14.273,0,0,0,35.024,14.9v2.437a.754.754,0,0,1-1.091.674l-13.69-6.84a.754.754,0,0,1,0-1.348Zm13.274,6.294V14.065a.755.755,0,0,1,.241-.552.737.737,0,0,1,.569-.2A15.8,15.8,0,0,1,48.749,27.526a14.256,14.256,0,0,0-14.4-20.241.754.754,0,0,1-.834-.749V4.872L22.266,10.5Z" transform="translate(-19.827 -2.899)"/>
      </g>
    </g>
  </g>
</svg>
