<svg xmlns="http://www.w3.org/2000/svg" width="105" height="104.999" viewBox="0 0 105 104.999">
  <g id="Grupo_1212402" data-name="Grupo 1212402" transform="translate(-590.051 -10752.208)">
    <g id="Grupo_1198248" data-name="Grupo 1198248" transform="translate(590.051 10752.208)">
      <g id="Grupo_1098742" data-name="Grupo 1098742" transform="translate(0)">
        <g id="Rect치ngulo_400898" data-name="Rect치ngulo 400898" transform="translate(0.001 0)" fill="#eabe94" stroke="#ae967f" stroke-width="1">
          <rect width="104.999" height="104.999" rx="52.5" stroke="none"/>
          <rect x="0.5" y="0.5" width="103.999" height="103.999" rx="52" fill="none"/>
        </g>
        <g id="Rect치ngulo_400907" data-name="Rect치ngulo 400907" transform="translate(0 0)" fill="none" stroke="#ae967f" stroke-width="1">
          <rect width="104.999" height="104.999" rx="52.5" stroke="none"/>
          <rect x="0.5" y="0.5" width="103.999" height="103.999" rx="52" fill="none"/>
        </g>
      </g>
    </g>
    <g id="graphic-design_2557469" transform="translate(611.051 10776)">
      <g id="Grupo_1212363" data-name="Grupo 1212363">
        <path id="Trazado_900471" data-name="Trazado 900471" d="M59,46H5a3,3,0,0,1-3-3V5A3,3,0,0,1,5,2H59a3,3,0,0,1,3,3V43A3,3,0,0,1,59,46Z" fill="#8892a0"/>
      </g>
      <g id="Grupo_1212364" data-name="Grupo 1212364">
        <path id="Trazado_900472" data-name="Trazado 900472" d="M6,6H58V38H6Z" fill="#b9e4f9"/>
      </g>
      <g id="Grupo_1212365" data-name="Grupo 1212365">
        <path id="Trazado_900473" data-name="Trazado 900473" d="M6,6V33.6a45.323,45.323,0,0,0,6,.4C31.377,34,47.355,21.784,49.694,6Z" fill="#e3f4fd"/>
      </g>
      <g id="Grupo_1212366" data-name="Grupo 1212366">
        <path id="Trazado_900474" data-name="Trazado 900474" d="M10,10h4v4H10Z" fill="#f7d881"/>
      </g>
      <g id="Grupo_1212367" data-name="Grupo 1212367">
        <path id="Trazado_900475" data-name="Trazado 900475" d="M30,10h4v4H30Z" fill="#f7d881"/>
      </g>
      <g id="Grupo_1212368" data-name="Grupo 1212368">
        <path id="Trazado_900476" data-name="Trazado 900476" d="M10,30h4v4H10Z" fill="#f7d881"/>
      </g>
      <g id="Grupo_1212369" data-name="Grupo 1212369">
        <path id="Trazado_900477" data-name="Trazado 900477" d="M30,30h4v4H30Z" fill="#f7d881"/>
      </g>
      <g id="Grupo_1212370" data-name="Grupo 1212370">
        <path id="Trazado_900478" data-name="Trazado 900478" d="M17,17V27H27Z" fill="#f7d881"/>
      </g>
      <g id="Grupo_1212371" data-name="Grupo 1212371">
        <path id="Trazado_900479" data-name="Trazado 900479" d="M40,19H50V29H40Z" fill="#e0747c"/>
      </g>
      <g id="Grupo_1212372" data-name="Grupo 1212372">
        <path id="Trazado_900480" data-name="Trazado 900480" d="M40,26.877A15.352,15.352,0,0,0,48.9,19H40Z" fill="#ecacb0"/>
      </g>
      <g id="Grupo_1212373" data-name="Grupo 1212373">
        <path id="Trazado_900481" data-name="Trazado 900481" d="M44,15v4h6v6h4V15Z" fill="#a8575d"/>
      </g>
      <g id="Grupo_1212374" data-name="Grupo 1212374">
        <path id="Trazado_900482" data-name="Trazado 900482" d="M45,62H19V59a3,3,0,0,1,3-3H42a3,3,0,0,1,3,3Z" fill="#8892a0"/>
      </g>
      <g id="Grupo_1212375" data-name="Grupo 1212375">
        <path id="Trazado_900483" data-name="Trazado 900483" d="M25,46H39V56H25Z" fill="#8892a0"/>
      </g>
      <g id="Grupo_1212376" data-name="Grupo 1212376">
        <path id="Trazado_900484" data-name="Trazado 900484" d="M59,47H5a4,4,0,0,1-4-4V5A4,4,0,0,1,5,1H59a4,4,0,0,1,4,4V43A4,4,0,0,1,59,47ZM5,3A2,2,0,0,0,3,5V43a2,2,0,0,0,2,2H59a2,2,0,0,0,2-2V5a2,2,0,0,0-2-2Z"/>
      </g>
      <g id="Grupo_1212377" data-name="Grupo 1212377">
        <path id="Trazado_900485" data-name="Trazado 900485" d="M45,63H19a1,1,0,0,1-1-1V59a4,4,0,0,1,4-4H42a4,4,0,0,1,4,4v3A1,1,0,0,1,45,63ZM20,61H44V59a2,2,0,0,0-2-2H22a2,2,0,0,0-2,2Z"/>
      </g>
      <g id="Grupo_1212378" data-name="Grupo 1212378">
        <path id="Trazado_900486" data-name="Trazado 900486" d="M24,46h2V56H24Z"/>
      </g>
      <g id="Grupo_1212379" data-name="Grupo 1212379">
        <path id="Trazado_900487" data-name="Trazado 900487" d="M38,46h2V56H38Z"/>
      </g>
      <g id="Grupo_1212380" data-name="Grupo 1212380">
        <path id="Trazado_900488" data-name="Trazado 900488" d="M58,39H6a1,1,0,0,1-1-1V6A1,1,0,0,1,6,5H58a1,1,0,0,1,1,1V38A1,1,0,0,1,58,39ZM7,37H57V7H7Z"/>
      </g>
      <g id="Grupo_1212381" data-name="Grupo 1212381">
        <path id="Trazado_900489" data-name="Trazado 900489" d="M57,41h2v2H57Z"/>
      </g>
      <g id="Grupo_1212382" data-name="Grupo 1212382">
        <path id="Trazado_900490" data-name="Trazado 900490" d="M53,41h2v2H53Z"/>
      </g>
      <g id="Grupo_1212383" data-name="Grupo 1212383">
        <path id="Trazado_900491" data-name="Trazado 900491" d="M14,15H10a1,1,0,0,1-1-1V10a1,1,0,0,1,1-1h4a1,1,0,0,1,1,1v4A1,1,0,0,1,14,15Zm-3-2h2V11H11Z"/>
      </g>
      <g id="Grupo_1212384" data-name="Grupo 1212384">
        <path id="Trazado_900492" data-name="Trazado 900492" d="M34,15H30a1,1,0,0,1-1-1V10a1,1,0,0,1,1-1h4a1,1,0,0,1,1,1v4A1,1,0,0,1,34,15Zm-3-2h2V11H31Z"/>
      </g>
      <g id="Grupo_1212385" data-name="Grupo 1212385">
        <path id="Trazado_900493" data-name="Trazado 900493" d="M14,35H10a1,1,0,0,1-1-1V30a1,1,0,0,1,1-1h4a1,1,0,0,1,1,1v4A1,1,0,0,1,14,35Zm-3-2h2V31H11Z"/>
      </g>
      <g id="Grupo_1212386" data-name="Grupo 1212386">
        <path id="Trazado_900494" data-name="Trazado 900494" d="M34,35H30a1,1,0,0,1-1-1V30a1,1,0,0,1,1-1h4a1,1,0,0,1,1,1v4A1,1,0,0,1,34,35Zm-3-2h2V31H31Z"/>
      </g>
      <g id="Grupo_1212387" data-name="Grupo 1212387">
        <path id="Trazado_900495" data-name="Trazado 900495" d="M11,17h2v2H11Z"/>
      </g>
      <g id="Grupo_1212388" data-name="Grupo 1212388">
        <path id="Trazado_900496" data-name="Trazado 900496" d="M11,21h2v2H11Z"/>
      </g>
      <g id="Grupo_1212389" data-name="Grupo 1212389">
        <path id="Trazado_900497" data-name="Trazado 900497" d="M11,25h2v2H11Z"/>
      </g>
      <g id="Grupo_1212390" data-name="Grupo 1212390">
        <path id="Trazado_900498" data-name="Trazado 900498" d="M31,17h2v2H31Z"/>
      </g>
      <g id="Grupo_1212391" data-name="Grupo 1212391">
        <path id="Trazado_900499" data-name="Trazado 900499" d="M31,21h2v2H31Z"/>
      </g>
      <g id="Grupo_1212392" data-name="Grupo 1212392">
        <path id="Trazado_900500" data-name="Trazado 900500" d="M31,25h2v2H31Z"/>
      </g>
      <g id="Grupo_1212393" data-name="Grupo 1212393">
        <path id="Trazado_900501" data-name="Trazado 900501" d="M17,11h2v2H17Z"/>
      </g>
      <g id="Grupo_1212394" data-name="Grupo 1212394">
        <path id="Trazado_900502" data-name="Trazado 900502" d="M21,11h2v2H21Z"/>
      </g>
      <g id="Grupo_1212395" data-name="Grupo 1212395">
        <path id="Trazado_900503" data-name="Trazado 900503" d="M25,11h2v2H25Z"/>
      </g>
      <g id="Grupo_1212396" data-name="Grupo 1212396">
        <path id="Trazado_900504" data-name="Trazado 900504" d="M17,31h2v2H17Z"/>
      </g>
      <g id="Grupo_1212397" data-name="Grupo 1212397">
        <path id="Trazado_900505" data-name="Trazado 900505" d="M21,31h2v2H21Z"/>
      </g>
      <g id="Grupo_1212398" data-name="Grupo 1212398">
        <path id="Trazado_900506" data-name="Trazado 900506" d="M25,31h2v2H25Z"/>
      </g>
      <g id="Grupo_1212399" data-name="Grupo 1212399">
        <path id="Trazado_900507" data-name="Trazado 900507" d="M27,28H17a1,1,0,0,1-1-1V17a1,1,0,0,1,1.707-.707l10,10A1,1,0,0,1,27,28Zm-9-2h6.586L18,19.414Z"/>
      </g>
      <g id="Grupo_1212400" data-name="Grupo 1212400">
        <path id="Trazado_900508" data-name="Trazado 900508" d="M50,30H40a1,1,0,0,1-1-1V19a1,1,0,0,1,1-1H50a1,1,0,0,1,1,1V29A1,1,0,0,1,50,30Zm-9-2h8V20H41Z"/>
      </g>
      <g id="Grupo_1212401" data-name="Grupo 1212401">
        <path id="Trazado_900509" data-name="Trazado 900509" d="M54,26H50V24h3V16H45v3H43V15a1,1,0,0,1,1-1H54a1,1,0,0,1,1,1V25A1,1,0,0,1,54,26Z"/>
      </g>
    </g>
  </g>
</svg>
