<svg xmlns="http://www.w3.org/2000/svg" width="100" height="99.999" viewBox="0 0 100 99.999">
  <g id="Grupo_1212424" data-name="Grupo 1212424" transform="translate(6509 -1471.148)">
    <g id="Rectángulo_408690" data-name="Rectángulo 408690" transform="translate(-6509 1471.148)" fill="#6ab4a8" stroke="#497d74" stroke-width="2">
      <rect width="100" height="99.999" rx="50" stroke="none"/>
      <rect x="1" y="1" width="98" height="97.999" rx="49" fill="none"/>
    </g>
    <g id="tracing-wheel_7242218" transform="translate(-6488.596 1489.404)">
      <g id="Grupo_1212422" data-name="Grupo 1212422" transform="translate(0.955 0.955)">
        <g id="Grupo_1212415" data-name="Grupo 1212415" transform="translate(0 53.463)">
          <path id="Trazado_900560" data-name="Trazado 900560" d="M8,456H65.282v3.819H8Z" transform="translate(-8 -456)" fill="#dfb28b"/>
        </g>
        <g id="Grupo_1212416" data-name="Grupo 1212416" transform="translate(0 24.822)">
          <path id="Trazado_900561" data-name="Trazado 900561" d="M8,216H65.282v28.641H8Z" transform="translate(-8 -216)" fill="#ecc19c"/>
        </g>
        <g id="Grupo_1212417" data-name="Grupo 1212417" transform="translate(29.362)">
          <path id="Trazado_900562" data-name="Trazado 900562" d="M281.96,13.346a5.344,5.344,0,0,1-2.88,4.744l-17.415,9.053a3.821,3.821,0,0,1-2.829.278l-1.122-.327-3.674-6.7.278-.954a3.819,3.819,0,0,1,2.017-2.376l17.848-8.545A5.348,5.348,0,0,1,276.491,8h.123a5.347,5.347,0,0,1,5.346,5.346Z" transform="translate(-254.04 -8)" fill="#5cd6b3"/>
        </g>
        <g id="Grupo_1212418" data-name="Grupo 1212418" transform="translate(24.34 12.398)">
          <path id="Trazado_900563" data-name="Trazado 900563" d="M216.982,111.89l3.674,6.7-5.022,2.755-.681-1.241-2.267-4.133-.726-1.322Z" transform="translate(-211.96 -111.89)" fill="#aab2bd"/>
        </g>
        <g id="Grupo_1212419" data-name="Grupo 1212419" transform="translate(4.774 16.476)">
          <path id="Trazado_900564" data-name="Trazado 900564" d="M68.292,146.06l2.267,4.133L61.6,154.406l-.6.283a6,6,0,0,0-2.183,1.747h0a6.015,6.015,0,0,0-1.271,3.7A2.865,2.865,0,0,0,54.683,163l-3.371-2.408-2.275-1.624a2.477,2.477,0,0,1,.408-4.268l.637-.292Z" transform="translate(-48 -146.06)" fill="#ccd1d9"/>
        </g>
        <g id="Grupo_1212420" data-name="Grupo 1212420" transform="translate(7.638 26.852)">
          <path id="Trazado_900565" data-name="Trazado 900565" d="M84.859,237.015a6.683,6.683,0,1,1-12.411.149l3.371,2.408a2.864,2.864,0,1,0,2.864-2.864,6.015,6.015,0,0,1,1.271-3.7h0A6.693,6.693,0,0,1,84.859,237.015Z" transform="translate(-72 -233.01)" fill="#fcd770"/>
        </g>
        <g id="Grupo_1212421" data-name="Grupo 1212421" transform="translate(11.103 30.833)">
          <ellipse id="Elipse_11673" data-name="Elipse 11673" cx="3.5" cy="3" rx="3.5" ry="3" transform="translate(-0.461 -0.192)" fill="#ffeaa7"/>
        </g>
      </g>
      <g id="Grupo_1212423" data-name="Grupo 1212423" transform="translate(0 0)">
        <path id="Trazado_900566" data-name="Trazado 900566" d="M27.882,22.809l.709,1.292L34.1,21.076l.742.216a4.753,4.753,0,0,0,3.537-.348L55.8,11.891A6.3,6.3,0,0,0,52.891,0h-.123a6.34,6.34,0,0,0-2.721.618L32.2,9.162a4.78,4.78,0,0,0-2.522,2.97l-.167.574L24,15.73l.691,1.26L7.6,24.822H0V59.191H59.191V24.822H23.6Zm5.142-11.924L50.871,2.34a4.419,4.419,0,0,1,1.9-.431h.123A4.391,4.391,0,0,1,54.916,10.2L37.5,19.251a2.852,2.852,0,0,1-2.123.208l-.742-.216-3.293-6,.167-.574a2.868,2.868,0,0,1,1.513-1.782Zm-3.085,3.765,2.755,5.022-3.348,1.837-2.755-5.022Zm-2.977,6.483L18.324,25.2a7,7,0,0,0-3.95,5.462,3.834,3.834,0,0,0-2.563,2.108L7.32,29.56a1.522,1.522,0,0,1,.25-2.622l18.04-8.268ZM15.275,40.1A5.73,5.73,0,0,1,9.607,33.54l1.885,1.347a3.818,3.818,0,1,0,4.807-4.2,5.079,5.079,0,0,1,.663-1.8,5.729,5.729,0,0,1-1.687,11.2Zm0-7.638a1.909,1.909,0,1,1-1.909,1.909A1.912,1.912,0,0,1,15.275,32.46ZM1.909,57.282V55.373H57.282v1.909Zm55.373-30.55V53.463H1.909V26.732H5.167a3.423,3.423,0,0,0,1.043,4.382l1.7,1.217A7.564,7.564,0,0,0,7.7,33.415H3.819v1.909H7.7a7.591,7.591,0,0,0,.211,1.063L4.325,37.871l.731,1.764L8.643,38.15a7.652,7.652,0,0,0,.6.9L6.5,41.8l1.35,1.35L10.6,40.4a7.67,7.67,0,0,0,.9.6l-1.486,3.587,1.764.731,1.485-3.585a7.585,7.585,0,0,0,1.063.211v3.881H16.23V41.945a7.588,7.588,0,0,0,1.063-.211l1.485,3.585,1.764-.731L19.056,41a7.665,7.665,0,0,0,.9-.6L22.7,43.145l1.35-1.35L21.3,39.049a7.652,7.652,0,0,0,.6-.9l3.587,1.486.731-1.764L22.64,36.387a7.587,7.587,0,0,0,.211-1.063h3.881V33.415h-3.88a7.615,7.615,0,0,0-.211-1.063l3.584-1.484L25.494,29.1l-3.585,1.485a7.653,7.653,0,0,0-3.547-3.206,5,5,0,0,1,.775-.457l.409-.192H57.282Z" transform="translate(0 0)"/>
        <ellipse id="Elipse_11674" data-name="Elipse 11674" cx="0.5" cy="1" rx="0.5" ry="1" transform="translate(10.596 27.596)"/>
        <path id="Trazado_900567" data-name="Trazado 900567" d="M147.094,370.864a.956.956,0,0,1-.955.955H128v1.909h18.139a2.864,2.864,0,0,0,0-5.728H142.32v1.909h3.819A.956.956,0,0,1,147.094,370.864Z" transform="translate(-112.725 -324.084)"/>
        <path id="Trazado_900568" data-name="Trazado 900568" d="M309,306.864A2.867,2.867,0,0,0,306.139,304h-6.683v1.909h6.683a.955.955,0,1,1,0,1.909H288v1.909h18.139A2.867,2.867,0,0,0,309,306.864Z" transform="translate(-253.631 -267.721)"/>
        <path id="Trazado_900569" data-name="Trazado 900569" d="M32,400h1.909v1.909H32Z" transform="translate(-28.181 -352.265)"/>
        <path id="Trazado_900570" data-name="Trazado 900570" d="M96,400h1.909v1.909H96Z" transform="translate(-84.544 -352.265)"/>
        <path id="Trazado_900571" data-name="Trazado 900571" d="M64,400h1.909v1.909H64Z" transform="translate(-56.362 -352.265)"/>
        <path id="Trazado_900572" data-name="Trazado 900572" d="M334.321,384H320v1.909h14.321a.955.955,0,0,1,0,1.909h-2.864v1.909h2.864a2.864,2.864,0,0,0,0-5.728Z" transform="translate(-281.812 -338.174)"/>
      </g>
    </g>
  </g>
</svg>
