<svg xmlns="http://www.w3.org/2000/svg" xmlns:xlink="http://www.w3.org/1999/xlink" width="118" height="118" viewBox="0 0 118 118">
  <defs>
    <filter id="Trazado_896985" x="0" y="0" width="118" height="118" filterUnits="userSpaceOnUse">
      <feOffset dy="3" input="SourceAlpha"/>
      <feGaussianBlur stdDeviation="3" result="blur"/>
      <feFlood flood-opacity="0.161"/>
      <feComposite operator="in" in2="blur"/>
      <feComposite in="SourceGraphic"/>
    </filter>
  </defs>
  <g id="Grupo_1213047" data-name="Grupo 1213047" transform="translate(-830.404 -12629.66)">
    <g id="Grupo_1212263" data-name="Grupo 1212263" transform="translate(633.513 -5299.34)">
      <g id="Grupo_1200012" data-name="Grupo 1200012" transform="translate(-0.949 13650.111)">
        <g id="Grupo_1198723" data-name="Grupo 1198723" transform="translate(0.95 -182.434)">
          <g id="Grupo_1198139" data-name="Grupo 1198139" transform="translate(-129 615.322)">
            <g id="Grupo_1111318" data-name="Grupo 1111318" transform="translate(334.891 3852)">
              <g id="Grupo_1109826" data-name="Grupo 1109826" transform="translate(0)">
                <g id="Grupo_1098742" data-name="Grupo 1098742" transform="translate(0 0)">
                  <g transform="matrix(1, 0, 0, 1, -9, -6)" filter="url(#Trazado_896985)">
                    <g id="Trazado_896985-2" data-name="Trazado 896985" transform="translate(9 6)" fill="#d0c110" opacity="0.859">
                      <path d="M 49.99993515014648 99.5 C 43.31726837158203 99.5 36.83476257324219 98.19129943847656 30.73248100280762 95.61025238037109 C 24.83812141418457 93.11714172363281 19.54434776306152 89.54795837402344 14.99820137023926 85.00179290771484 C 10.45204162597656 80.45565032958984 6.88285493850708 75.16187286376953 4.389748573303223 69.26751708984375 C 1.808695197105408 63.16523742675781 0.5000017881393433 56.6827278137207 0.5000017881393433 50.00006103515625 C 0.5000017881393433 43.31726455688477 1.808695197105408 36.83475494384766 4.389748573303223 30.73247528076172 C 6.88285493850708 24.83811569213867 10.45204162597656 19.54434204101562 14.99820137023926 14.99819660186768 C 19.54434776306152 10.45203590393066 24.83812141418457 6.88284969329834 30.73248100280762 4.389742851257324 C 36.83476257324219 1.808689475059509 43.31726837158203 0.4999961853027344 49.99993515014648 0.4999961853027344 C 56.68260192871094 0.4999961853027344 63.16510772705078 1.808689475059509 69.26738739013672 4.389742851257324 C 75.16175079345703 6.88284969329834 80.45552062988281 10.45203590393066 85.00167083740234 14.99819660186768 C 89.54782867431641 19.54434204101562 93.11701202392578 24.83811569213867 95.61012268066406 30.73247528076172 C 98.19117736816406 36.83475494384766 99.49987030029297 43.31726455688477 99.49987030029297 49.99993133544922 C 99.49987030029297 56.6827278137207 98.19117736816406 63.16523742675781 95.61012268066406 69.26751708984375 C 93.11701202392578 75.16187286376953 89.54782867431641 80.45565032958984 85.00167083740234 85.00179290771484 C 80.45552062988281 89.54795837402344 75.16175079345703 93.11714172363281 69.26738739013672 95.61025238037109 C 63.16510772705078 98.19129943847656 56.68260192871094 99.5 49.99993515014648 99.5 Z" stroke="none"/>
                      <path d="M 49.99993515014648 0.9999923706054688 C 43.38454818725586 0.9999923706054688 36.96757507324219 2.29541015625 30.92725372314453 4.850250244140625 C 25.09249877929688 7.318145751953125 19.85213470458984 10.85135650634766 15.35174560546875 15.35174560546875 C 10.85136413574219 19.85212707519531 7.318145751953125 25.09249114990234 4.850257873535156 30.92724609375 C 2.295417785644531 36.96757125854492 1 43.38454437255859 1 50.00006103515625 C 1 56.61544799804688 2.295417785644531 63.03242111206055 4.850257873535156 69.07273864746094 C 7.318145751953125 74.90750122070312 10.85136413574219 80.14786529541016 15.35174560546875 84.64824676513672 C 19.85213470458984 89.14863586425781 25.09249877929688 92.68184661865234 30.92725372314453 95.14974212646484 C 36.96757507324219 97.70458221435547 43.38454818725586 99 49.99993515014648 99 C 56.61532211303711 99 63.03229522705078 97.70458221435547 69.07261657714844 95.14974212646484 C 74.90737915039062 92.68184661865234 80.14773559570312 89.14863586425781 84.64812469482422 84.64824676513672 C 89.14850616455078 80.14786529541016 92.68172454833984 74.90750122070312 95.14961242675781 69.07273864746094 C 97.70445251464844 63.03242111206055 98.99987030029297 56.61544799804688 98.99987030029297 49.99993133544922 C 98.99987030029297 43.38454437255859 97.70445251464844 36.96757125854492 95.14961242675781 30.92724609375 C 92.68172454833984 25.09249114990234 89.14850616455078 19.85212707519531 84.64812469482422 15.35174560546875 C 80.14773559570312 10.85135650634766 74.90737915039062 7.318145751953125 69.07261657714844 4.850250244140625 C 63.03229522705078 2.29541015625 56.61532211303711 0.9999923706054688 49.99993515014648 0.9999923706054688 M 49.99993515014648 -7.62939453125e-06 C 77.6141357421875 -7.62939453125e-06 99.99987030029297 22.38572692871094 99.99987030029297 49.99993133544922 L 99.99987030029297 50.00006103515625 C 99.99987030029297 77.61426544189453 77.6141357421875 100 49.99993515014648 100 C 22.38573455810547 100 0 77.61426544189453 0 50.00006103515625 L 0 49.99993133544922 C 0 22.38572692871094 22.38573455810547 -7.62939453125e-06 49.99993515014648 -7.62939453125e-06 Z" stroke="none" fill="#fff"/>
                    </g>
                  </g>
                  <g id="Rectángulo_400907" data-name="Rectángulo 400907" transform="translate(0)" fill="none" stroke="#fff" stroke-width="1">
                    <rect width="100" height="100" rx="50" stroke="none"/>
                    <rect x="0.5" y="0.5" width="99" height="99" rx="49.5" fill="none"/>
                  </g>
                </g>
              </g>
            </g>
          </g>
        </g>
      </g>
    </g>
    <g id="Page-1" transform="translate(856.486 12655.348)">
      <g id="_044---Layers" data-name="044---Layers" transform="translate(-0.012 0)">
        <path id="Shape" d="M57.044,40.348,33.959,51.94a2.214,2.214,0,0,1-1.959,0l-1.741-.871L8.915,40.348a.544.544,0,0,1,0-.98l9.034-4.539H48l9.045,4.539a.544.544,0,0,1,0,.98Z" transform="translate(-0.314 3.079)" fill="#0ab1b1"/>
        <path id="Shape-2" data-name="Shape" d="M51.6,40.348,30.258,51.069,8.915,40.348a.544.544,0,0,1,0-.98l9.034-4.539H42.557L51.6,39.369a.544.544,0,0,1,0,.98Z" transform="translate(-0.314 3.079)" fill="#0af3f4"/>
        <path id="Shape-3" data-name="Shape" d="M57.067,31,48,35.636,33.971,42.82a2.126,2.126,0,0,1-1.981,0l-1.731-.882-5.671-2.906-2.427-1.241L17.95,35.636,8.884,31a.538.538,0,0,1,0-.958c1.535-.795,4.8-2.46,8.446-4.332h31.3l8.435,4.321a.544.544,0,0,1,0,.969Z" transform="translate(-0.316 2.273)" fill="#6a1b9a"/>
        <path id="Shape-4" data-name="Shape" d="M51.625,31l-9.066,4.637-12.3,6.3-5.671-2.906-2.427-1.241L17.95,35.636,8.884,31a.538.538,0,0,1,0-.958c1.535-.795,4.8-2.46,8.446-4.332H43.19l8.435,4.321a.544.544,0,0,1,0,.969Z" transform="translate(-0.316 2.273)" fill="#9d27b0"/>
        <path id="Shape-5" data-name="Shape" d="M57.043,22.885l-23.1,11.537a2.167,2.167,0,0,1-1.937,0l-1.752-.871-6.879-3.439-2.46-1.23-12.005-6a.555.555,0,0,1,0-.98L30.257,11.239l1.752-.871a2.167,2.167,0,0,1,1.937,0l23.1,11.537a.555.555,0,0,1,0,.98Z" transform="translate(-0.313 0.896)" fill="#ad1457"/>
        <path id="Shape-6" data-name="Shape" d="M51.6,22.8,30.257,33.462l-6.879-3.439-2.46-1.23-12.005-6a.555.555,0,0,1,0-.98L30.257,11.15,51.6,21.816a.555.555,0,0,1,0,.98Z" transform="translate(-0.313 0.986)" fill="#e91e63"/>
        <path id="Shape-7" data-name="Shape" d="M33.121,36.109A1.088,1.088,0,0,1,32.635,36L7.6,23.484a1.088,1.088,0,0,1,0-1.947L32.635,9.02a1.088,1.088,0,0,1,.973,0L58.641,21.537a1.088,1.088,0,0,1,0,1.947L33.608,36A1.088,1.088,0,0,1,33.121,36.109Zm-22.6-13.6,22.6,11.3,22.6-11.3-22.6-11.3Z" transform="translate(-0.456 0.787)"/>
        <path id="Shape-8" data-name="Shape" d="M17.033,23.2a1.088,1.088,0,0,1-.488-2.061l15.3-7.649a1.088,1.088,0,1,1,.973,1.947l-15.3,7.655A1.1,1.1,0,0,1,17.033,23.2Z" transform="translate(0.334 1.182)"/>
        <path id="Shape-9" data-name="Shape" d="M17.03,31.286a1.088,1.088,0,0,1-.488-2.063l4.419-2.208a1.088,1.088,0,1,1,.973,1.947l-4.419,2.208A1.079,1.079,0,0,1,17.03,31.286Z" transform="translate(0.334 2.378)"/>
        <path id="Shape-10" data-name="Shape" d="M17.088,41.3a1.088,1.088,0,0,1-.488-2.061l5.562-2.776a1.088,1.088,0,0,1,.973,1.947l-5.561,2.782A1.094,1.094,0,0,1,17.088,41.3Z" transform="translate(0.339 3.213)"/>
        <path id="Shape-11" data-name="Shape" d="M33.122,44.508a1.088,1.088,0,0,1-.5-.12L7.592,31.579A1.088,1.088,0,0,1,7,30.609c0-.672,0-.672,2.721-2.068l7.251-3.711a1.089,1.089,0,0,1,.992,1.94L15.954,27.8c-2.144,1.1-4.125,2.11-5.488,2.809L33.122,42.2,55.766,30.6l-7.489-3.831a1.089,1.089,0,1,1,.992-1.94l9.383,4.8a1.088,1.088,0,0,1,0,1.938L33.618,44.387A1.089,1.089,0,0,1,33.122,44.508Z" transform="translate(-0.456 2.184)"/>
        <path id="Shape-12" data-name="Shape" d="M33.121,53.606a1.09,1.09,0,0,1-.489-.115L7.6,40.92a1.088,1.088,0,0,1,0-1.945l10-5.028a1.089,1.089,0,1,1,.98,1.945l-8.068,4.054L33.121,51.3,55.729,39.947l-8.076-4.055a1.089,1.089,0,1,1,.98-1.945l10.013,5.028a1.088,1.088,0,0,1,0,1.945L33.612,53.491A1.089,1.089,0,0,1,33.121,53.606Z" transform="translate(-0.456 2.99)"/>
        <path id="Shape-13" data-name="Shape" d="M5.088,21.768A1.088,1.088,0,0,1,4,20.68V1.088a1.088,1.088,0,1,1,2.177,0V20.68A1.088,1.088,0,0,1,5.088,21.768Z" transform="translate(-0.721 0)"/>
        <path id="Shape-14" data-name="Shape" d="M5.355,20.443a1.088,1.088,0,0,1-.769-.319L1.32,16.859A1.088,1.088,0,1,1,2.859,15.32l2.5,2.5,2.5-2.5a1.088,1.088,0,0,1,1.539,1.539L6.124,20.124A1.088,1.088,0,0,1,5.355,20.443Z" transform="translate(-0.988 1.325)"/>
        <path id="Shape-15" data-name="Shape" d="M57.088,61.768A1.088,1.088,0,0,1,56,60.68V41.088a1.088,1.088,0,0,1,2.177,0V60.68A1.088,1.088,0,0,1,57.088,61.768Z" transform="translate(3.875 3.536)"/>
        <path id="Shape-16" data-name="Shape" d="M60.618,45.442a1.088,1.088,0,0,1-.769-.319l-2.5-2.5-2.5,2.5a1.088,1.088,0,0,1-1.539-1.539l3.265-3.265a1.088,1.088,0,0,1,1.539,0l3.265,3.265a1.088,1.088,0,0,1-.77,1.858Z" transform="translate(3.611 3.536)"/>
      </g>
    </g>
  </g>
</svg>
