<svg xmlns="http://www.w3.org/2000/svg" width="105" height="105" viewBox="0 0 105 105">
  <g id="Grupo_1212463" data-name="Grupo 1212463" transform="translate(-1168 -18803.207)">
    <g id="Grupo_1198272" data-name="Grupo 1198272" transform="translate(1168 18803.207)">
      <g id="Grupo_1098742" data-name="Grupo 1098742" transform="translate(0)">
        <g id="Rect치ngulo_400898" data-name="Rect치ngulo 400898" transform="translate(0.001 0)" fill="#eabe94" stroke="#ae967f" stroke-width="1">
          <rect width="104.999" height="104.999" rx="52.5" stroke="none"/>
          <rect x="0.5" y="0.5" width="103.999" height="103.999" rx="52" fill="none"/>
        </g>
        <g id="Rect치ngulo_400907" data-name="Rect치ngulo 400907" transform="translate(0 0)" fill="none" stroke="#ae967f" stroke-width="1">
          <rect width="104.999" height="104.999" rx="52.5" stroke="none"/>
          <rect x="0.5" y="0.5" width="103.999" height="103.999" rx="52" fill="none"/>
        </g>
      </g>
    </g>
    <g id="engineering_10236318" transform="translate(1187.45 18822.744)">
      <g id="Grupo_1212457" data-name="Grupo 1212457">
        <g id="Grupo_1212454" data-name="Grupo 1212454">
          <path id="Trazado_900721" data-name="Trazado 900721" d="M57.4,39.1V7.1h.7A5.911,5.911,0,0,1,64,13V45" fill="none" stroke="#101f2d" stroke-linecap="round" stroke-linejoin="round" stroke-miterlimit="10" stroke-width="2"/>
          <path id="Trazado_900722" data-name="Trazado 900722" d="M8.6,39.1H7.9a5.9,5.9,0,0,0,0,11.8H58.2a5.9,5.9,0,0,0,0-11.8h-.7" fill="none" stroke="#101f2d" stroke-linecap="round" stroke-linejoin="round" stroke-miterlimit="10" stroke-width="2"/>
          <path id="Trazado_900723" data-name="Trazado 900723" d="M8.6,39.1V7.1H7.9A5.826,5.826,0,0,0,2,12.9v32" fill="none" stroke="#101f2d" stroke-linecap="round" stroke-linejoin="round" stroke-miterlimit="10" stroke-width="2"/>
          <path id="Trazado_900724" data-name="Trazado 900724" d="M8.6,10.9H57" fill="none" stroke="#101f2d" stroke-linecap="round" stroke-linejoin="round" stroke-miterlimit="10" stroke-width="2"/>
        </g>
        <g id="Grupo_1212456" data-name="Grupo 1212456">
          <path id="Trazado_900725" data-name="Trazado 900725" d="M28.5,31.6h9V87h-9Z" transform="translate(-26.342 92.342) rotate(-90)" fill="#64c4f6" stroke="#101f2d" stroke-linecap="round" stroke-linejoin="round" stroke-miterlimit="10" stroke-width="2"/>
          <g id="Grupo_1212455" data-name="Grupo 1212455">
            <path id="Trazado_900726" data-name="Trazado 900726" d="M10.6,54.8v3.4" fill="none" stroke="#101f2d" stroke-linecap="round" stroke-linejoin="round" stroke-miterlimit="10" stroke-width="2"/>
            <path id="Trazado_900727" data-name="Trazado 900727" d="M16.2,54.8v2.3" fill="none" stroke="#101f2d" stroke-linecap="round" stroke-linejoin="round" stroke-miterlimit="10" stroke-width="2"/>
            <path id="Trazado_900728" data-name="Trazado 900728" d="M21.8,54.8v3.4" fill="none" stroke="#101f2d" stroke-linecap="round" stroke-linejoin="round" stroke-miterlimit="10" stroke-width="2"/>
            <path id="Trazado_900729" data-name="Trazado 900729" d="M27.4,54.8v2.3" fill="none" stroke="#101f2d" stroke-linecap="round" stroke-linejoin="round" stroke-miterlimit="10" stroke-width="2"/>
            <path id="Trazado_900730" data-name="Trazado 900730" d="M33,54.8v3.4" fill="none" stroke="#101f2d" stroke-linecap="round" stroke-linejoin="round" stroke-miterlimit="10" stroke-width="2"/>
            <path id="Trazado_900731" data-name="Trazado 900731" d="M38.6,54.8v2.3" fill="none" stroke="#101f2d" stroke-linecap="round" stroke-linejoin="round" stroke-miterlimit="10" stroke-width="2"/>
            <path id="Trazado_900732" data-name="Trazado 900732" d="M44.2,54.8v3.4" fill="none" stroke="#101f2d" stroke-linecap="round" stroke-linejoin="round" stroke-miterlimit="10" stroke-width="2"/>
            <path id="Trazado_900733" data-name="Trazado 900733" d="M49.8,54.8v2.3" fill="none" stroke="#101f2d" stroke-linecap="round" stroke-linejoin="round" stroke-miterlimit="10" stroke-width="2"/>
            <path id="Trazado_900734" data-name="Trazado 900734" d="M55.4,54.8v3.4" fill="none" stroke="#101f2d" stroke-linecap="round" stroke-linejoin="round" stroke-miterlimit="10" stroke-width="2"/>
          </g>
        </g>
      </g>
      <g id="Grupo_1212459" data-name="Grupo 1212459">
        <g id="Grupo_1212458" data-name="Grupo 1212458">
          <path id="Trazado_900735" data-name="Trazado 900735" d="M36.6,35l.7,8-6.5-4.6" fill="none" stroke="#101f2d" stroke-linecap="round" stroke-linejoin="round" stroke-miterlimit="10" stroke-width="2"/>
          <path id="Trazado_900736" data-name="Trazado 900736" d="M30.8,38.4,36.6,35,18.1,3a1.918,1.918,0,0,0-1.8-.9,6.685,6.685,0,0,0-3.9,2.2,1.84,1.84,0,0,0-.2,2Z" fill="#ef6561" stroke="#101f2d" stroke-linecap="round" stroke-linejoin="round" stroke-miterlimit="10" stroke-width="2"/>
          <path id="Trazado_900737" data-name="Trazado 900737" d="M19.7,5.7,13.8,9.1" fill="none" stroke="#101f2d" stroke-linecap="round" stroke-linejoin="round" stroke-miterlimit="10" stroke-width="2"/>
        </g>
      </g>
      <g id="Grupo_1212462" data-name="Grupo 1212462">
        <g id="Grupo_1212460" data-name="Grupo 1212460">
          <path id="Trazado_900738" data-name="Trazado 900738" d="M38.5,7.9H31.3a.9.9,0,0,1-.9-.9V3.3a.9.9,0,0,1,.9-.9h7.2a.9.9,0,0,1,.9.9V7A.9.9,0,0,1,38.5,7.9Z" fill="#ef6561" stroke="#101f2d" stroke-linecap="round" stroke-linejoin="round" stroke-miterlimit="10" stroke-width="2"/>
          <path id="Trazado_900739" data-name="Trazado 900739" d="M33.9,2.4V7.9" fill="none" stroke="#101f2d" stroke-linecap="round" stroke-linejoin="round" stroke-miterlimit="10" stroke-width="2"/>
        </g>
        <g id="Grupo_1212461" data-name="Grupo 1212461">
          <path id="Trazado_900740" data-name="Trazado 900740" d="M36.5,15.7h9.7v9.7H36.5Z" fill="none" stroke="#101f2d" stroke-linecap="round" stroke-linejoin="round" stroke-miterlimit="10" stroke-width="2"/>
          <path id="Trazado_900741" data-name="Trazado 900741" d="M43.1,22.1l2.8,10.5,7.7-7.7Z" fill="#64c4f6" stroke="#101f2d" stroke-linecap="round" stroke-linejoin="round" stroke-miterlimit="10" stroke-width="2"/>
        </g>
        <path id="Trazado_900742" data-name="Trazado 900742" d="M13.7,29.4h6.8" fill="none" stroke="#101f2d" stroke-linecap="round" stroke-linejoin="round" stroke-miterlimit="10" stroke-width="2"/>
        <path id="Trazado_900743" data-name="Trazado 900743" d="M13.7,34.3h9.2" fill="none" stroke="#101f2d" stroke-linecap="round" stroke-linejoin="round" stroke-miterlimit="10" stroke-width="2"/>
        <path id="Trazado_900744" data-name="Trazado 900744" d="M41.7,39.2H52" fill="none" stroke="#101f2d" stroke-linecap="round" stroke-linejoin="round" stroke-miterlimit="10" stroke-width="2"/>
        <path id="Trazado_900745" data-name="Trazado 900745" d="M13.7,39.2H26.1" fill="none" stroke="#101f2d" stroke-linecap="round" stroke-linejoin="round" stroke-miterlimit="10" stroke-width="2"/>
        <path id="Trazado_900746" data-name="Trazado 900746" d="M42.6,44.1H52" fill="none" stroke="#101f2d" stroke-linecap="round" stroke-linejoin="round" stroke-miterlimit="10" stroke-width="2"/>
        <path id="Trazado_900747" data-name="Trazado 900747" d="M13.7,44.1H30.8" fill="none" stroke="#101f2d" stroke-linecap="round" stroke-linejoin="round" stroke-miterlimit="10" stroke-width="2"/>
      </g>
    </g>
  </g>
</svg>
