<svg xmlns="http://www.w3.org/2000/svg" width="100" height="99.999" viewBox="0 0 100 99.999">
  <g id="Grupo_1212484" data-name="Grupo 1212484" transform="translate(6819 -9986.148)">
    <g id="Rectángulo_408723" data-name="Rectángulo 408723" transform="translate(-6819 9986.148)" fill="#6ab4a8" stroke="#497d74" stroke-width="2">
      <rect width="100" height="99.999" rx="50" stroke="none"/>
      <rect x="1" y="1" width="98" height="97.999" rx="49" fill="none"/>
    </g>
    <g id="printer_3977746" transform="translate(-6809.664 10000.616)">
      <g id="Grupo_1212482" data-name="Grupo 1212482" transform="translate(6.999 1.041)">
        <path id="Trazado_900788" data-name="Trazado 900788" d="M75.957,187.012v20.581a1.975,1.975,0,0,1-1.974,1.975H15.434a1.975,1.975,0,0,1-1.975-1.975V187.012a7.361,7.361,0,0,1,7.361-7.362H68.6a7.361,7.361,0,0,1,7.361,7.362Z" transform="translate(-13.459 -155.756)" fill="#acacac"/>
        <path id="Trazado_900789" data-name="Trazado 900789" d="M81.719,359.53h37.055v4.951H81.719Z" transform="translate(-72.245 -310.669)" fill="#9c9c9c"/>
        <path id="Trazado_900790" data-name="Trazado 900790" d="M390.557,179.654h-3.248a7.361,7.361,0,0,1,7.361,7.361V207.6a1.975,1.975,0,0,1-1.975,1.975h3.248a1.975,1.975,0,0,0,1.975-1.975V187.015A7.361,7.361,0,0,0,390.557,179.654Z" transform="translate(-335.419 -155.759)" fill="#9c9c9c"/>
        <path id="Trazado_900791" data-name="Trazado 900791" d="M161.446,79.3v9.619H131.679V79.3a5.005,5.005,0,0,1,5.005-5.005h19.757a5,5,0,0,1,5.005,5.005Z" transform="translate(-115.27 -65.02)" fill="#739ad6"/>
        <path id="Trazado_900792" data-name="Trazado 900792" d="M262.358,86.059a5.17,5.17,0,1,1,0-10.34c.071,0,.14,0,.211,0a4.984,4.984,0,0,0-3.506-1.432h-7l.051.051a12.087,12.087,0,0,0-1.632,3.936h-2.813a1.184,1.184,0,0,0-1.184,1.184v2.854a1.184,1.184,0,0,0,1.184,1.184h2.813a12.067,12.067,0,0,0,1.632,3.935l-1.481,1.48h13.43V85.769a5.167,5.167,0,0,1-1.71.29Z" transform="translate(-214.145 -65.02)" fill="#5a84c8"/>
        <path id="Trazado_900793" data-name="Trazado 900793" d="M140.2,379.655H107.09a1.975,1.975,0,0,1-1.975-1.975V359.534H142.17V377.68A1.975,1.975,0,0,1,140.2,379.655Z" transform="translate(-92.393 -310.672)" fill="#fcf3e3"/>
        <path id="Trazado_900794" data-name="Trazado 900794" d="M336.431,359.534V377.68a1.975,1.975,0,0,1-1.975,1.975H337.7a1.975,1.975,0,0,0,1.975-1.975V359.534Z" transform="translate(-289.902 -310.672)" fill="#fee8c7"/>
        <path id="Trazado_900795" data-name="Trazado 900795" d="M53.437,256.356h-.155a2.269,2.269,0,0,1-2.269-2.269v-6.153a2.269,2.269,0,0,1,2.269-2.269h.155a2.269,2.269,0,0,1,2.269,2.269v6.153A2.268,2.268,0,0,1,53.437,256.356Z" transform="translate(-45.801 -212.609)" fill="#ccf49f"/>
        <path id="Trazado_900796" data-name="Trazado 900796" d="M60.072,245.666h-.155a2.255,2.255,0,0,0-1.2.345,2.265,2.265,0,0,1,1.069,1.923v6.153a2.265,2.265,0,0,1-1.069,1.923,2.255,2.255,0,0,0,1.2.345h.155a2.269,2.269,0,0,0,2.269-2.269v-6.153a2.269,2.269,0,0,0-2.269-2.269Z" transform="translate(-52.435 -212.609)" fill="#b3e59f"/>
        <path id="Trazado_900797" data-name="Trazado 900797" d="M300.441,20.758h-2.813A12.087,12.087,0,0,0,296,16.822l1.99-1.99a1.183,1.183,0,0,0,0-1.675l-2.017-2.017a1.185,1.185,0,0,0-1.675,0l-1.99,1.99a12.1,12.1,0,0,0-3.935-1.632V8.684A1.184,1.184,0,0,0,287.183,7.5H284.33a1.184,1.184,0,0,0-1.184,1.184V11.5a12.1,12.1,0,0,0-3.935,1.632l-1.99-1.99a1.185,1.185,0,0,0-1.675,0l-2.018,2.017a1.185,1.185,0,0,0,0,1.675l1.99,1.99a12.114,12.114,0,0,0-1.631,3.936h-2.813a1.184,1.184,0,0,0-1.184,1.184V24.8a1.184,1.184,0,0,0,1.184,1.184h2.813a12.094,12.094,0,0,0,1.631,3.935l-1.99,1.99a1.185,1.185,0,0,0,0,1.675l2.018,2.018a1.185,1.185,0,0,0,1.675,0l1.99-1.99a12.064,12.064,0,0,0,3.935,1.631v2.813a1.184,1.184,0,0,0,1.184,1.185h2.854a1.185,1.185,0,0,0,1.185-1.185V35.239a12.077,12.077,0,0,0,3.935-1.631l1.99,1.99a1.185,1.185,0,0,0,1.675,0l2.017-2.018a1.183,1.183,0,0,0,0-1.675L296,29.915a12.067,12.067,0,0,0,1.632-3.935h2.813a1.184,1.184,0,0,0,1.184-1.184V21.942a1.184,1.184,0,0,0-1.184-1.184Zm-14.157,7.755a5.1,5.1,0,0,1-.527.026c-.146,0-.289-.006-.432-.018a5.167,5.167,0,1,1,.959-.008Z" transform="translate(-234.297 -7.5)" fill="#01c0fa"/>
        <g id="Grupo_1212481" data-name="Grupo 1212481" transform="translate(43.043 0)">
          <path id="Trazado_900798" data-name="Trazado 900798" d="M331.554,94.9c-.992.007-2.451.018-2.815.018a5.17,5.17,0,0,1,0-10.341h3.247a5.17,5.17,0,0,0-.432,10.322Z" transform="translate(-323.569 -73.881)" fill="#08a9f1"/>
          <path id="Trazado_900799" data-name="Trazado 900799" d="M373.5,8.685V11.5a25.725,25.725,0,0,0,3.248,0V8.685A1.185,1.185,0,0,0,375.565,7.5h-2.853a1.181,1.181,0,0,0-.2.018A1.184,1.184,0,0,1,373.5,8.685Z" transform="translate(-365.72 -7.5)" fill="#08a9f1"/>
          <path id="Trazado_900800" data-name="Trazado 900800" d="M442.276,41.184h-2.813a12.08,12.08,0,0,0-1.632-3.935l1.991-1.991a1.184,1.184,0,0,0,0-1.675L437.8,31.566a1.184,1.184,0,0,0-1.675,0l-.786.786,1.231,1.231a1.184,1.184,0,0,1,0,1.675l-1.991,1.991a12.081,12.081,0,0,1,1.632,3.935h2.813a1.185,1.185,0,0,1,1.185,1.185v2.853a1.185,1.185,0,0,1-1.185,1.185h-2.813a12.082,12.082,0,0,1-1.632,3.935l1.991,1.991a1.184,1.184,0,0,1,0,1.675l-1.231,1.231.786.786a1.184,1.184,0,0,0,1.675,0l2.018-2.018a1.184,1.184,0,0,0,0-1.675l-1.991-1.991a12.08,12.08,0,0,0,1.632-3.935h2.813a1.185,1.185,0,0,0,1.185-1.185V42.369a1.185,1.185,0,0,0-1.185-1.185Z" transform="translate(-419.174 -27.927)" fill="#08a9f1"/>
          <path id="Trazado_900801" data-name="Trazado 900801" d="M376.748,206.983c-1.228.029-3.248,0-3.248,0V209.8a1.184,1.184,0,0,1-.987,1.167,1.183,1.183,0,0,0,.2.018h2.853a1.185,1.185,0,0,0,1.185-1.185v-2.813C377.36,206.849,376.748,206.983,376.748,206.983Z" transform="translate(-365.72 -179.244)" fill="#08a9f1"/>
        </g>
      </g>
      <g id="Grupo_1212483" data-name="Grupo 1212483" transform="translate(5.958)">
        <path id="Trazado_900802" data-name="Trazado 900802" d="M43.514,241.6v6.153c.248,4.581,6.682,4.189,6.774,0V241.6C50.04,237.014,43.606,237.407,43.514,241.6Zm2.082,0a1.31,1.31,0,0,1,2.61,0v6.153a1.31,1.31,0,0,1-2.61,0Z" transform="translate(-38.301 -205.229)"/>
        <path id="Trazado_900803" data-name="Trazado 900803" d="M345.674,77.079a6.211,6.211,0,1,0,6.211,6.211A6.218,6.218,0,0,0,345.674,77.079Zm0,10.34A4.129,4.129,0,1,1,349.8,83.29,4.134,4.134,0,0,1,345.674,87.419Z" transform="translate(-293.173 -66.381)"/>
        <path id="Trazado_900804" data-name="Trazado 900804" d="M73.143,13.257h-2a13.06,13.06,0,0,0-1.133-2.731l1.418-1.418a2.228,2.228,0,0,0,0-3.147L69.407,3.944a2.228,2.228,0,0,0-3.147,0L64.843,5.362a13.074,13.074,0,0,0-2.731-1.133v-2A2.228,2.228,0,0,0,59.886,0H57.033a2.228,2.228,0,0,0-2.226,2.226v2a13.066,13.066,0,0,0-2.731,1.132L50.659,3.944a2.228,2.228,0,0,0-3.147,0L45.494,5.962a2.278,2.278,0,0,0,0,3.147l1.418,1.418a13.075,13.075,0,0,0-1.133,2.731h-2a2.228,2.228,0,0,0-2.225,2.226v2.853a2.228,2.228,0,0,0,2.225,2.226h2a13.061,13.061,0,0,0,1.133,2.731l-.6.6H30.43V18.172a1.041,1.041,0,0,0-2.082,0v5.723h-3.9V15.317a3.969,3.969,0,0,1,3.964-3.964H41.966a1.041,1.041,0,0,0,0-2.082H28.413a6.053,6.053,0,0,0-6.046,6.046v8.578H14.36a8.412,8.412,0,0,0-8.4,8.4V52.878a3.02,3.02,0,0,0,3.016,3.016H18.68V68.049A3.019,3.019,0,0,0,21.7,71.065H54.8a3.019,3.019,0,0,0,3.016-3.016V50.944h4.012a1.041,1.041,0,0,0,0-2.082H14.755a1.041,1.041,0,1,0,0,2.082H18.68v2.868H8.974a.935.935,0,0,1-.934-.934V32.3a6.327,6.327,0,0,1,6.32-6.321H44.866a2.221,2.221,0,0,0,.627,1.882l2.018,2.018a2.278,2.278,0,0,0,3.147,0l1.418-1.418a13.065,13.065,0,0,0,2.731,1.132v2a2.228,2.228,0,0,0,2.226,2.225h2.853a2.228,2.228,0,0,0,2.225-2.225v-2a13.059,13.059,0,0,0,2.731-1.132l1.418,1.417a2.334,2.334,0,0,0,1.936.62,6.288,6.288,0,0,1,.261,1.8V52.878a.935.935,0,0,1-.933.934H61.829a1.041,1.041,0,0,0,0,2.082h5.695a3.019,3.019,0,0,0,3.015-3.016V32.3a8.323,8.323,0,0,0-.555-3l1.441-1.441a2.228,2.228,0,0,0,0-3.147l-1.418-1.418a13.071,13.071,0,0,0,1.133-2.731h2a2.228,2.228,0,0,0,2.226-2.226V15.483a2.228,2.228,0,0,0-2.226-2.226ZM55.735,50.944V68.049a.935.935,0,0,1-.934.934H21.7a.935.935,0,0,1-.934-.934V50.944ZM73.287,18.336a.144.144,0,0,1-.144.144H70.33a1.041,1.041,0,0,0-1.017.818,11.018,11.018,0,0,1-1.491,3.6,1.041,1.041,0,0,0,.14,1.3l1.991,1.99a.144.144,0,0,1,0,.2L67.935,28.4c-.041,0-.026.087-.2,0l-1.991-1.991a1.041,1.041,0,0,0-1.3-.14,11.012,11.012,0,0,1-3.6,1.491,1.041,1.041,0,0,0-.818,1.017v2.813a.144.144,0,0,1-.144.144H57.033a.144.144,0,0,1-.144-.144V28.78a1.041,1.041,0,0,0-.818-1.017,11.015,11.015,0,0,1-3.6-1.491,1.1,1.1,0,0,0-1.3.14L49.186,28.4c-.041,0-.026.087-.2,0l-2.018-2.018a.144.144,0,0,1,0-.2l1.991-1.991a1.041,1.041,0,0,0,.14-1.3,11.018,11.018,0,0,1-1.491-3.6,1.041,1.041,0,0,0-1.017-.818H43.775a.144.144,0,0,1-.144-.144V15.483a.144.144,0,0,1,.144-.144h2.813a1.041,1.041,0,0,0,1.017-.818,11.016,11.016,0,0,1,1.491-3.6,1.041,1.041,0,0,0-.14-1.3L46.966,7.637c0-.041-.087-.026,0-.2l2.018-2.018a.144.144,0,0,1,.2,0l1.991,1.991a1.041,1.041,0,0,0,1.3.14,11.019,11.019,0,0,1,3.6-1.491,1.041,1.041,0,0,0,.818-1.017V2.225a.144.144,0,0,1,.144-.144h2.853a.144.144,0,0,1,.144.144V5.039a1.041,1.041,0,0,0,.818,1.017,11.015,11.015,0,0,1,3.6,1.491,1.041,1.041,0,0,0,1.3-.14l1.991-1.991a.144.144,0,0,1,.2,0l2.018,2.018a.144.144,0,0,1,0,.2L67.962,9.627a1.041,1.041,0,0,0-.14,1.3,11.019,11.019,0,0,1,1.491,3.6,1.041,1.041,0,0,0,1.017.818h2.813a.144.144,0,0,1,.144.144Z" transform="translate(-5.958)"/>
        <path id="Trazado_900805" data-name="Trazado 900805" d="M195.392,456.957H205.68a1.041,1.041,0,1,0,0-2.082H195.392a1.041,1.041,0,1,0,0,2.082Z" transform="translate(-168.202 -391.739)"/>
        <path id="Trazado_900806" data-name="Trazado 900806" d="M212.707,422.462h15.027a1.041,1.041,0,1,0,0-2.082H212.707a1.041,1.041,0,1,0,0,2.082Z" transform="translate(-183.114 -362.032)"/>
        <path id="Trazado_900807" data-name="Trazado 900807" d="M143.934,422.462h4.658a1.041,1.041,0,1,0,0-2.082h-4.658a1.041,1.041,0,1,0,0,2.082Z" transform="translate(-123.887 -362.032)"/>
        <circle id="Elipse_11677" data-name="Elipse 11677" cx="1.018" cy="1.018" r="1.018" transform="translate(7.353 28.977)"/>
        <path id="Trazado_900808" data-name="Trazado 900808" d="M357,303.609a1.041,1.041,0,0,0,0,2.082h6.25a1.041,1.041,0,0,0,0-2.082Z" transform="translate(-307.378 -261.468)"/>
      </g>
    </g>
  </g>
</svg>
