<svg xmlns="http://www.w3.org/2000/svg" width="100" height="99.999" viewBox="0 0 100 99.999">
  <g id="Grupo_1212487" data-name="Grupo 1212487" transform="translate(6819 -10384.148)">
    <g id="Rectángulo_408728" data-name="Rectángulo 408728" transform="translate(-6819 10384.148)" fill="#6ab4a8" stroke="#497d74" stroke-width="2">
      <rect width="100" height="99.999" rx="50" stroke="none"/>
      <rect x="1" y="1" width="98" height="97.999" rx="49" fill="none"/>
    </g>
    <g id="_25-web_design" data-name="25-web design" transform="translate(-6800 10402)">
      <path id="Trazado_900809" data-name="Trazado 900809" d="M61,51v2a2.006,2.006,0,0,1-2,2H5a2.006,2.006,0,0,1-2-2V51Z" fill="#f2f2f2"/>
      <path id="Trazado_900810" data-name="Trazado 900810" d="M5,43a2.006,2.006,0,0,0-2,2v6H61V45a2.006,2.006,0,0,0-2-2Z" fill="#5acafa"/>
      <path id="Trazado_900811" data-name="Trazado 900811" d="M55,55v6a2.006,2.006,0,0,1-2,2H11a2.006,2.006,0,0,1-2-2V55Z" fill="#dedede"/>
      <path id="Trazado_900812" data-name="Trazado 900812" d="M9,43V9h6a2.006,2.006,0,0,0,2-2V1H53a2.006,2.006,0,0,1,2,2V43Z" fill="#f2f2f2"/>
      <path id="Trazado_900813" data-name="Trazado 900813" d="M17,1V7a2.006,2.006,0,0,1-2,2H9Z" fill="#b5e9ff"/>
      <path id="Trazado_900814" data-name="Trazado 900814" d="M38,24v8H30V28h4V24Z" fill="#5acafa"/>
      <path id="Trazado_900815" data-name="Trazado 900815" d="M30,24h4v4H30Z" fill="#1c99eb"/>
      <path id="Trazado_900816" data-name="Trazado 900816" d="M34,20v4H30v4H26V20Z" fill="#5acafa"/>
      <path id="Trazado_900817" data-name="Trazado 900817" d="M7,43H9v6H7Z" fill="#1c99eb"/>
      <path id="Trazado_900818" data-name="Trazado 900818" d="M16,58H55V55H9v6a2.006,2.006,0,0,0,2,2h2.779A2.988,2.988,0,0,1,16,58Z" fill="#c7c7c7"/>
      <path id="Trazado_900819" data-name="Trazado 900819" d="M13.889,51H3v2a2.006,2.006,0,0,0,2,2H59a2.006,2.006,0,0,0,2-2V52H18a8.95,8.95,0,0,1-4.111-1Z" fill="#dedede"/>
      <path id="Trazado_900820" data-name="Trazado 900820" d="M9,43H5a2.006,2.006,0,0,0-2,2v6H13.889A8.993,8.993,0,0,1,9,43Z" fill="#3db6fd"/>
      <path id="Trazado_900821" data-name="Trazado 900821" d="M39,40A25,25,0,0,1,14,15V11a2,2,0,0,0,2-2V8.721A1.975,1.975,0,0,1,15,9H9V43H55V40Z" fill="#dedede"/>
      <g id="Grupo_1212486" data-name="Grupo 1212486">
        <path id="Trazado_900822" data-name="Trazado 900822" d="M45,35v4H41V35h4Z" fill="#007aff"/>
        <path id="Trazado_900823" data-name="Trazado 900823" d="M45,13v4H41V13Z" fill="#007aff"/>
        <path id="Trazado_900824" data-name="Trazado 900824" d="M23,37v2H19V35h4Z" fill="#007aff"/>
        <path id="Trazado_900825" data-name="Trazado 900825" d="M23,15v2H19V13h4Z" fill="#007aff"/>
      </g>
      <path id="Trazado_900826" data-name="Trazado 900826" d="M60.15,15.848a2.845,2.845,0,0,1,.85,2.04,2.879,2.879,0,0,1-.85,2.04l-1.36,1.36-2.04-2.04-2.04-2.04,1.36-1.36a2.877,2.877,0,0,1,4.08,0Z" fill="#dedede"/>
      <path id="Trazado_900827" data-name="Trazado 900827" d="M58.79,21.288,43.81,36.28l-2.04-2.04v-.01L56.75,19.248Z" fill="#1c99eb"/>
      <path id="Trazado_900828" data-name="Trazado 900828" d="M56.75,19.248,41.77,34.23v.01l-2.05-2.051L54.71,17.208Z" fill="#5acafa"/>
      <path id="Trazado_900829" data-name="Trazado 900829" d="M43.81,36.28l-2.92,1.16-2.33-2.33,1.16-2.921,2.05,2.051Z" fill="#ffb844"/>
      <path id="Trazado_900830" data-name="Trazado 900830" d="M40.89,37.44,37,39l1.56-3.89Z" fill="#4f4f4f"/>
      <path id="Trazado_900831" data-name="Trazado 900831" d="M10,10h5a3,3,0,0,0,3-3V2H53a1,1,0,0,1,1,1V13h2V3a3,3,0,0,0-3-3H17a1,1,0,0,0-.707.293l-8,8A1,1,0,0,0,8,9V40h2Zm6-6.586V7a1,1,0,0,1-1,1H11.414Z"/>
      <path id="Trazado_900832" data-name="Trazado 900832" d="M59,42H56V33H54v9H5a3,3,0,0,0-3,3v8a3,3,0,0,0,3,3H8v5a3,3,0,0,0,3,3H53a3,3,0,0,0,3-3V56h3a3,3,0,0,0,3-3V45a3,3,0,0,0-3-3ZM5,44H7v5H9V44h2v3h2V44h2v5h2V44h2v3h2V44h2v5h2V44h2v3h2V44h2v5h2V44h2v3h2V44h2v5h2V44h2v3h2V44h2v5h2V44h2v3h2V44h2v5h2V44h2a1,1,0,0,1,1,1v5H4V45A1,1,0,0,1,5,44ZM54,61a1,1,0,0,1-1,1H11a1,1,0,0,1-1-1V56H54Zm5-7H5a1,1,0,0,1-1-1V52H60v1A1,1,0,0,1,59,54Z"/>
      <path id="Trazado_900833" data-name="Trazado 900833" d="M39.017,31.483c-.007.008-.01.018-.017.026V24a1,1,0,0,0-1-1H35V20a1,1,0,0,0-1-1H26a1,1,0,0,0-1,1v8a1,1,0,0,0,1,1h3v3a1,1,0,0,0,1,1h8a.986.986,0,0,0,.352-.071l-2.28,5.7a1,1,0,0,0,1.3,1.3l6.81-2.724a1,1,0,0,0,.336-.221L60.861,20.64a3.889,3.889,0,0,0,0-5.5,3.979,3.979,0,0,0-5.5,0ZM27,27V21h6v2H30a1,1,0,0,0-1,1v3Zm6-2v2H31V25Zm4,6H31V29h3a1,1,0,0,0,1-1V25h2ZM54.706,18.622l.629.629L41.767,32.819l-.629-.629ZM40.089,33.97l1.941,1.941-.9.359-1.4-1.4Zm-1.167,2.918.19.19-.317.127Zm4.888-2.026-.629-.629L56.749,20.665l.629.629ZM59.447,16.554a1.89,1.89,0,0,1,0,2.672l-.655.654L56.12,17.208l.655-.654a1.932,1.932,0,0,1,2.672,0Z"/>
      <path id="Trazado_900834" data-name="Trazado 900834" d="M54,29h2v2H54Z"/>
      <path id="Trazado_900835" data-name="Trazado 900835" d="M19,34a1,1,0,0,0-1,1v4a1,1,0,0,0,1,1h4a1,1,0,0,0,1-1V38H35V36H24V35a1,1,0,0,0-1-1H22V18h1a1,1,0,0,0,1-1V16H40v1a1,1,0,0,0,1,1h1v7h2V18h1a1,1,0,0,0,1-1V13a1,1,0,0,0-1-1H41a1,1,0,0,0-1,1v1H24V13a1,1,0,0,0-1-1H19a1,1,0,0,0-1,1v4a1,1,0,0,0,1,1h1V34ZM42,14h2v2H42ZM20,14h2v2H20Zm2,24H20V36h2Z"/>
    </g>
  </g>
</svg>
