<svg xmlns="http://www.w3.org/2000/svg" xmlns:xlink="http://www.w3.org/1999/xlink" width="100" height="99.999" viewBox="0 0 100 99.999">
  <defs>
    <clipPath id="clip-path">
      <path id="path1011" d="M0-682.665H62.373v62.373H0Z" transform="translate(0 682.665)"/>
    </clipPath>
  </defs>
  <g id="Grupo_1212485" data-name="Grupo 1212485" transform="translate(6465 -9986.148)">
    <g id="Rectángulo_408726" data-name="Rectángulo 408726" transform="translate(-6465 9986.148)" fill="#6ab4a8" stroke="#497d74" stroke-width="2">
      <rect width="100" height="99.999" rx="50" stroke="none"/>
      <rect x="1" y="1" width="98" height="97.999" rx="49" fill="none"/>
    </g>
    <g id="g1005" transform="translate(-6445.237 10687.627)">
      <g id="g1007" transform="translate(0 -682.665)">
        <g id="g1009" clip-path="url(#clip-path)">
          <g id="g1015" transform="translate(1.591 8.036)">
            <path id="path1017" d="M-7.569-288.015a2.979,2.979,0,0,0-.213.333A4.221,4.221,0,0,0-4.088-281.4H51.027v-35.572H-1.153" transform="translate(8.331 316.977)" fill="#9ee2f8" stroke="#000" stroke-linecap="round" stroke-linejoin="round" stroke-miterlimit="10" stroke-width="1.3"/>
          </g>
          <g id="g1019" transform="translate(1.566 3.791)">
            <path id="path1021" d="M-7.57-330.22h0a3.689,3.689,0,0,1,6.245-.25l.171.25v-30.322a2.883,2.883,0,0,0-2.883-2.883H-4.3a4.035,4.035,0,0,0-4.035,4.035v31.862" transform="translate(8.331 363.424)" fill="#61b5c9"/>
          </g>
          <g id="g1023" transform="translate(1.591 3.791)">
            <path id="path1025" d="M-71.376-62.851v-3.437a2.883,2.883,0,0,0-2.883-2.883h-.259a4.035,4.035,0,0,0-4.035,4.035v31.862" transform="translate(78.553 69.17)" fill="none" stroke="#000" stroke-linecap="round" stroke-linejoin="round" stroke-miterlimit="10" stroke-width="1.3"/>
          </g>
          <g id="g1027" transform="translate(2.352 19.593)">
            <path id="path1029" d="M0-173.074H0a3.689,3.689,0,0,1,6.245-.25l.171.25v-17.4" transform="translate(0 190.477)" fill="none" stroke="#000" stroke-linecap="round" stroke-linejoin="round" stroke-miterlimit="10" stroke-width="1.3"/>
          </g>
          <path id="path1031" d="M167.681-499.008H154.2v-21.928h13.482Z" transform="translate(-140.111 535.713)" fill="#fff" stroke="#000" stroke-linecap="round" stroke-linejoin="round" stroke-miterlimit="10" stroke-width="1.3"/>
          <path id="path1033" d="M198.263-478.733h-6.741v-6.436h6.741Z" transform="translate(-174.023 503.214)" fill="#fff68e" stroke="#000" stroke-linecap="round" stroke-linejoin="round" stroke-miterlimit="10" stroke-width="1.3"/>
          <g id="g1035" transform="translate(17.499 27.953)">
            <path id="path1037" d="M0,0H6.741" fill="none" stroke="#000" stroke-linecap="round" stroke-linejoin="round" stroke-miterlimit="10" stroke-width="1.3"/>
          </g>
          <g id="g1039" transform="translate(17.499 31.425)">
            <path id="path1041" d="M0,0H6.741" fill="none" stroke="#000" stroke-linecap="round" stroke-linejoin="round" stroke-miterlimit="10" stroke-width="1.3"/>
          </g>
          <path id="path1043" d="M482.335-499.008H468.854v-21.928h13.482Z" transform="translate(-426.016 535.713)" fill="#fff" stroke="#000" stroke-linecap="round" stroke-linejoin="round" stroke-miterlimit="10" stroke-width="1.3"/>
          <path id="path1045" d="M512.917-401.511h-6.741v-6.436h6.741Z" transform="translate(-459.928 433.047)" fill="#ff415b" stroke="#000" stroke-linecap="round" stroke-linejoin="round" stroke-miterlimit="10" stroke-width="1.3"/>
          <g id="g1047" transform="translate(46.248 18.045)">
            <path id="path1049" d="M0,0H6.741" fill="none" stroke="#000" stroke-linecap="round" stroke-linejoin="round" stroke-miterlimit="10" stroke-width="1.3"/>
          </g>
          <g id="g1051" transform="translate(46.248 21.516)">
            <path id="path1053" d="M0,0H6.741" fill="none" stroke="#000" stroke-linecap="round" stroke-linejoin="round" stroke-miterlimit="10" stroke-width="1.3"/>
          </g>
          <g id="g1055" transform="translate(31.551 25.741)">
            <path id="path1057" d="M0,0H6.861" fill="none" stroke="#000" stroke-linecap="round" stroke-linejoin="round" stroke-miterlimit="10" stroke-width="1.3"/>
          </g>
          <g id="g1059" transform="translate(35.802 23.131)">
            <path id="path1061" d="M-25.952-25.952l-2.61-2.61" transform="translate(28.561 28.561)" fill="none" stroke="#000" stroke-linecap="round" stroke-linejoin="round" stroke-miterlimit="10" stroke-width="1.3"/>
          </g>
          <g id="g1063" transform="translate(35.802 25.741)">
            <path id="path1065" d="M0-25.952l2.61-2.61" transform="translate(0 28.561)" fill="none" stroke="#000" stroke-linecap="round" stroke-linejoin="round" stroke-miterlimit="10" stroke-width="1.3"/>
          </g>
          <g id="g1067" transform="translate(3.201 48.297)">
            <path id="path1069" d="M-407.133-108.621h-40.939v-10.922h56.585v10.922h-5.941" transform="translate(448.072 119.544)" fill="#a6ffb5" stroke="#000" stroke-linecap="round" stroke-linejoin="round" stroke-miterlimit="10" stroke-width="1.3"/>
          </g>
          <g id="g1071" transform="translate(53.604 48.297)">
            <path id="path1073" d="M0,0V5.044" fill="none" stroke="#000" stroke-linecap="round" stroke-linejoin="round" stroke-miterlimit="10" stroke-width="1.3"/>
          </g>
          <g id="g1075" transform="translate(42.665 48.297)">
            <path id="path1077" d="M0,0V5.044" fill="none" stroke="#000" stroke-linecap="round" stroke-linejoin="round" stroke-miterlimit="10" stroke-width="1.3"/>
          </g>
          <g id="g1079" transform="translate(31.726 48.297)">
            <path id="path1081" d="M0,0V5.044" fill="none" stroke="#000" stroke-linecap="round" stroke-linejoin="round" stroke-miterlimit="10" stroke-width="1.3"/>
          </g>
          <g id="g1083" transform="translate(20.787 48.297)">
            <path id="path1085" d="M0,0V5.044" fill="none" stroke="#000" stroke-linecap="round" stroke-linejoin="round" stroke-miterlimit="10" stroke-width="1.3"/>
          </g>
          <g id="g1087" transform="translate(9.848 48.297)">
            <path id="path1089" d="M0,0V5.044" fill="none" stroke="#000" stroke-linecap="round" stroke-linejoin="round" stroke-miterlimit="10" stroke-width="1.3"/>
          </g>
          <g id="g1091" transform="translate(8.69 14.917)">
            <path id="path1093" d="M0-.122V-.135" transform="translate(0 0.135)" fill="none" stroke="#000" stroke-linecap="round" stroke-linejoin="round" stroke-miterlimit="10" stroke-width="1.3"/>
          </g>
          <g id="g1095" transform="translate(48.932 59.213)">
            <path id="path1097" d="M0-.122V-.135" transform="translate(0 0.135)" fill="none" stroke="#000" stroke-linecap="round" stroke-linejoin="round" stroke-miterlimit="10" stroke-width="1.3"/>
          </g>
        </g>
      </g>
    </g>
  </g>
</svg>
