<svg xmlns="http://www.w3.org/2000/svg" xmlns:xlink="http://www.w3.org/1999/xlink" width="190" height="154" viewBox="0 0 190 154">
  <defs>
    <clipPath id="clip-path">
      <rect id="Rectángulo_408977" data-name="Rectángulo 408977" width="190" height="154" transform="translate(1230.126 21118)" fill="#fff" stroke="#707070" stroke-width="1" opacity="0.47"/>
    </clipPath>
  </defs>
  <g id="Enmascarar_grupo_1098786" data-name="Enmascarar grupo 1098786" transform="translate(-1230.126 -21118)" clip-path="url(#clip-path)">
    <g id="Grupo_1212282" data-name="Grupo 1212282" transform="translate(18 16154)">
      <rect id="Rectángulo_408806" data-name="Rectángulo 408806" width="99" height="57" rx="12" transform="translate(1241.126 5029)" fill="#497d74"/>
      <rect id="Rectángulo_408807" data-name="Rectángulo 408807" width="78" height="154" rx="12" transform="translate(1286.126 4964)" fill="#345953"/>
    </g>
    <g id="spreadsheet_440558" transform="translate(1251.178 21090.42)">
      <g id="Grupo_1212854" data-name="Grupo 1212854" transform="translate(1.876 96.425)">
        <path id="Trazado_901937" data-name="Trazado 901937" d="M463.507,232.883h3.212l4.943-8.155-4.943-8.155h-3.212Z" transform="translate(-369.514 -216.574)" fill="#acf0f2"/>
        <path id="Trazado_901938" data-name="Trazado 901938" d="M17.223,216.574H14.01l-4.942,8.155,4.942,8.155h3.212Z" transform="translate(-9.068 -216.574)" fill="#acf0f2"/>
      </g>
      <rect id="Rectángulo_408969" data-name="Rectángulo 408969" width="72.492" height="16.474" transform="translate(16.704 71.628)" fill="#2e343e"/>
      <rect id="Rectángulo_408970" data-name="Rectángulo 408970" width="72.492" height="49.426" transform="translate(16.704 88.105)" fill="#fb9138"/>
      <path id="Trazado_901939" data-name="Trazado 901939" d="M153.191,96.22H80.658v16.524H87.31v-9.871h29.614v9.871h6.652v-9.871h29.614Z" transform="translate(-63.975 -24.688)" fill="#51565e"/>
      <g id="Grupo_1212855" data-name="Grupo 1212855" transform="translate(16.683 88.056)">
        <path id="Trazado_901940" data-name="Trazado 901940" d="M153.191,176.11H80.658v16.524H87.31v-9.871h29.614v9.871h6.652v-9.871h29.614Z" transform="translate(-80.658 -176.11)" fill="#fdb275"/>
        <path id="Trazado_901941" data-name="Trazado 901941" d="M153.191,256H80.658v16.524H87.31v-9.871h29.614v9.871h6.652v-9.871h29.614Z" transform="translate(-80.658 -239.476)" fill="#fdb275"/>
        <path id="Trazado_901942" data-name="Trazado 901942" d="M153.191,335.89H80.658v16.524H87.31V342.328h29.614v10.086h6.652V342.328h29.614Z" transform="translate(-80.658 -302.842)" fill="#fdb275"/>
      </g>
      <rect id="Rectángulo_408971" data-name="Rectángulo 408971" width="3.219" height="3.433" transform="translate(51.232 78.184)"/>
      <rect id="Rectángulo_408972" data-name="Rectángulo 408972" width="3.219" height="3.219" transform="translate(51.232 94.708)"/>
      <rect id="Rectángulo_408973" data-name="Rectángulo 408973" width="3.219" height="3.219" transform="translate(51.232 111.232)"/>
      <rect id="Rectángulo_408974" data-name="Rectángulo 408974" width="3.219" height="3.434" transform="translate(51.232 127.541)"/>
      <g id="Grupo_1212856" data-name="Grupo 1212856" transform="translate(21.618 76.682)">
        <path id="Trazado_901943" data-name="Trazado 901943" d="M107.74,127.559h-3.219v-6.438h6.652v3.219H107.74Z" transform="translate(-104.521 -121.121)" fill="#fff"/>
        <path id="Trazado_901944" data-name="Trazado 901944" d="M283.083,127.559h-3.219v-6.438h6.652v3.219h-3.433Z" transform="translate(-243.597 -121.121)" fill="#fff"/>
        <rect id="Rectángulo_408975" data-name="Rectángulo 408975" width="3.434" height="3.219" transform="translate(9.871 0)" fill="#fff"/>
        <rect id="Rectángulo_408976" data-name="Rectángulo 408976" width="3.219" height="3.219" transform="translate(46.138 0)" fill="#fff"/>
      </g>
      <path id="Trazado_901945" data-name="Trazado 901945" d="M112.334,65.094h-3.219v4.925H72.976V139.14h36.139v4.925h3.219V139.14h36.353V70.019H112.334Zm0,26.4V89.773h33.134v13.3H112.334v-1.717h-3.219v1.717H76.195V89.772h32.92v1.717h3.219Zm-3.219,26.18v1.717H76.195V106.3h32.92v1.5h3.219v-1.5h33.134v13.09H112.334V117.67Zm3.219,18.251v-1.727h-3.219v1.727H76.195V122.605h32.92v1.717h3.219v-1.717h33.134v13.315Zm33.134-62.682V86.553H112.334V84.837h-3.219v1.717H76.195V73.238h32.92v1.727h3.219V73.238Z" transform="translate(-57.882)"/>
      <path id="Trazado_901946" data-name="Trazado 901946" d="M454.464,208.274h-5.841v8.369h-1.717v3.219h1.717v8.155h5.842l5.906-9.871ZM452.639,224.8h-.8v-13.3h.8l3.98,6.653Z" transform="translate(-354.471 -113.566)"/>
      <path id="Trazado_901947" data-name="Trazado 901947" d="M11.747,208.274H5.905L0,218.145l5.905,9.871h5.842v-8.155h1.717v-3.219H11.747v-8.369ZM8.528,224.8h-.8l-3.98-6.652,3.98-6.652h.8v13.3Z" transform="translate(0 -113.566)"/>
    </g>
  </g>
</svg>
