<svg xmlns="http://www.w3.org/2000/svg" xmlns:xlink="http://www.w3.org/1999/xlink" width="190" height="154" viewBox="0 0 190 154">
  <defs>
    <clipPath id="clip-path">
      <rect id="Rectángulo_408988" data-name="Rectángulo 408988" width="190" height="154" transform="translate(1230.126 22046)" fill="#fff" stroke="#707070" stroke-width="1" opacity="0.47"/>
    </clipPath>
  </defs>
  <g id="Enmascarar_grupo_1098788" data-name="Enmascarar grupo 1098788" transform="translate(-1230.126 -22046)" clip-path="url(#clip-path)">
    <g id="Grupo_1212284" data-name="Grupo 1212284" transform="translate(18 17082)">
      <rect id="Rectángulo_408806" data-name="Rectángulo 408806" width="99" height="57" rx="12" transform="translate(1241.126 5029)" fill="#497d74"/>
      <rect id="Rectángulo_408807" data-name="Rectángulo 408807" width="78" height="154" rx="12" transform="translate(1286.126 4964)" fill="#345953"/>
    </g>
    <g id="_06-plan" data-name="06-plan" transform="translate(1272.126 22068.859)">
      <path id="Trazado_901960" data-name="Trazado 901960" d="M22.566,1V11.175a3.4,3.4,0,0,1-3.392,3.392H9Z" fill="#4a98f7"/>
      <path id="Trazado_901961" data-name="Trazado 901961" d="M87.007,7.783V99.356a6.783,6.783,0,0,1-6.783,6.783H15.783A6.783,6.783,0,0,1,9,99.356V14.566H19.175a3.4,3.4,0,0,0,3.392-3.392V1H80.224A6.783,6.783,0,0,1,87.007,7.783Z" fill="#65b1fc"/>
      <path id="Trazado_901962" data-name="Trazado 901962" d="M20.392,17H42.437V42.437H17V20.392A3.392,3.392,0,0,1,20.392,17Z" transform="translate(5.566 11.133)" fill="#a3d4ff"/>
      <path id="Trazado_901963" data-name="Trazado 901963" d="M0,0H25.437V25.437H3.392A3.392,3.392,0,0,1,0,22.045Z" transform="translate(73.44 53.57) rotate(180)" fill="#bfe1ff"/>
      <path id="Trazado_901964" data-name="Trazado 901964" d="M3.392,0H25.437V25.437H0V3.392A3.392,3.392,0,0,1,3.392,0Z" transform="translate(73.44 79.007) rotate(180)" fill="#a3d4ff"/>
      <path id="Trazado_901965" data-name="Trazado 901965" d="M17,32H42.437V57.437H20.392A3.392,3.392,0,0,1,17,54.045Z" transform="translate(5.566 21.57)" fill="#bfe1ff"/>
      <path id="Trazado_901966" data-name="Trazado 901966" d="M56.829,16H28v3.392h5.087V41.437H28v3.392h5.087v5.087h3.392V44.829H50.045V41.437H36.479V19.392h20.35a1.7,1.7,0,0,1,1.7,1.7v8.479h3.392V21.087A5.087,5.087,0,0,0,56.829,16Z" transform="translate(13.22 10.437)" fill="#dbeeff"/>
      <path id="Trazado_901967" data-name="Trazado 901967" d="M66.874,68.453a1.7,1.7,0,0,1-1.7,1.7H44.829V65.764l7.982-7.982-2.4-2.4-8.479,8.479a1.7,1.7,0,0,0-.5,1.2v5.087H21.087a1.7,1.7,0,0,1-1.7-1.7V48.1h5.087a1.7,1.7,0,0,0,1.2-.5l8.479-8.479-2.4-2.4-7.982,7.982H19.392V24.363a1.7,1.7,0,0,1,1.7-1.7h3.392a1.7,1.7,0,0,0,1.2-.5l8.479-8.479-2.4-2.4-7.982,7.982h-2.69A5.087,5.087,0,0,0,16,24.363V68.453a5.087,5.087,0,0,0,5.087,5.087H65.178a5.087,5.087,0,0,0,5.087-5.087V53.191H66.874Z" transform="translate(4.871 7.162)" fill="#dbeeff"/>
      <path id="Trazado_901968" data-name="Trazado 901968" d="M16,50h3.392v3.392H16Z" transform="translate(4.871 34.094)" fill="#dbeeff"/>
      <path id="Trazado_901969" data-name="Trazado 901969" d="M20,50H67.482v3.392H20Z" transform="translate(7.654 34.094)" fill="#dbeeff"/>
      <path id="Trazado_901970" data-name="Trazado 901970" d="M18,54H65.482v3.392H18Z" transform="translate(6.262 36.877)" fill="#dbeeff"/>
      <path id="Trazado_901971" data-name="Trazado 901971" d="M68.566,52V63.871H55V52H68.566Z" transform="translate(32.007 35.486)" fill="#d2eb5a"/>
      <path id="Trazado_901972" data-name="Trazado 901972" d="M68.566,55v6.783H55V55H68.566Z" transform="translate(32.007 37.573)" fill="#b4d241"/>
      <path id="Trazado_901973" data-name="Trazado 901973" d="M67.958,59v6.783H51A6.783,6.783,0,0,0,57.783,59Z" transform="translate(29.224 40.356)" fill="#d2eb5a"/>
      <path id="Trazado_901974" data-name="Trazado 901974" d="M64.887,41.605c-2.2-3.561-5.46-7.258-9.887-8.547V19l5.087,3.392Z" transform="translate(32.007 12.524)" fill="#faa68e"/>
      <path id="Trazado_901975" data-name="Trazado 901975" d="M73.524,64.308V69.4H63.35V51.555c-8.479-3.222-8.479-14.38-8.479-14.38H48.087a5.087,5.087,0,0,1,0-10.175H59.958a11.63,11.63,0,0,1,3.392.492c4.426,1.289,7.682,4.986,9.887,8.547a37.08,37.08,0,0,1,3.68,7.919V60.916a3.322,3.322,0,0,1-3.392,3.392Z" transform="translate(23.657 18.091)" fill="#ffdecf"/>
      <path id="Trazado_901976" data-name="Trazado 901976" d="M48.087,32.087A5.087,5.087,0,0,1,53.175,27H48.087a5.087,5.087,0,0,0,0,10.175h5.087A5.087,5.087,0,0,1,48.087,32.087Z" transform="translate(23.657 18.091)" fill="#ffcdbe"/>
      <path id="Trazado_901977" data-name="Trazado 901977" d="M55.087,33H50s0,11.158,8.479,14.38V65.22h5.087V47.38C55.087,44.158,55.087,33,55.087,33Z" transform="translate(28.528 22.266)" fill="#ffcdbe"/>
      <g id="Grupo_1212860" data-name="Grupo 1212860" transform="translate(9 1)">
        <path id="Trazado_901978" data-name="Trazado 901978" d="M87.007,46.787v-39A6.783,6.783,0,0,0,80.224,1H22.566L9,14.566v84.79a6.783,6.783,0,0,0,6.783,6.783h64.44a6.783,6.783,0,0,0,6.783-6.783V68.832" transform="translate(-9 -1)" fill="none" stroke="#000" stroke-linejoin="round" stroke-width="2"/>
        <path id="Trazado_901979" data-name="Trazado 901979" d="M22.566,1,9,14.566H19.175a3.392,3.392,0,0,0,3.392-3.392Z" transform="translate(-9 -1)" fill="none" stroke="#000" stroke-linejoin="round" stroke-width="2"/>
        <path id="Trazado_901980" data-name="Trazado 901980" d="M63.35,69.4H73.524V64.308a3.322,3.322,0,0,0,3.392-3.392V43.958S71.829,27,59.958,27H48.087a5.087,5.087,0,0,0,0,10.175h6.783s0,15.262,13.566,15.262" transform="translate(14.657 17.091)" fill="none" stroke="#000" stroke-linejoin="round" stroke-width="2"/>
        <path id="Trazado_901981" data-name="Trazado 901981" d="M65.175,52h3.392V63.871H55" transform="translate(23.007 34.486)" fill="none" stroke="#000" stroke-linejoin="round" stroke-width="2"/>
        <path id="Trazado_901982" data-name="Trazado 901982" d="M61,59v6.783" transform="translate(27.182 39.356)" fill="none" stroke="#000" stroke-linejoin="round" stroke-width="2"/>
        <path id="Trazado_901983" data-name="Trazado 901983" d="M55,19l5.087,3.392,4.8,19.213" transform="translate(23.007 11.524)" fill="none" stroke="#000" stroke-linejoin="round" stroke-width="2"/>
        <path id="Trazado_901984" data-name="Trazado 901984" d="M32,17V49.22" transform="translate(7.003 10.133)" fill="none" stroke="#000" stroke-linejoin="round" stroke-width="2"/>
        <path id="Trazado_901985" data-name="Trazado 901985" d="M50.045,32H28" transform="translate(4.22 20.57)" fill="none" stroke="#000" stroke-linejoin="round" stroke-width="2"/>
        <path id="Trazado_901986" data-name="Trazado 901986" d="M60.22,28.871V20.392A3.392,3.392,0,0,0,56.829,17H28" transform="translate(4.22 10.133)" fill="none" stroke="#000" stroke-linejoin="round" stroke-width="2"/>
        <path id="Trazado_901987" data-name="Trazado 901987" d="M32.262,12l-8.479,8.479H20.392A3.392,3.392,0,0,0,17,23.871V67.961a3.392,3.392,0,0,0,3.392,3.392H64.482a3.392,3.392,0,0,0,3.392-3.392V52.7" transform="translate(-3.434 6.654)" fill="none" stroke="#000" stroke-linejoin="round" stroke-width="2"/>
        <path id="Trazado_901988" data-name="Trazado 901988" d="M32.262,27l-8.479,8.479H17" transform="translate(-3.434 17.091)" fill="none" stroke="#000" stroke-linejoin="round" stroke-width="2"/>
        <path id="Trazado_901989" data-name="Trazado 901989" d="M32,53.262V46.479L40.479,38" transform="translate(7.003 24.745)" fill="none" stroke="#000" stroke-linejoin="round" stroke-width="2"/>
        <path id="Trazado_901990" data-name="Trazado 901990" d="M16,51h3.392" transform="translate(-4.129 33.79)" fill="none" stroke="#000" stroke-linejoin="round" stroke-width="2"/>
        <path id="Trazado_901991" data-name="Trazado 901991" d="M20,51H67.482" transform="translate(-1.346 33.79)" fill="none" stroke="#000" stroke-linejoin="round" stroke-width="2"/>
        <path id="Trazado_901992" data-name="Trazado 901992" d="M18,55H65.482" transform="translate(-2.738 36.573)" fill="none" stroke="#000" stroke-linejoin="round" stroke-width="2"/>
      </g>
    </g>
  </g>
</svg>
