<svg xmlns="http://www.w3.org/2000/svg" xmlns:xlink="http://www.w3.org/1999/xlink" width="105" height="104.999" viewBox="0 0 105 104.999">
  <defs>
    <clipPath id="clip-path">
      <path id="path3918" d="M0-682.665H71.435v71.435H0Z" transform="translate(0 682.665)"/>
    </clipPath>
  </defs>
  <g id="Grupo_1212955" data-name="Grupo 1212955" transform="translate(-590.025 -2555.497)">
    <g id="Grupo_1212324" data-name="Grupo 1212324" transform="translate(590.026 2555.497)">
      <g id="Grupo_1098742" data-name="Grupo 1098742" transform="translate(0)">
        <g id="Rect치ngulo_400898" data-name="Rect치ngulo 400898" transform="translate(0.001 0)" fill="#eabe94" stroke="#497d74" stroke-width="1">
          <rect width="104.999" height="104.999" rx="52.5" stroke="none"/>
          <rect x="0.5" y="0.5" width="103.999" height="103.999" rx="52" fill="none"/>
        </g>
        <g id="Rect치ngulo_400907" data-name="Rect치ngulo 400907" transform="translate(0 0)" fill="none" stroke="#497d74" stroke-width="1">
          <rect width="104.999" height="104.999" rx="52.5" stroke="none"/>
          <rect x="0.5" y="0.5" width="103.999" height="103.999" rx="52" fill="none"/>
        </g>
      </g>
    </g>
    <g id="g3912" transform="translate(606.808 3257.199)">
      <g id="g3914" transform="translate(0 -682.665)">
        <g id="g3916" clip-path="url(#clip-path)">
          <g id="g3922" transform="translate(7.512 32.073)">
            <path id="path3924" d="M-133.225-3.486l-15.389,15.441a.616.616,0,0,0,.436,1.05h40.087a1.386,1.386,0,0,0,.981-.407L-91.721-2.843a.616.616,0,0,0-.436-1.05h-40.087a1.385,1.385,0,0,0-.981.407" transform="translate(148.795 3.893)" fill="#ffa78f"/>
          </g>
          <g id="g3926" transform="translate(31.397 37.594)">
            <path id="path3928" d="M-30.88,0a3.609,3.609,0,0,0-3.609,3.609A3.609,3.609,0,0,0-30.88,7.218a3.609,3.609,0,0,0,3.609-3.609A3.609,3.609,0,0,0-30.88,0" transform="translate(34.489)" fill="#f89580"/>
          </g>
          <g id="g3930" transform="translate(43.751 32.073)">
            <path id="path3932" d="M-174.543,0h-4.465a.616.616,0,0,1,.436,1.05l-15.389,15.441a1.385,1.385,0,0,1-.981.407h4.465a1.385,1.385,0,0,0,.981-.407L-174.107,1.05A.616.616,0,0,0-174.543,0" transform="translate(194.942)" fill="#f89580"/>
          </g>
          <g id="g3934" transform="translate(7.512 22.838)">
            <path id="path3936" d="M-133.225-3.486l-15.389,15.441a.616.616,0,0,0,.436,1.05h40.087a1.386,1.386,0,0,0,.981-.407L-91.721-2.843a.616.616,0,0,0-.436-1.05h-40.087a1.385,1.385,0,0,0-.981.407" transform="translate(148.795 3.893)" fill="#e8ad8c"/>
          </g>
          <g id="g3938" transform="translate(43.751 22.838)">
            <path id="path3940" d="M-174.543,0h-4.465a.616.616,0,0,1,.436,1.05l-15.389,15.441a1.385,1.385,0,0,1-.981.407h4.465a1.385,1.385,0,0,0,.981-.407L-174.107,1.05A.616.616,0,0,0-174.543,0" transform="translate(194.942)" fill="#e19a74"/>
          </g>
          <g id="g3942" transform="translate(7.512 13.603)">
            <path id="path3944" d="M-133.225-3.486l-15.389,15.441a.616.616,0,0,0,.436,1.05h40.087a1.386,1.386,0,0,0,.981-.407L-91.721-2.843a.616.616,0,0,0-.436-1.05h-40.087a1.385,1.385,0,0,0-.981.407" transform="translate(148.795 3.893)" fill="#68ca44"/>
          </g>
          <g id="g3946" transform="translate(43.751 13.603)">
            <path id="path3948" d="M-174.543,0h-4.465a.616.616,0,0,1,.436,1.05l-15.389,15.441a1.385,1.385,0,0,1-.981.407h4.465a1.385,1.385,0,0,0,.981-.407L-174.107,1.05A.616.616,0,0,0-174.543,0" transform="translate(194.942)" fill="#4fc123"/>
          </g>
          <g id="g3950" transform="translate(5.028 1.046)">
            <path id="path3952" d="M-19.857,0a2.321,2.321,0,0,0-2.321,2.321,2.321,2.321,0,0,0,2.321,2.321,2.321,2.321,0,0,0,2.321-2.321A2.321,2.321,0,0,0-19.857,0" transform="translate(22.177)" fill="#2ed1e1"/>
          </g>
          <g id="g3954" transform="translate(58.687 53.799)">
            <path id="path3956" d="M-19.857,0a2.321,2.321,0,0,0-2.321,2.321,2.321,2.321,0,0,0,2.321,2.321,2.321,2.321,0,0,0,2.321-2.321A2.321,2.321,0,0,0-19.857,0" transform="translate(22.177)" fill="#ffe177"/>
          </g>
          <g id="g3958" transform="translate(19.754 44.35)">
            <path id="path3960" d="M-33.274,0c-2.148,0-3.889,1.256-3.889,2.806a2.4,2.4,0,0,0,.925,1.816h5.928a2.4,2.4,0,0,0,.925-1.816c0-1.55-1.741-2.806-3.889-2.806" transform="translate(37.163 0)" fill="#f89580"/>
          </g>
          <g id="g3962" transform="translate(31.396 39.736)">
            <path id="path3964" d="M-59.082,0a3.575,3.575,0,0,1,.313,1.466,3.609,3.609,0,0,1-3.608,3.609,3.609,3.609,0,0,1-3.609-3.609A3.574,3.574,0,0,1-65.675,0" transform="translate(65.987)" fill="none" stroke="#000" stroke-linecap="round" stroke-linejoin="round" stroke-miterlimit="10" stroke-width="1.2"/>
          </g>
          <g id="g3966" transform="translate(7.512 39.736)">
            <path id="path3968" d="M-71.355,0l-8.158,8.186a.614.614,0,0,0,.435,1.049h40.087a1.383,1.383,0,0,0,.981-.407l3.129-3.139" transform="translate(79.695)" fill="none" stroke="#000" stroke-linecap="round" stroke-linejoin="round" stroke-miterlimit="10" stroke-width="1.2"/>
          </g>
          <g id="g3970" transform="translate(55.772 32.073)">
            <path id="path3972" d="M-5.611,0H2.112a.615.615,0,0,1,.435,1.049L-6.267,9.893" transform="translate(6.267)" fill="none" stroke="#000" stroke-linecap="round" stroke-linejoin="round" stroke-miterlimit="10" stroke-width="1.2"/>
          </g>
          <g id="g3974" transform="translate(12.809 33.552)">
            <path id="path3976" d="M-52.916-52.916-59.1-59.1" transform="translate(59.1 59.1)" fill="none" stroke="#000" stroke-linecap="round" stroke-linejoin="round" stroke-miterlimit="10" stroke-width="1.2"/>
          </g>
          <g id="g3978" transform="translate(17.031 30.501)">
            <path id="path3980" d="M-79.018-79.018l-9.235-9.235" transform="translate(88.253 88.253)" fill="none" stroke="#000" stroke-linecap="round" stroke-linejoin="round" stroke-miterlimit="10" stroke-width="1.2"/>
          </g>
          <g id="g3982" transform="translate(24.305 30.501)">
            <path id="path3984" d="M-79.018-79.018l-9.235-9.235" transform="translate(88.253 88.253)" fill="none" stroke="#000" stroke-linecap="round" stroke-linejoin="round" stroke-miterlimit="10" stroke-width="1.2"/>
          </g>
          <g id="g3986" transform="translate(31.578 30.501)">
            <path id="path3988" d="M-79.018-79.018l-9.235-9.235" transform="translate(88.253 88.253)" fill="none" stroke="#000" stroke-linecap="round" stroke-linejoin="round" stroke-miterlimit="10" stroke-width="1.2"/>
          </g>
          <g id="g3990" transform="translate(38.85 30.501)">
            <path id="path3992" d="M-79.03-79.018l-9.236-9.235" transform="translate(88.266 88.253)" fill="none" stroke="#000" stroke-linecap="round" stroke-linejoin="round" stroke-miterlimit="10" stroke-width="1.2"/>
          </g>
          <g id="g3994" transform="translate(46.124 30.501)">
            <path id="path3996" d="M-50.88-50.88l-5.946-5.946" transform="translate(56.827 56.827)" fill="none" stroke="#000" stroke-linecap="round" stroke-linejoin="round" stroke-miterlimit="10" stroke-width="1.2"/>
          </g>
          <g id="g3998" transform="translate(51.09 28.193)">
            <path id="path4000" d="M-39.455-39.455l-4.611-4.611" transform="translate(44.067 44.067)" fill="none" stroke="#000" stroke-linecap="round" stroke-linejoin="round" stroke-miterlimit="10" stroke-width="1.2"/>
          </g>
          <g id="g4002" transform="translate(54.72 24.552)">
            <path id="path4004" d="M-39.443-39.455l-4.61-4.611" transform="translate(44.053 44.067)" fill="none" stroke="#000" stroke-linecap="round" stroke-linejoin="round" stroke-miterlimit="10" stroke-width="1.2"/>
          </g>
          <g id="g4006" transform="translate(7.512 22.838)">
            <path id="path4008" d="M-418.551,0h7.722a.615.615,0,0,1,.435,1.049L-425.782,16.49a1.383,1.383,0,0,1-.981.407H-466.85a.614.614,0,0,1-.435-1.049l8.158-8.186" transform="translate(467.467)" fill="none" stroke="#000" stroke-linecap="round" stroke-linejoin="round" stroke-miterlimit="10" stroke-width="1.2"/>
          </g>
          <g id="g4010" transform="translate(7.512 13.603)">
            <path id="path4012" d="M-296.047,0h-18.048a1.386,1.386,0,0,0-.981.407l-15.389,15.441a.616.616,0,0,0,.436,1.05h40.087a1.385,1.385,0,0,0,.981-.407L-273.572,1.05A.616.616,0,0,0-274.008,0h-17.156" transform="translate(330.646)" fill="none" stroke="#000" stroke-linecap="round" stroke-linejoin="round" stroke-miterlimit="10" stroke-width="1.2"/>
          </g>
          <g id="g4014" transform="translate(9.669 3.367)">
            <path id="path4016" d="M0,0H7.545L22.129,13.063" transform="translate(0 0.003)" fill="none" stroke="#000" stroke-linecap="round" stroke-linejoin="round" stroke-miterlimit="10" stroke-width="1.2"/>
          </g>
          <g id="g4018" transform="translate(5.028 1.046)">
            <path id="path4020" d="M-19.857,0a2.321,2.321,0,0,0-2.321,2.321,2.321,2.321,0,0,0,2.321,2.321,2.321,2.321,0,0,0,2.321-2.321A2.32,2.32,0,0,0-19.857,0Z" transform="translate(22.177)" fill="none" stroke="#000" stroke-linecap="round" stroke-linejoin="round" stroke-miterlimit="10" stroke-width="1.2"/>
          </g>
          <g id="g4022" transform="translate(5.028 10.593)">
            <path id="path4024" d="M0,0H4.626" fill="none" stroke="#000" stroke-linecap="round" stroke-linejoin="round" stroke-miterlimit="10" stroke-width="1.2"/>
          </g>
          <g id="g4026" transform="translate(5.028 14.774)">
            <path id="path4028" d="M0,0H7.72" fill="none" stroke="#000" stroke-linecap="round" stroke-linejoin="round" stroke-miterlimit="10" stroke-width="1.2"/>
          </g>
          <g id="g4030" transform="translate(5.028 18.955)">
            <path id="path4032" d="M0,0H7.72" fill="none" stroke="#000" stroke-linecap="round" stroke-linejoin="round" stroke-miterlimit="10" stroke-width="1.2"/>
          </g>
          <g id="g4034" transform="translate(40.19 46.113)">
            <path id="path4036" d="M0,0,10.006,10.006H18.5" fill="none" stroke="#000" stroke-linecap="round" stroke-linejoin="round" stroke-miterlimit="10" stroke-width="1.2"/>
          </g>
          <g id="g4038" transform="translate(58.687 53.799)">
            <path id="path4040" d="M-19.857,0a2.321,2.321,0,0,0-2.321,2.321,2.321,2.321,0,0,0,2.321,2.321,2.321,2.321,0,0,0,2.321-2.321A2.321,2.321,0,0,0-19.857,0Z" transform="translate(22.177)" fill="none" stroke="#000" stroke-linecap="round" stroke-linejoin="round" stroke-miterlimit="10" stroke-width="1.2"/>
          </g>
          <g id="g4042" transform="translate(58.687 62.027)">
            <path id="path4044" d="M0,0H4.626" fill="none" stroke="#000" stroke-linecap="round" stroke-linejoin="round" stroke-miterlimit="10" stroke-width="1.2"/>
          </g>
          <g id="g4046" transform="translate(58.687 66.208)">
            <path id="path4048" d="M0,0H7.72" fill="none" stroke="#000" stroke-linecap="round" stroke-linejoin="round" stroke-miterlimit="10" stroke-width="1.2"/>
          </g>
          <g id="g4050" transform="translate(58.687 70.388)">
            <path id="path4052" d="M0,0H7.72" fill="none" stroke="#000" stroke-linecap="round" stroke-linejoin="round" stroke-miterlimit="10" stroke-width="1.2"/>
          </g>
          <g id="g4054" transform="translate(19.754 44.35)">
            <path id="path4056" d="M-58.633-39.544a2.4,2.4,0,0,0,.925-1.816c0-1.55-1.741-2.806-3.889-2.806s-3.889,1.256-3.889,2.806a2.4,2.4,0,0,0,.925,1.816" transform="translate(65.485 44.165)" fill="none" stroke="#000" stroke-linecap="round" stroke-linejoin="round" stroke-miterlimit="10" stroke-width="1.2"/>
          </g>
        </g>
      </g>
    </g>
  </g>
</svg>
