<svg xmlns="http://www.w3.org/2000/svg" width="85.001" height="85" viewBox="0 0 85.001 85">
  <g id="Grupo_1212498" data-name="Grupo 1212498" transform="translate(-180.05 -22784.205)">
    <g id="Grupo_1198283" data-name="Grupo 1198283" transform="translate(180.102 22784.211)">
      <g id="Grupo_1112424" data-name="Grupo 1112424" transform="translate(-0.051 0.045)">
        <g id="Grupo_1112415" data-name="Grupo 1112415">
          <g id="Grupo_1098742" data-name="Grupo 1098742" transform="translate(0 0)">
            <g id="Rect치ngulo_400898" data-name="Rect치ngulo 400898" transform="translate(0.001 -0.051)" fill="#f5f2ce" stroke="#908619" stroke-width="3">
              <rect width="85" height="85" rx="42.5" stroke="none"/>
              <rect x="1.5" y="1.5" width="82" height="82" rx="41" fill="none"/>
            </g>
            <g id="Rect치ngulo_400907" data-name="Rect치ngulo 400907" transform="translate(0 -0.051)" fill="none" stroke="#908619" stroke-width="3">
              <rect width="85" height="85" rx="42.5" stroke="none"/>
              <rect x="1.5" y="1.5" width="82" height="82" rx="41" fill="none"/>
            </g>
          </g>
        </g>
      </g>
    </g>
    <g id="document_6621448" transform="translate(193.866 22795.994)">
      <path id="Trazado_900897" data-name="Trazado 900897" d="M47.546,19V49.364H52.9a2.679,2.679,0,1,1,0,5.358H2V19Z" transform="translate(-0.107 -1.604)" fill="#f2f2f2"/>
      <path id="Trazado_900898" data-name="Trazado 900898" d="M26.786,22.861,43.908,5.739a2.526,2.526,0,0,1,3.572,3.573L30.358,26.433,25,28.219Z" transform="translate(-2.567 -0.107)" fill="#686868"/>
      <path id="Trazado_900899" data-name="Trazado 900899" d="M30.358,28.572,25,30.358,26.786,25Z" transform="translate(-2.567 -2.246)" fill="#474747"/>
      <path id="Trazado_900900" data-name="Trazado 900900" d="M61.037,51.615V18.572A3.572,3.572,0,0,0,57.465,15H53V48.936h5.358a2.679,2.679,0,0,1,2.679,2.679Z" transform="translate(-5.561 -1.176)" fill="#ccc"/>
      <path id="Trazado_900901" data-name="Trazado 900901" d="M10.931,57.931V49H2" transform="translate(-0.107 -4.813)" fill="#ccc"/>
      <path id="Trazado_900902" data-name="Trazado 900902" d="M7,35H44.508v8.931H7Z" transform="translate(-0.642 -3.315)" fill="#f4a93c"/>
      <g id="Grupo_1212497" data-name="Grupo 1212497" transform="translate(9.931 31.685)">
        <path id="Trazado_900903" data-name="Trazado 900903" d="M11,35h1.786v3.572H11Z" transform="translate(-11 -35)" fill="#d5883e"/>
        <path id="Trazado_900904" data-name="Trazado 900904" d="M15,35h1.786v5.358H15Z" transform="translate(-11.428 -35)" fill="#d5883e"/>
        <path id="Trazado_900905" data-name="Trazado 900905" d="M19,35h1.786v3.572H19Z" transform="translate(-11.856 -35)" fill="#d5883e"/>
        <path id="Trazado_900906" data-name="Trazado 900906" d="M23,35h1.786v5.358H23Z" transform="translate(-12.283 -35)" fill="#d5883e"/>
        <path id="Trazado_900907" data-name="Trazado 900907" d="M27,35h1.786v3.572H27Z" transform="translate(-12.711 -35)" fill="#d5883e"/>
        <path id="Trazado_900908" data-name="Trazado 900908" d="M31,35h1.786v5.358H31Z" transform="translate(-13.139 -35)" fill="#d5883e"/>
        <path id="Trazado_900909" data-name="Trazado 900909" d="M35,35h1.786v3.572H35Z" transform="translate(-13.567 -35)" fill="#d5883e"/>
        <path id="Trazado_900910" data-name="Trazado 900910" d="M39,35h1.786v5.358H39Z" transform="translate(-13.995 -35)" fill="#d5883e"/>
        <path id="Trazado_900911" data-name="Trazado 900911" d="M43,35h1.786v3.572H43Z" transform="translate(-14.422 -35)" fill="#d5883e"/>
      </g>
      <path id="Trazado_900912" data-name="Trazado 900912" d="M0,0H1.786V5.052H0Z" transform="translate(38.765 8.208) rotate(-45)" fill="#b5b5b5"/>
      <path id="Trazado_900913" data-name="Trazado 900913" d="M20.5,31.358H14.251a.893.893,0,0,1-.714-1.429l1.607-2.143H8V26h8.931a.893.893,0,0,1,.714,1.429l-1.607,2.143H20.5Z" transform="translate(-0.749 -2.353)" fill="#b5b5b5"/>
      <path id="Trazado_900914" data-name="Trazado 900914" d="M15,48H45.364v1.786H15Z" transform="translate(-1.497 -4.706)" fill="#b5b5b5"/>
      <path id="Trazado_900915" data-name="Trazado 900915" d="M15,52H45.364v1.786H15Z" transform="translate(-1.497 -5.133)" fill="#b5b5b5"/>
      <path id="Trazado_900916" data-name="Trazado 900916" d="M51.9,12.931H47.439a.893.893,0,0,0-.893.893V16.5H38.878l6.666-6.666A3.419,3.419,0,1,0,40.709,5l-11.5,11.5H1.893A.893.893,0,0,0,1,17.4V53.118a.893.893,0,0,0,.893.893H52.8a3.572,3.572,0,0,0,3.572-3.572V17.4A4.471,4.471,0,0,0,51.9,12.931ZM24.61,24.407l1.529,1.529-2.293.764Zm3.182.656-2.309-2.309L39.4,8.835l2.309,2.309Zm14.18-18.8a1.633,1.633,0,1,1,2.31,2.31L42.973,9.882,40.664,7.572ZM9.931,50.962,4.049,45.08H9.931ZM2.786,46.343l5.882,5.882H2.786ZM52.8,52.225H11.717V44.187a.893.893,0,0,0-.893-.893H2.786V18.289H27.422l-3.834,3.834a.9.9,0,0,0-.216.349L21.586,27.83a.893.893,0,0,0,.848,1.175.905.905,0,0,0,.282-.046l5.358-1.786a.9.9,0,0,0,.349-.216l8.669-8.669h9.454V47.76a.893.893,0,0,0,.893.893H52.8a1.786,1.786,0,0,1,0,3.572Zm1.786-4.879a3.545,3.545,0,0,0-1.786-.48H48.332V14.717H51.9A2.679,2.679,0,0,1,54.583,17.4Z"/>
      <path id="Trazado_900917" data-name="Trazado 900917" d="M44.4,34H6.893A.893.893,0,0,0,6,34.893v8.931a.893.893,0,0,0,.893.893H44.4a.893.893,0,0,0,.893-.893V34.893A.893.893,0,0,0,44.4,34Zm-.893,8.931H7.786V35.786h2.679v2.679h1.786V35.786h1.786v4.465h1.786V35.786H17.61v2.679H19.4V35.786h1.786v4.465h1.786V35.786h1.786v2.679H26.54V35.786h1.786v4.465h1.786V35.786H31.9v2.679h1.786V35.786h1.786v4.465h1.786V35.786h1.786v2.679h1.786V35.786h2.679Z" transform="translate(-0.535 -3.208)"/>
      <path id="Trazado_900918" data-name="Trazado 900918" d="M13.537,29.929a.893.893,0,0,0,.714,1.429H20.5V29.572H16.037l1.607-2.143A.893.893,0,0,0,16.931,26H8v1.786h7.144Z" transform="translate(-0.749 -2.353)"/>
      <path id="Trazado_900919" data-name="Trazado 900919" d="M15,48H45.364v1.786H15Z" transform="translate(-1.497 -4.706)"/>
      <path id="Trazado_900920" data-name="Trazado 900920" d="M15,52H45.364v1.786H15Z" transform="translate(-1.497 -5.133)"/>
    </g>
  </g>
</svg>
