<svg xmlns="http://www.w3.org/2000/svg" xmlns:xlink="http://www.w3.org/1999/xlink" width="190" height="154" viewBox="0 0 190 154">
  <defs>
    <clipPath id="clip-path">
      <rect id="Rectángulo_408990" data-name="Rectángulo 408990" width="190" height="154" transform="translate(1230.126 25677)" fill="#fff" stroke="#707070" stroke-width="1" opacity="0.47"/>
    </clipPath>
  </defs>
  <g id="Enmascarar_grupo_1098790" data-name="Enmascarar grupo 1098790" transform="translate(-1230.126 -25677)" clip-path="url(#clip-path)">
    <g id="Grupo_1212290" data-name="Grupo 1212290" transform="translate(18 20713)">
      <rect id="Rectángulo_408806" data-name="Rectángulo 408806" width="99" height="57" rx="12" transform="translate(1241.126 5029)" fill="#497d74"/>
      <rect id="Rectángulo_408807" data-name="Rectángulo 408807" width="78" height="154" rx="12" transform="translate(1286.126 4964)" fill="#345953"/>
    </g>
    <g id="timeline_1136910" transform="translate(1251.137 25695.016)">
      <path id="Trazado_902023" data-name="Trazado 902023" d="M206.834,25.668h19.638a1.964,1.964,0,0,1,1.964,1.964V129.753a1.964,1.964,0,0,1-1.964,1.963H206.834a1.964,1.964,0,0,1-1.963-1.963V27.632a1.964,1.964,0,0,1,1.963-1.964Zm0,0" transform="translate(-157.722 -19.707)" fill="#c52828"/>
      <path id="Trazado_902024" data-name="Trazado 902024" d="M206.834,25.668h13.747a1.964,1.964,0,0,1,1.963,1.964V129.753a1.964,1.964,0,0,1-1.963,1.963H206.834a1.964,1.964,0,0,1-1.963-1.963V27.632a1.964,1.964,0,0,1,1.963-1.964Zm0,0" transform="translate(-157.722 -19.707)" fill="#f44335"/>
      <path id="Trazado_902025" data-name="Trazado 902025" d="M249.5,117.9a1.964,1.964,0,0,1-1.964-1.964V2.033a1.964,1.964,0,0,1,3.928,0v113.9A1.963,1.963,0,0,1,249.5,117.9Zm0,0" transform="translate(-190.567)" fill="#2c2f38"/>
      <path id="Trazado_902026" data-name="Trazado 902026" d="M282.886,63.729H249.5a1.964,1.964,0,1,1,0-3.929h33.386a1.964,1.964,0,0,1,0,3.929Zm0,0" transform="translate(-190.568 -45.985)" fill="#a5a5a4"/>
      <path id="Trazado_902027" data-name="Trazado 902027" d="M424.7,28.92A11.792,11.792,0,0,1,412.92,40.7a12.1,12.1,0,0,1-2.946-.373,11.772,11.772,0,0,1,0-22.8,11.167,11.167,0,0,1,2.946-.393A11.791,11.791,0,0,1,424.7,28.92Zm0,0" transform="translate(-308.819 -13.139)" fill="#0377bc"/>
      <path id="Trazado_902028" data-name="Trazado 902028" d="M282.886,302.662H249.5a1.964,1.964,0,1,1,0-3.928h33.386a1.964,1.964,0,0,1,0,3.928Zm0,0" transform="translate(-190.568 -229.93)" fill="#a5a5a4"/>
      <path id="Trazado_902029" data-name="Trazado 902029" d="M424.7,267.854a11.793,11.793,0,0,1-11.783,11.783,12.106,12.106,0,0,1-2.946-.373,11.772,11.772,0,0,1,0-22.8,11.166,11.166,0,0,1,2.946-.393A11.791,11.791,0,0,1,424.7,267.854Zm0,0" transform="translate(-308.819 -197.085)" fill="#0377bc"/>
      <path id="Trazado_902030" data-name="Trazado 902030" d="M443.125,55.2A3.928,3.928,0,1,1,439.2,51.27,3.928,3.928,0,0,1,443.125,55.2Zm0,0" transform="translate(-335.096 -39.417)" fill="#285680"/>
      <path id="Trazado_902031" data-name="Trazado 902031" d="M443.125,294.131A3.928,3.928,0,1,1,439.2,290.2,3.928,3.928,0,0,1,443.125,294.131Zm0,0" transform="translate(-335.096 -223.362)" fill="#285680"/>
      <path id="Trazado_902032" data-name="Trazado 902032" d="M141.746,405.064H104.433a1.964,1.964,0,1,1,0-3.928h37.313a1.964,1.964,0,0,1,0,3.928Zm0,0" transform="translate(-78.887 -308.765)" fill="#a5a5a4"/>
      <path id="Trazado_902033" data-name="Trazado 902033" d="M32.169,370.252a11.794,11.794,0,0,1-11.784,11.784,12.1,12.1,0,0,1-2.945-.374,11.771,11.771,0,0,1,0-22.8,11.24,11.24,0,0,1,2.945-.393,11.793,11.793,0,0,1,11.784,11.783Zm0,0" transform="translate(-6.622 -275.917)" fill="#0377bc"/>
      <path id="Trazado_902034" data-name="Trazado 902034" d="M141.746,200.263H104.433a1.964,1.964,0,1,1,0-3.928h37.313a1.964,1.964,0,0,1,0,3.928Zm0,0" transform="translate(-78.887 -151.097)" fill="#a5a5a4"/>
      <path id="Trazado_902035" data-name="Trazado 902035" d="M32.169,165.452a11.793,11.793,0,0,1-11.784,11.783,12.141,12.141,0,0,1-2.945-.373,11.772,11.772,0,0,1,0-22.8,11.241,11.241,0,0,1,2.945-.393,11.794,11.794,0,0,1,11.784,11.784Zm0,0" transform="translate(-6.622 -118.249)" fill="#0377bc"/>
      <path id="Trazado_902036" data-name="Trazado 902036" d="M418.812,30.234a11.821,11.821,0,0,1-8.838,11.41,11.772,11.772,0,0,1,0-22.8,11.779,11.779,0,0,1,8.838,11.39Zm0,0" transform="translate(-308.819 -14.453)" fill="#02a9f4"/>
      <path id="Trazado_902037" data-name="Trazado 902037" d="M418.812,269.168a11.821,11.821,0,0,1-8.838,11.41,11.772,11.772,0,0,1,0-22.8,11.779,11.779,0,0,1,8.838,11.39Zm0,0" transform="translate(-308.819 -198.399)" fill="#02a9f4"/>
      <path id="Trazado_902038" data-name="Trazado 902038" d="M26.277,371.566a11.819,11.819,0,0,1-8.837,11.41,11.771,11.771,0,0,1,0-22.8,11.78,11.78,0,0,1,8.837,11.39Zm0,0" transform="translate(-6.622 -277.231)" fill="#02a9f4"/>
      <path id="Trazado_902039" data-name="Trazado 902039" d="M26.277,166.766a11.82,11.82,0,0,1-8.837,11.41,11.772,11.772,0,0,1,0-22.8,11.78,11.78,0,0,1,8.837,11.391Zm0,0" transform="translate(-6.622 -119.563)" fill="#02a9f4"/>
      <path id="Trazado_902040" data-name="Trazado 902040" d="M50.591,396.529a3.928,3.928,0,1,1-3.929-3.928A3.928,3.928,0,0,1,50.591,396.529Zm0,0" transform="translate(-32.9 -302.195)" fill="#02a9f4"/>
      <path id="Trazado_902041" data-name="Trazado 902041" d="M50.591,191.729a3.928,3.928,0,1,1-3.929-3.929A3.929,3.929,0,0,1,50.591,191.729Zm0,0" transform="translate(-32.9 -144.527)" fill="#02a9f4"/>
      <g id="Grupo_1212862" data-name="Grupo 1212862" transform="translate(53.04 13.816)">
        <path id="Trazado_902042" data-name="Trazado 902042" d="M236.36,63.729h-3.928a1.964,1.964,0,0,1,0-3.929h3.928a1.964,1.964,0,0,1,0,3.929Zm0,0" transform="translate(-230.468 -59.801)" fill="#a5a5a4"/>
        <path id="Trazado_902043" data-name="Trazado 902043" d="M240.289,97.865h-7.855a1.964,1.964,0,1,1,0-3.928h7.855a1.964,1.964,0,0,1,0,3.928Zm0,0" transform="translate(-230.469 -86.081)" fill="#a5a5a4"/>
        <path id="Trazado_902044" data-name="Trazado 902044" d="M240.289,132h-7.855a1.964,1.964,0,1,1,0-3.928h7.855a1.964,1.964,0,0,1,0,3.928Zm0,0" transform="translate(-230.469 -112.359)" fill="#a5a5a4"/>
        <path id="Trazado_902045" data-name="Trazado 902045" d="M240.289,166.131h-7.855a1.964,1.964,0,1,1,0-3.928h7.855a1.964,1.964,0,0,1,0,3.928Zm0,0" transform="translate(-230.469 -138.637)" fill="#a5a5a4"/>
        <path id="Trazado_902046" data-name="Trazado 902046" d="M240.289,234.4h-7.855a1.964,1.964,0,1,1,0-3.928h7.855a1.964,1.964,0,0,1,0,3.928Zm0,0" transform="translate(-230.469 -191.191)" fill="#a5a5a4"/>
        <path id="Trazado_902047" data-name="Trazado 902047" d="M240.289,268.529h-7.855a1.964,1.964,0,1,1,0-3.928h7.855a1.964,1.964,0,0,1,0,3.928Zm0,0" transform="translate(-230.469 -217.469)" fill="#a5a5a4"/>
        <path id="Trazado_902048" data-name="Trazado 902048" d="M236.36,302.662h-3.928a1.964,1.964,0,1,1,0-3.928h3.928a1.964,1.964,0,0,1,0,3.928Zm0,0" transform="translate(-230.468 -243.746)" fill="#a5a5a4"/>
        <path id="Trazado_902049" data-name="Trazado 902049" d="M240.289,336.8h-7.855a1.964,1.964,0,1,1,0-3.928h7.855a1.964,1.964,0,0,1,0,3.928Zm0,0" transform="translate(-230.469 -270.027)" fill="#a5a5a4"/>
        <path id="Trazado_902050" data-name="Trazado 902050" d="M240.289,370.931h-7.855a1.964,1.964,0,1,1,0-3.928h7.855a1.964,1.964,0,0,1,0,3.928Zm0,0" transform="translate(-230.469 -296.304)" fill="#a5a5a4"/>
        <path id="Trazado_902051" data-name="Trazado 902051" d="M240.289,439.2h-7.855a1.964,1.964,0,1,1,0-3.928h7.855a1.964,1.964,0,0,1,0,3.928Zm0,0" transform="translate(-230.469 -348.859)" fill="#a5a5a4"/>
      </g>
      <path id="Trazado_902052" data-name="Trazado 902052" d="M90.511,17.745a13.748,13.748,0,1,0,0-3.929H72.678V7.926A3.932,3.932,0,0,0,68.751,4H60.9V2.034a1.964,1.964,0,0,0-3.928,0V4H49.112a3.932,3.932,0,0,0-3.928,3.928V45.239H27.353a13.747,13.747,0,1,0,0,3.928H45.185V92.372H27.353a13.747,13.747,0,1,0,0,3.928H45.185v13.747a3.933,3.933,0,0,0,3.928,3.928h7.855v1.963a1.964,1.964,0,1,0,3.928,0v-1.963h7.855a3.932,3.932,0,0,0,3.928-3.928V72.733H90.511a13.747,13.747,0,1,0,0-3.928H72.678V17.745ZM104.1,5.961a9.82,9.82,0,1,1-9.82,9.82,9.82,9.82,0,0,1,9.82-9.82ZM13.763,57.022a9.819,9.819,0,1,1,9.82-9.819A9.819,9.819,0,0,1,13.763,57.022Zm0,47.133a9.819,9.819,0,1,1,9.82-9.82A9.819,9.819,0,0,1,13.763,104.155Zm43.205-3.928H55a1.964,1.964,0,1,0,0,3.928h1.963v5.892H49.112V96.3h7.855Zm0-47.133H55a1.964,1.964,0,1,0,0,3.928h1.963V60.95H55a1.964,1.964,0,1,0,0,3.928h1.963V68.8H55a1.964,1.964,0,1,0,0,3.928h1.963v3.929H55a1.964,1.964,0,1,0,0,3.928h1.963v3.928H55a1.964,1.964,0,1,0,0,3.928h1.963v3.928H49.112V49.167h7.855Zm0-39.278H55a1.964,1.964,0,0,0,0,3.929h1.963v3.928H55A1.964,1.964,0,1,0,55,25.6h1.963v3.928H55a1.964,1.964,0,1,0,0,3.928h1.963v3.928H55a1.964,1.964,0,1,0,0,3.928h1.963v3.928H49.112V7.926h7.855ZM60.9,7.926h7.855v5.891H60.9Zm0,56.952H62.86a1.964,1.964,0,0,0,0-3.928H60.9V57.022H62.86a1.964,1.964,0,0,0,0-3.928H60.9V49.167H62.86a1.964,1.964,0,0,0,0-3.928H60.9V41.311H62.86a1.964,1.964,0,0,0,0-3.928H60.9V33.456H62.86a1.964,1.964,0,0,0,0-3.928H60.9V25.6H62.86a1.964,1.964,0,0,0,0-3.928H60.9V17.745h7.856V68.8H60.9Zm0,45.17v-5.892H62.86a1.964,1.964,0,0,0,0-3.928H60.9V96.3H62.86a1.964,1.964,0,0,0,0-3.928H60.9V88.444H62.86a1.964,1.964,0,0,0,0-3.928H60.9V80.589H62.86a1.964,1.964,0,0,0,0-3.928H60.9V72.733h7.857l0,37.314ZM104.1,60.95a9.82,9.82,0,1,1-9.82,9.82A9.82,9.82,0,0,1,104.1,60.95Zm0,0" transform="translate(0 -0.001)"/>
      <path id="Trazado_902053" data-name="Trazado 902053" d="M432.626,54.518a5.892,5.892,0,1,0-5.892-5.892A5.893,5.893,0,0,0,432.626,54.518Zm0-7.856a1.964,1.964,0,1,1-1.964,1.964A1.965,1.965,0,0,1,432.626,46.662Zm0,0" transform="translate(-328.526 -32.846)"/>
      <path id="Trazado_902054" data-name="Trazado 902054" d="M432.626,293.452a5.892,5.892,0,1,0-5.892-5.892A5.893,5.893,0,0,0,432.626,293.452Zm0-7.856a1.964,1.964,0,1,1-1.964,1.964A1.965,1.965,0,0,1,432.626,285.6Zm0,0" transform="translate(-328.526 -216.791)"/>
      <path id="Trazado_902055" data-name="Trazado 902055" d="M40.094,384.07a5.892,5.892,0,1,0,5.892,5.891A5.891,5.891,0,0,0,40.094,384.07Zm0,7.855a1.964,1.964,0,1,1,1.964-1.964A1.964,1.964,0,0,1,40.094,391.925Zm0,0" transform="translate(-26.332 -295.626)"/>
      <path id="Trazado_902056" data-name="Trazado 902056" d="M40.094,179.27a5.892,5.892,0,1,0,5.892,5.892A5.891,5.891,0,0,0,40.094,179.27Zm0,7.855a1.964,1.964,0,1,1,1.964-1.963A1.964,1.964,0,0,1,40.094,187.125Zm0,0" transform="translate(-26.332 -137.959)"/>
    </g>
  </g>
</svg>
