<svg xmlns="http://www.w3.org/2000/svg" xmlns:xlink="http://www.w3.org/1999/xlink" width="118" height="118" viewBox="0 0 118 118">
  <defs>
    <filter id="Trazado_896985" x="0" y="0" width="118" height="118" filterUnits="userSpaceOnUse">
      <feOffset dy="3" input="SourceAlpha"/>
      <feGaussianBlur stdDeviation="3" result="blur"/>
      <feFlood flood-opacity="0.161"/>
      <feComposite operator="in" in2="blur"/>
      <feComposite in="SourceGraphic"/>
    </filter>
  </defs>
  <g id="Grupo_1212503" data-name="Grupo 1212503" transform="translate(-200.853 -25346.26)">
    <g id="Grupo_1212200" data-name="Grupo 1212200" transform="translate(3.962 7417.26)">
      <g id="Grupo_1200012" data-name="Grupo 1200012" transform="translate(-0.949 13650.111)">
        <g id="Grupo_1198723" data-name="Grupo 1198723" transform="translate(0.95 -182.434)">
          <g id="Grupo_1198139" data-name="Grupo 1198139" transform="translate(-129 615.322)">
            <g id="Grupo_1111318" data-name="Grupo 1111318" transform="translate(334.891 3852)">
              <g id="Grupo_1109826" data-name="Grupo 1109826" transform="translate(0)">
                <g id="Grupo_1098742" data-name="Grupo 1098742" transform="translate(0 0)">
                  <g transform="matrix(1, 0, 0, 1, -9, -6)" filter="url(#Trazado_896985)">
                    <g id="Trazado_896985-2" data-name="Trazado 896985" transform="translate(9 6)" fill="#d0c110" opacity="0.859">
                      <path d="M 49.99993515014648 99.5 C 43.31726837158203 99.5 36.83476257324219 98.19129943847656 30.73248100280762 95.61025238037109 C 24.83812141418457 93.11714172363281 19.54434776306152 89.54795837402344 14.99820137023926 85.00179290771484 C 10.45204162597656 80.45565032958984 6.88285493850708 75.16187286376953 4.389748573303223 69.26751708984375 C 1.808695197105408 63.16523742675781 0.5000017881393433 56.6827278137207 0.5000017881393433 50.00006103515625 C 0.5000017881393433 43.31726455688477 1.808695197105408 36.83475494384766 4.389748573303223 30.73247528076172 C 6.88285493850708 24.83811569213867 10.45204162597656 19.54434204101562 14.99820137023926 14.99819660186768 C 19.54434776306152 10.45203590393066 24.83812141418457 6.88284969329834 30.73248100280762 4.389742851257324 C 36.83476257324219 1.808689475059509 43.31726837158203 0.4999961853027344 49.99993515014648 0.4999961853027344 C 56.68260192871094 0.4999961853027344 63.16510772705078 1.808689475059509 69.26738739013672 4.389742851257324 C 75.16175079345703 6.88284969329834 80.45552062988281 10.45203590393066 85.00167083740234 14.99819660186768 C 89.54782867431641 19.54434204101562 93.11701202392578 24.83811569213867 95.61012268066406 30.73247528076172 C 98.19117736816406 36.83475494384766 99.49987030029297 43.31726455688477 99.49987030029297 49.99993133544922 C 99.49987030029297 56.6827278137207 98.19117736816406 63.16523742675781 95.61012268066406 69.26751708984375 C 93.11701202392578 75.16187286376953 89.54782867431641 80.45565032958984 85.00167083740234 85.00179290771484 C 80.45552062988281 89.54795837402344 75.16175079345703 93.11714172363281 69.26738739013672 95.61025238037109 C 63.16510772705078 98.19129943847656 56.68260192871094 99.5 49.99993515014648 99.5 Z" stroke="none"/>
                      <path d="M 49.99993515014648 0.9999923706054688 C 43.38454818725586 0.9999923706054688 36.96757507324219 2.29541015625 30.92725372314453 4.850250244140625 C 25.09249877929688 7.318145751953125 19.85213470458984 10.85135650634766 15.35174560546875 15.35174560546875 C 10.85136413574219 19.85212707519531 7.318145751953125 25.09249114990234 4.850257873535156 30.92724609375 C 2.295417785644531 36.96757125854492 1 43.38454437255859 1 50.00006103515625 C 1 56.61544799804688 2.295417785644531 63.03242111206055 4.850257873535156 69.07273864746094 C 7.318145751953125 74.90750122070312 10.85136413574219 80.14786529541016 15.35174560546875 84.64824676513672 C 19.85213470458984 89.14863586425781 25.09249877929688 92.68184661865234 30.92725372314453 95.14974212646484 C 36.96757507324219 97.70458221435547 43.38454818725586 99 49.99993515014648 99 C 56.61532211303711 99 63.03229522705078 97.70458221435547 69.07261657714844 95.14974212646484 C 74.90737915039062 92.68184661865234 80.14773559570312 89.14863586425781 84.64812469482422 84.64824676513672 C 89.14850616455078 80.14786529541016 92.68172454833984 74.90750122070312 95.14961242675781 69.07273864746094 C 97.70445251464844 63.03242111206055 98.99987030029297 56.61544799804688 98.99987030029297 49.99993133544922 C 98.99987030029297 43.38454437255859 97.70445251464844 36.96757125854492 95.14961242675781 30.92724609375 C 92.68172454833984 25.09249114990234 89.14850616455078 19.85212707519531 84.64812469482422 15.35174560546875 C 80.14773559570312 10.85135650634766 74.90737915039062 7.318145751953125 69.07261657714844 4.850250244140625 C 63.03229522705078 2.29541015625 56.61532211303711 0.9999923706054688 49.99993515014648 0.9999923706054688 M 49.99993515014648 -7.62939453125e-06 C 77.6141357421875 -7.62939453125e-06 99.99987030029297 22.38572692871094 99.99987030029297 49.99993133544922 L 99.99987030029297 50.00006103515625 C 99.99987030029297 77.61426544189453 77.6141357421875 100 49.99993515014648 100 C 22.38573455810547 100 0 77.61426544189453 0 50.00006103515625 L 0 49.99993133544922 C 0 22.38572692871094 22.38573455810547 -7.62939453125e-06 49.99993515014648 -7.62939453125e-06 Z" stroke="none" fill="#fff"/>
                    </g>
                  </g>
                  <g id="Rectángulo_400907" data-name="Rectángulo 400907" transform="translate(0)" fill="none" stroke="#fff" stroke-width="1">
                    <rect width="100" height="100" rx="50" stroke="none"/>
                    <rect x="0.5" y="0.5" width="99" height="99" rx="49.5" fill="none"/>
                  </g>
                </g>
              </g>
            </g>
          </g>
        </g>
      </g>
    </g>
    <g id="Page-1" transform="translate(224.051 25374.969)">
      <g id="_049---Click-and-Drag" data-name="049---Click-and-Drag" transform="translate(0 -0.001)">
        <path id="Shape" d="M58.2,46.293H53.455a1.075,1.075,0,0,0-1.082,1.071v9.748a2.17,2.17,0,0,1-2.164,2.164H32.9a2.17,2.17,0,0,1-2.164-2.164V47.375a1.082,1.082,0,0,0-1.082-1.082H24.9a3.875,3.875,0,0,1-3.137-6.177L33.6,24.1l4.814-6.524a3.9,3.9,0,0,1,6.275,0L49.507,24.1,61.342,40.115A3.875,3.875,0,0,1,58.2,46.293Z" transform="translate(1.721 0.229)" fill="#7f8e94"/>
        <path id="Shape-2" data-name="Shape" d="M47.164,45.075v9.743A2.17,2.17,0,0,1,45,56.982h3.246a2.17,2.17,0,0,0,2.164-2.164V45.075A1.082,1.082,0,0,1,51.491,44H48.246A1.082,1.082,0,0,0,47.164,45.075Z" transform="translate(3.685 2.522)" fill="#545c60"/>
        <path id="Shape-3" data-name="Shape" d="M59.915,40.117,43.26,17.582A3.906,3.906,0,0,0,38.5,16.36a3.849,3.849,0,0,1,1.515,1.223l16.65,22.534a3.877,3.877,0,0,1-3.137,6.175h3.246a3.877,3.877,0,0,0,3.142-6.175Z" transform="translate(3.152 0.23)" fill="#545c60"/>
        <path id="Shape-4" data-name="Shape" d="M53.965,14.982a12.954,12.954,0,0,1-5.031,10.267L44.12,18.725a3.9,3.9,0,0,0-6.275,0l-4.814,6.524A12.982,12.982,0,1,1,53.965,14.982Z" transform="translate(2.293 -0.917)" fill="#ef314c"/>
        <path id="Shape-5" data-name="Shape" d="M34.362,17.579l-3.468,4.7a12.946,12.946,0,0,0,1.9,1.828l4.814-6.524a3.827,3.827,0,0,1,1.515-1.221A3.9,3.9,0,0,0,34.362,17.579Z" transform="translate(2.53 0.229)" fill="#bb193b"/>
        <path id="Shape-6" data-name="Shape" d="M40.123,2a12.948,12.948,0,0,0-1.623.108,12.964,12.964,0,0,1,8.229,21.313l1.346,1.828A12.982,12.982,0,0,0,40.123,2Z" transform="translate(3.152 -0.917)" fill="#bb193b"/>
        <path id="Shape-7" data-name="Shape" d="M30.211,14.573a12.982,12.982,0,0,0,.184,2.164H12.9a1.082,1.082,0,0,0-1.082,1.082v3.246a1.082,1.082,0,0,1-1.731.865l-8.644-6.48a1.082,1.082,0,0,1,0-1.753l8.644-6.48a1.082,1.082,0,0,1,1.731.865v3.246A1.082,1.082,0,0,0,12.9,12.409H30.395a12.982,12.982,0,0,0-.184,2.164Z" transform="translate(0.082 -0.508)" fill="#f44335"/>
        <g id="Grupo_1212502" data-name="Grupo 1212502" transform="translate(8.655 6.492)">
          <path id="Shape-8" data-name="Shape" d="M8,11.327a1.082,1.082,0,0,0,1.082,1.082h3.246a1.082,1.082,0,0,1-1.082-1.082V8.082a1.082,1.082,0,0,0-1.731-.865L8,8.352Z" transform="translate(-8 -7)" fill="#c81e1e"/>
          <path id="Shape-9" data-name="Shape" d="M8,17.082v2.975l1.515,1.136a1.082,1.082,0,0,0,1.731-.865V17.082A1.082,1.082,0,0,1,12.327,16H9.082A1.082,1.082,0,0,0,8,17.082Z" transform="translate(-8 -6.263)" fill="#c81e1e"/>
          <path id="Shape-10" data-name="Shape" d="M28.43,12H25.184a12.82,12.82,0,0,0,0,4.327H28.43A12.82,12.82,0,0,1,28.43,12Z" transform="translate(-6.608 -6.591)" fill="#c81e1e"/>
        </g>
        <path id="Shape-11" data-name="Shape" d="M11.792,6.643a2.157,2.157,0,0,0-2.272.2L.891,13.313A2.164,2.164,0,0,0,.88,16.805l8.647,6.481a2.164,2.164,0,0,0,3.455-1.731V18.31h16.6a13.906,13.906,0,0,0,4.269,7.178L22.611,40.7a4.958,4.958,0,0,0,4.013,7.9h4.75v9.737a3.246,3.246,0,0,0,3.246,3.246H51.93a3.246,3.246,0,0,0,3.246-3.246V48.6h4.749a4.959,4.959,0,0,0,4.014-7.9L52.695,25.487A14.053,14.053,0,1,0,29.6,11.819H12.983V8.573a2.148,2.148,0,0,0-1.19-1.93ZM62.443,44.9a2.771,2.771,0,0,1-2.519,1.542H55.175A2.164,2.164,0,0,0,53.012,48.6v9.743a1.082,1.082,0,0,1-1.082,1.082H34.62a1.082,1.082,0,0,1-1.082-1.082V48.6a2.164,2.164,0,0,0-2.164-2.164h-4.75A2.766,2.766,0,0,1,24.106,44.9a2.732,2.732,0,0,1,.248-2.907L41,19.454a2.828,2.828,0,0,1,4.544,0L62.2,41.988A2.737,2.737,0,0,1,62.443,44.9ZM43.275,3.164a11.893,11.893,0,0,1,8.131,20.579l-4.119-5.575a4.993,4.993,0,0,0-8.025,0l-4.12,5.576a11.894,11.894,0,0,1,8.132-20.58ZM29.266,13.983c-.028.359-.055.717-.055,1.082s.034.722.062,1.082H12.982a2.164,2.164,0,0,0-2.164,2.164v3.246l-8.644-6.5,8.644-6.48v3.246a2.164,2.164,0,0,0,2.164,2.164Z" transform="translate(0 -0.999)"/>
      </g>
    </g>
  </g>
</svg>
