<svg xmlns="http://www.w3.org/2000/svg" width="105" height="104.999" viewBox="0 0 105 104.999">
  <g id="Grupo_1213046" data-name="Grupo 1213046" transform="translate(-904.975 -2555.497)">
    <g id="Grupo_1212957" data-name="Grupo 1212957">
      <g id="Grupo_1212325" data-name="Grupo 1212325" transform="translate(904.975 2555.497)">
        <g id="Grupo_1098742" data-name="Grupo 1098742" transform="translate(0)">
          <g id="Rect치ngulo_400898" data-name="Rect치ngulo 400898" transform="translate(0.001 0)" fill="#eabe94" stroke="#497d74" stroke-width="1">
            <rect width="104.999" height="104.999" rx="52.5" stroke="none"/>
            <rect x="0.5" y="0.5" width="103.999" height="103.999" rx="52" fill="none"/>
          </g>
          <g id="Rect치ngulo_400907" data-name="Rect치ngulo 400907" transform="translate(0 0)" fill="none" stroke="#497d74" stroke-width="1">
            <rect width="104.999" height="104.999" rx="52.5" stroke="none"/>
            <rect x="0.5" y="0.5" width="103.999" height="103.999" rx="52" fill="none"/>
          </g>
        </g>
      </g>
    </g>
    <g id="Layer_31" data-name="Layer 31" transform="translate(922.162 2573.833)">
      <path id="Trazado_902213" data-name="Trazado 902213" d="M1,13V55.521a3.271,3.271,0,0,0,3.271,3.271H66.417A2.181,2.181,0,0,0,68.6,56.611V15.181A2.181,2.181,0,0,0,66.417,13Z" transform="translate(0.09 0.451)" fill="#d6e4e8"/>
      <path id="Trazado_902214" data-name="Trazado 902214" d="M9.722,11.181v39.25a2.181,2.181,0,0,1-2.181,2.181H4.271A3.271,3.271,0,0,0,1,55.882V12.271A3.271,3.271,0,0,1,4.271,9H7.542A2.181,2.181,0,0,1,9.722,11.181Z" transform="translate(0.09 0.09)" fill="#baced3"/>
      <path id="Trazado_902215" data-name="Trazado 902215" d="M13,26H28.264V43.444H13Z" transform="translate(1.174 1.625)" fill="#f96464"/>
      <path id="Trazado_902216" data-name="Trazado 902216" d="M45,36H60.264V53.444H45Z" transform="translate(4.063 2.528)" fill="#f96464"/>
      <path id="Trazado_902217" data-name="Trazado 902217" d="M45,16H60.264V33.444H45Z" transform="translate(4.063 0.722)" fill="#f96464"/>
      <g id="Grupo_1212956" data-name="Grupo 1212956" transform="translate(14.174 19.993)">
        <path id="Trazado_902218" data-name="Trazado 902218" d="M13,26H28.264v4.361H13Z" transform="translate(-13 -18.368)" fill="#ffd3b6"/>
        <path id="Trazado_902219" data-name="Trazado 902219" d="M16,33h8.722v6.542H16Z" transform="translate(-12.729 -17.736)" fill="#ffd3b6"/>
        <path id="Trazado_902220" data-name="Trazado 902220" d="M48,19h8.722v3.271H48Z" transform="translate(-9.84 -19)" fill="#ffd3b6"/>
        <path id="Trazado_902221" data-name="Trazado 902221" d="M48,39h8.722v4.361H48Z" transform="translate(-9.84 -17.194)" fill="#ffd3b6"/>
        <path id="Trazado_902222" data-name="Trazado 902222" d="M48,26h8.722v3.271H48Z" transform="translate(-9.84 -18.368)" fill="#ffd3b6"/>
      </g>
      <path id="Trazado_902223" data-name="Trazado 902223" d="M66.507,12.361H10.9v-1.09A3.271,3.271,0,0,0,7.632,8H4.361A4.361,4.361,0,0,0,0,12.361V55.972a4.361,4.361,0,0,0,4.361,4.361H66.507a3.271,3.271,0,0,0,3.271-3.271V15.632A3.271,3.271,0,0,0,66.507,12.361ZM4.361,10.181H7.632a1.09,1.09,0,0,1,1.09,1.09v39.25a1.09,1.09,0,0,1-1.09,1.09H4.361a4.315,4.315,0,0,0-2.181.6V12.361a2.181,2.181,0,0,1,2.181-2.181ZM67.6,57.063a1.09,1.09,0,0,1-1.09,1.09H4.361a2.181,2.181,0,0,1-2.181-2.181V55.9a2.181,2.181,0,0,1,2.181-2.11H7.632A3.271,3.271,0,0,0,10.9,50.521V14.542h55.6a1.09,1.09,0,0,1,1.09,1.09Z"/>
      <path id="Trazado_902224" data-name="Trazado 902224" d="M60.354,15H45.09A1.09,1.09,0,0,0,44,16.09v4.361a1.09,1.09,0,0,0,2.181,0V17.181H59.264V32.444H46.181V29.174a1.09,1.09,0,1,0-2.181,0v4.361a1.09,1.09,0,0,0,1.09,1.09H60.354a1.09,1.09,0,0,0,1.09-1.09V16.09A1.09,1.09,0,0,0,60.354,15Z" transform="translate(3.972 0.632)"/>
      <path id="Trazado_902225" data-name="Trazado 902225" d="M60.354,35H45.09A1.09,1.09,0,0,0,44,36.09v4.361a1.09,1.09,0,1,0,2.181,0V37.181H59.264V52.444H46.181V49.174a1.09,1.09,0,1,0-2.181,0v4.361a1.09,1.09,0,0,0,1.09,1.09H60.354a1.09,1.09,0,0,0,1.09-1.09V36.09A1.09,1.09,0,0,0,60.354,35Z" transform="translate(3.972 2.438)"/>
      <path id="Trazado_902226" data-name="Trazado 902226" d="M24.813,32H16.09A1.09,1.09,0,0,0,15,33.09v6.542a1.09,1.09,0,0,0,1.09,1.09h8.722a1.09,1.09,0,0,0,1.09-1.09V33.09A1.09,1.09,0,0,0,24.813,32Zm-1.09,6.542H17.181V34.181h6.542Z" transform="translate(1.354 2.167)"/>
      <path id="Trazado_902227" data-name="Trazado 902227" d="M48.75,45.306l-2.181-2.181a1.09,1.09,0,1,0-1.542,1.542l.32.319H42.528a3.271,3.271,0,0,1-3.271-3.271,5.458,5.458,0,0,0-5.451-5.451H29.444V29.722h6.542a3.271,3.271,0,0,0,3.271-3.271,1.09,1.09,0,0,1,1.09-1.09h5l-.319.319a1.09,1.09,0,1,0,1.542,1.542l2.18-2.181a1.09,1.09,0,0,0,0-1.542l-2.181-2.181a1.09,1.09,0,1,0-1.542,1.542l.32.319h-5a3.271,3.271,0,0,0-3.271,3.271,1.09,1.09,0,0,1-1.09,1.09H29.444v-1.09a1.09,1.09,0,0,0-1.09-1.09H13.09A1.09,1.09,0,0,0,12,26.451V43.9a1.09,1.09,0,0,0,1.09,1.09H28.354a1.09,1.09,0,0,0,1.09-1.09V38.444h4.361a3.271,3.271,0,0,1,3.271,3.271,5.458,5.458,0,0,0,5.451,5.451h2.819l-.319.319a1.09,1.09,0,1,0,1.542,1.542l2.18-2.181A1.09,1.09,0,0,0,48.75,45.306ZM14.181,27.542H27.264v2.181H14.181ZM27.264,42.806H14.181V31.9H27.264Z" transform="translate(1.083 1.174)"/>
      <path id="Trazado_902228" data-name="Trazado 902228" d="M48.09,23.451h8.722a1.09,1.09,0,0,0,1.09-1.09V19.09A1.09,1.09,0,0,0,56.813,18H48.09A1.09,1.09,0,0,0,47,19.09v3.271A1.09,1.09,0,0,0,48.09,23.451Zm1.09-3.271h6.542v1.09H49.181Z" transform="translate(4.243 0.903)"/>
      <path id="Trazado_902229" data-name="Trazado 902229" d="M57.9,39.09A1.09,1.09,0,0,0,56.813,38H48.09A1.09,1.09,0,0,0,47,39.09v4.361a1.09,1.09,0,0,0,1.09,1.09h8.722a1.09,1.09,0,0,0,1.09-1.09Zm-2.181,3.271H49.181V40.181h6.542Z" transform="translate(4.243 2.708)"/>
      <path id="Trazado_902230" data-name="Trazado 902230" d="M47,29.361a1.09,1.09,0,0,0,1.09,1.09h8.722a1.09,1.09,0,0,0,1.09-1.09V26.09A1.09,1.09,0,0,0,56.813,25H48.09A1.09,1.09,0,0,0,47,26.09Zm2.181-2.181h6.542v1.09H49.181Z" transform="translate(4.243 1.535)"/>
      <path id="Trazado_902231" data-name="Trazado 902231" d="M56.632,45H50.09a1.09,1.09,0,0,0,0,2.181h6.542a1.09,1.09,0,0,0,0-2.181Z" transform="translate(4.424 3.34)"/>
      <path id="Trazado_902232" data-name="Trazado 902232" d="M48.09,50.181h8.722a1.09,1.09,0,0,0,0-2.181H48.09a1.09,1.09,0,0,0,0,2.181Z" transform="translate(4.243 3.611)"/>
      <path id="Trazado_902233" data-name="Trazado 902233" d="M61.045,19.951a.545.545,0,0,1-.545-.545V15.045a.545.545,0,0,1,1.09,0v4.361A.545.545,0,0,1,61.045,19.951Z" transform="translate(5.462 0.587)" fill="#fff"/>
    </g>
  </g>
</svg>
