<svg xmlns="http://www.w3.org/2000/svg" xmlns:xlink="http://www.w3.org/1999/xlink" width="190" height="114" viewBox="0 0 190 114">
  <defs>
    <clipPath id="clip-path">
      <rect id="Rectángulo_409003" data-name="Rectángulo 409003" width="190" height="114" transform="translate(1230.126 30462)" fill="#fff" stroke="#707070" stroke-width="1" opacity="0.47"/>
    </clipPath>
  </defs>
  <g id="Grupo_1213045" data-name="Grupo 1213045" transform="translate(-1230.126 -32715)">
    <g id="Enmascarar_grupo_1098797" data-name="Enmascarar grupo 1098797" transform="translate(0 2253)" clip-path="url(#clip-path)">
      <g id="Grupo_1213043" data-name="Grupo 1213043" transform="translate(1259.126 30462)">
        <rect id="Rectángulo_409001" data-name="Rectángulo 409001" width="99" height="44" rx="12" transform="translate(0 46)" fill="#497d74"/>
        <rect id="Rectángulo_409002" data-name="Rectángulo 409002" width="78" height="112" rx="12" transform="translate(45)" fill="#345953"/>
      </g>
      <g id="video_12491023" transform="translate(1278.917 30480.293)">
        <path id="Trazado_902294" data-name="Trazado 902294" d="M77.914,15.048v37.34a8.3,8.3,0,0,1-8.3,8.3H14.3a8.3,8.3,0,0,1-8.3-8.3V15.048a8.3,8.3,0,0,1,8.3-8.3H69.616A8.3,8.3,0,0,1,77.914,15.048Z" transform="translate(0.574 0.574)" fill="#f03800"/>
        <path id="Trazado_902295" data-name="Trazado 902295" d="M48.857,29.332a2.8,2.8,0,0,1-1.383,2.946c-1.549.94-3.141,1.812-4.7,2.711q-4.585,2.655-9.155,5.283c-2.019,1.176-5.67,4.2-7.482,1.079-.719-1.231-.36-3.112-.36-4.467V19.652A2.822,2.822,0,0,1,27.849,17c1.411-.4,2.586.553,3.734,1.217,3.181,1.839,6.348,3.665,9.529,5.5l4.605,2.655c1.286.733,2.849,1.328,3.139,2.96Z" transform="translate(8.113 4.462)" fill="#f2f2f2"/>
        <g id="Grupo_1213044" data-name="Grupo 1213044" transform="translate(4.5 5.25)">
          <path id="Trazado_902296" data-name="Trazado 902296" d="M29.156,45.408a4.883,4.883,0,0,1-4.861-4.188,8.478,8.478,0,0,1-.047-1.321l0-.328V20.227A4.923,4.923,0,0,1,29.139,15.4a4.715,4.715,0,0,1,1.281.177,6.638,6.638,0,0,1,1.624.765l6.044,3.493,11.058,6.385a4.777,4.777,0,0,1,2.347,3.59,4.865,4.865,0,0,1-1.4,4.078,6.564,6.564,0,0,1-1.477,1.025L42.57,38.395,31.514,44.778a4.725,4.725,0,0,1-2.358.629ZM29.14,19.545a.762.762,0,0,0-.739.682L28.4,39.989a4.572,4.572,0,0,0,.012.689.746.746,0,0,0,1.033.509l17.163-9.9a3.9,3.9,0,0,0,.595-.369.719.719,0,0,0,.178-.592.69.69,0,0,0-.3-.512L29.911,19.9a3.89,3.89,0,0,0-.617-.329.485.485,0,0,0-.154-.022Z" transform="translate(3.06 -1.364)" fill="#0a1a30"/>
          <path id="Trazado_902297" data-name="Trazado 902297" d="M6.574,52.739A2.073,2.073,0,0,1,4.5,50.664V13.324a2.074,2.074,0,0,1,4.149,0v37.34A2.073,2.073,0,0,1,6.574,52.739Z" transform="translate(-4.5 -2.952)" fill="#0a1a30"/>
          <path id="Trazado_902298" data-name="Trazado 902298" d="M58.574,52.739A2.074,2.074,0,0,1,56.5,50.664V13.324a2.074,2.074,0,1,1,4.149,0v37.34A2.074,2.074,0,0,1,58.574,52.739Z" transform="translate(15.414 -2.952)" fill="#0a1a30"/>
          <path id="Trazado_902299" data-name="Trazado 902299" d="M14.872,50.7A10.383,10.383,0,0,1,4.5,40.324a2.074,2.074,0,1,1,4.149,0,6.231,6.231,0,0,0,6.223,6.223,2.074,2.074,0,0,1,0,4.149Z" transform="translate(-4.5 7.388)" fill="#0a1a30"/>
          <path id="Trazado_902300" data-name="Trazado 902300" d="M67.893,48.4H12.574a2.074,2.074,0,1,1,0-4.149H67.893a2.074,2.074,0,0,1,0,4.149Z" transform="translate(-2.202 9.686)" fill="#0a1a30"/>
          <path id="Trazado_902301" data-name="Trazado 902301" d="M52.574,50.7a2.074,2.074,0,1,1,0-4.149A6.231,6.231,0,0,0,58.8,40.324a2.074,2.074,0,1,1,4.149,0A10.383,10.383,0,0,1,52.574,50.7Z" transform="translate(13.116 7.388)" fill="#0a1a30"/>
          <path id="Trazado_902302" data-name="Trazado 902302" d="M69.3,56.4H30.574a2.074,2.074,0,1,1,0-4.149H69.3a2.074,2.074,0,0,1,0,4.149Z" transform="translate(4.691 12.749)" fill="#0a1a30"/>
          <path id="Trazado_902303" data-name="Trazado 902303" d="M14.872,56.4h-8.3a2.074,2.074,0,1,1,0-4.149h8.3a2.074,2.074,0,0,1,0,4.149Z" transform="translate(-4.5 12.749)" fill="#0a1a30"/>
          <path id="Trazado_902304" data-name="Trazado 902304" d="M60.872,17.7A2.074,2.074,0,0,1,58.8,15.622,6.231,6.231,0,0,0,52.574,9.4a2.074,2.074,0,1,1,0-4.149A10.383,10.383,0,0,1,62.947,15.622,2.074,2.074,0,0,1,60.872,17.7Z" transform="translate(13.116 -5.25)" fill="#0a1a30"/>
          <path id="Trazado_902305" data-name="Trazado 902305" d="M67.893,9.4H12.574a2.074,2.074,0,1,1,0-4.149H67.893a2.074,2.074,0,0,1,0,4.149Z" transform="translate(-2.202 -5.25)" fill="#0a1a30"/>
          <path id="Trazado_902306" data-name="Trazado 902306" d="M6.574,17.7A2.073,2.073,0,0,1,4.5,15.622,10.383,10.383,0,0,1,14.872,5.25a2.074,2.074,0,0,1,0,4.149,6.231,6.231,0,0,0-6.223,6.223A2.073,2.073,0,0,1,6.574,17.7Z" transform="translate(-4.5 -5.25)" fill="#0a1a30"/>
          <path id="Trazado_902307" data-name="Trazado 902307" d="M22.34,50.25a4.84,4.84,0,1,1-4.84,4.84A4.937,4.937,0,0,1,22.34,50.25Z" transform="translate(0.479 11.983)" fill="#0a1a30"/>
        </g>
      </g>
    </g>
  </g>
</svg>
